<svg width="422" height="111" viewBox="0 0 422 111" fill="none" xmlns="http://www.w3.org/2000/svg">
<g filter="url(#filter0_dd_8_3)">
<path d="M417.44 0.11526L397.2 11.2365L416.952 23.2041L417.44 0.11526ZM5.864 24.8431C8.27796 23.6868 10.6858 22.6381 13.0878 21.6921L11.622 17.9703C9.13018 18.9517 6.63488 20.0386 4.13601 21.2356L5.864 24.8431ZM27.8757 17.1066C32.9973 15.9369 38.1002 15.1949 43.1878 14.8345L42.9052 10.8445C37.6185 11.219 32.3121 11.9904 26.985 13.207L27.8757 17.1066ZM58.7164 14.8748C63.8646 15.252 69.004 15.9762 74.1376 17.0007L74.9204 13.0781C69.6392 12.0241 64.3357 11.2758 59.0087 10.8855L58.7164 14.8748ZM89.2785 20.8531C94.2144 22.3654 99.1456 24.113 104.075 26.0535L105.54 22.3315C100.527 20.358 95.4975 18.575 90.4503 17.0286L89.2785 20.8531ZM118.531 32.2598C123.255 34.4427 127.976 36.7634 132.696 39.1838L134.521 35.6244C129.761 33.1839 124.991 30.8386 120.209 28.6287L118.531 32.2598ZM146.633 46.5816C151.24 49.0975 155.844 51.6707 160.452 54.2666L162.416 50.7816C157.801 48.1817 153.179 45.5989 148.551 43.0712L146.633 46.5816ZM174.243 62.0618C178.857 64.6663 183.476 67.2574 188.098 69.7968L190.024 66.2911C185.422 63.7625 180.818 61.1801 176.209 58.5784L174.243 62.0618ZM202.112 77.2946C206.859 79.7533 211.614 82.1204 216.378 84.3558L218.077 80.7347C213.369 78.5255 208.662 76.1822 203.951 73.7427L202.112 77.2946ZM230.984 90.7432C235.977 92.7528 240.983 94.5755 246.004 96.1652L247.211 92.3517C242.299 90.7966 237.389 89.0093 232.478 87.0325L230.984 90.7432ZM261.509 100.272C266.789 101.383 272.088 102.187 277.408 102.632L277.741 98.6459C272.6 98.2159 267.465 97.4374 262.332 96.358L261.509 100.272ZM293.504 102.831C298.812 102.503 304.137 101.77 309.481 100.583L308.614 96.6782C303.48 97.8188 298.363 98.5229 293.258 98.8382L293.504 102.831ZM324.936 95.8553C329.758 93.9654 334.59 91.673 339.434 88.944L337.47 85.4591C332.784 88.0995 328.12 90.3112 323.476 92.1311L324.936 95.8553ZM352.91 80.2198C357.056 77.1815 361.209 73.8042 365.372 70.067L362.7 67.0905C358.63 70.7444 354.579 74.0377 350.545 76.9936L352.91 80.2198ZM376.782 58.9334C380.27 55.2534 383.766 51.3094 387.271 47.089L384.193 44.5337C380.742 48.6905 377.304 52.5687 373.879 56.1816L376.782 58.9334ZM397.081 34.5729C400.173 30.4045 403.273 26.0138 406.38 21.3923L403.06 19.1605C399.986 23.7334 396.922 28.0735 393.868 32.1896L397.081 34.5729Z" fill="url(#paint0_linear_8_3)"/>
</g>
<defs>
<filter id="filter0_dd_8_3" x="0.135986" y="0.115257" width="421.304" height="110.715" filterUnits="userSpaceOnUse" color-interpolation-filters="sRGB">
<feFlood flood-opacity="0" result="BackgroundImageFix"/>
<feColorMatrix in="SourceAlpha" type="matrix" values="0 0 0 0 0 0 0 0 0 0 0 0 0 0 0 0 0 0 127 0" result="hardAlpha"/>
<feOffset dy="4"/>
<feGaussianBlur stdDeviation="2"/>
<feComposite in2="hardAlpha" operator="out"/>
<feColorMatrix type="matrix" values="0 0 0 0 0 0 0 0 0 0 0 0 0 0 0 0 0 0 0.25 0"/>
<feBlend mode="normal" in2="BackgroundImageFix" result="effect1_dropShadow_8_3"/>
<feColorMatrix in="SourceAlpha" type="matrix" values="0 0 0 0 0 0 0 0 0 0 0 0 0 0 0 0 0 0 127 0" result="hardAlpha"/>
<feOffset dy="4"/>
<feGaussianBlur stdDeviation="2"/>
<feComposite in2="hardAlpha" operator="out"/>
<feColorMatrix type="matrix" values="0 0 0 0 0 0 0 0 0 0 0 0 0 0 0 0 0 0 0.25 0"/>
<feBlend mode="normal" in2="effect1_dropShadow_8_3" result="effect2_dropShadow_8_3"/>
<feBlend mode="normal" in="SourceGraphic" in2="effect2_dropShadow_8_3" result="shape"/>
</filter>
<linearGradient id="paint0_linear_8_3" x1="270.038" y1="-87.4424" x2="152.402" y2="110.597" gradientUnits="userSpaceOnUse">
<stop stop-color="#B50000"/>
<stop offset="1" stop-opacity="0"/>
</linearGradient>
</defs>
</svg>
