<svg width="372" height="688" viewBox="0 0 372 688" fill="none" xmlns="http://www.w3.org/2000/svg">
<g clip-path="url(#clip0_182_2)">
<path d="M20 344L377 18.3745L377 669.626L20 344Z" fill="#00ADB5" fill-opacity="0.16"/>
<path d="M67 344L424 18.3745L424 669.626L67 344Z" fill="#00ADB5" fill-opacity="0.16"/>
<path d="M114 344L471 18.3745L471 669.626L114 344Z" fill="#00ADB5" fill-opacity="0.16"/>
<path d="M161 344L518 18.3745L518 669.626L161 344Z" fill="#00ADB5" fill-opacity="0.16"/>
<path d="M208 344L565 18.3745L565 669.626L208 344Z" fill="#00ADB5" fill-opacity="0.16"/>
<path d="M255 344L612 18.3745L612 669.626L255 344Z" fill="#00ADB5" fill-opacity="0.16"/>
<path d="M302 344L659 18.3745L659 669.626L302 344Z" fill="#00ADB5" fill-opacity="0.16"/>
<path d="M341 344L698 18.3745L698 669.626L341 344Z" fill="#00ADB5" fill-opacity="0.16"/>
</g>
<defs>
<clipPath id="clip0_182_2">
<rect width="372" height="688" fill="white"/>
</clipPath>
</defs>
</svg>
