<svg width="427" height="702" viewBox="0 0 427 702" fill="none" xmlns="http://www.w3.org/2000/svg">
<g clip-path="url(#clip0_188_4)">
<path d="M0 366.5L425.981 49.1018V683.898L0 366.5Z" fill="#00ADB5" fill-opacity="0.16"/>
<path d="M56.0815 366.5L482.063 49.1018V683.898L56.0815 366.5Z" fill="#00ADB5" fill-opacity="0.16"/>
<path d="M112.163 366.5L538.144 49.1018V683.898L112.163 366.5Z" fill="#00ADB5" fill-opacity="0.16"/>
<path d="M168.245 366.5L594.226 49.1018V683.898L168.245 366.5Z" fill="#00ADB5" fill-opacity="0.16"/>
<path d="M224.326 366.5L650.307 49.1018V683.898L224.326 366.5Z" fill="#00ADB5" fill-opacity="0.16"/>
<path d="M280.408 366.5L706.389 49.1018V683.898L280.408 366.5Z" fill="#00ADB5" fill-opacity="0.16"/>
<path d="M336.489 366.5L762.471 49.1018V683.898L336.489 366.5Z" fill="#00ADB5" fill-opacity="0.16"/>
<path d="M383.025 366.5L809.006 49.1018V683.898L383.025 366.5Z" fill="#00ADB5" fill-opacity="0.16"/>
</g>
<defs>
<clipPath id="clip0_188_4">
<rect width="427" height="702" fill="white"/>
</clipPath>
</defs>
</svg>
