<svg width="300" height="300" viewBox="0 0 300 300" fill="none" xmlns="http://www.w3.org/2000/svg">
<g clip-path="url(#clip0_66_2)">
<path d="M236.982 150.295C236.982 198.145 198.039 236.935 150 236.935C101.961 236.935 63.0178 198.145 63.0178 150.295V149.705C63.0178 101.855 101.961 63.0647 150 63.0647C198.039 63.0647 236.982 101.855 236.982 149.705V150.295Z" fill="#3E4062" fill-opacity="0.08"/>
<path opacity="0.5" d="M299.852 150.589C299.852 233.025 232.761 299.853 150 299.853C67.239 299.853 0.147949 233.025 0.147949 150.589V149.411C0.147949 66.9747 67.239 0.147247 150 0.147247C232.761 0.147247 299.852 66.9747 299.852 149.411V150.589Z" stroke="#878D92" stroke-opacity="0.17"/>
<path d="M249.556 150.294C249.556 205.062 204.983 249.459 150 249.459C95.0167 249.459 50.4438 205.062 50.4438 150.294V149.705C50.4438 94.9377 95.0167 50.54 150 50.54C204.983 50.54 249.556 94.9377 249.556 149.705V150.294Z" stroke="#878D92" stroke-opacity="0.17"/>
</g>
<defs>
<clipPath id="clip0_66_2">
<rect width="300" height="300" fill="white"/>
</clipPath>
</defs>
</svg>
