<svg width="50" height="128" viewBox="0 0 50 128" fill="none" xmlns="http://www.w3.org/2000/svg">
<path d="M-17.374 127.299V104.232H-15.774V104.365H-12.8407V104.232H-10.8407V104.099H-9.64069V103.965H-8.70736V103.832H-7.90736V103.699H-6.97402V103.565H-6.17402V103.432H-5.64069V103.299H-5.10736V103.165H-4.57402V103.032H-4.04069V102.899H-3.50736V102.765H-3.10736V102.632H-2.57402V102.499H-2.17402V102.365H-1.77402V102.232H-1.37402V102.099H-0.974024V101.965H-0.707357V101.832H-0.307358V101.699H0.0926418V101.565H0.492641V101.432H0.759308V101.299H1.15931V101.165H1.55931V101.032H1.82598V100.899H2.09264V100.765H2.35931V100.632H2.62597V100.499H2.89264V100.365H3.15931V100.232H3.42598V100.099H3.69264V99.9653H3.95931V99.8319H4.22598V99.6986H4.49264V99.5653H4.75931V99.4319H5.02597V99.2986H5.29264V99.1653H5.55931V99.0319H5.69264V98.8986H5.95931V98.7653H6.09264V98.6319H6.35931V98.4986H6.62597V98.3653H6.75931V98.2319H7.02597V98.0986H7.29264V97.9653H7.42598V97.8319H7.69264V97.6986H7.95931V97.5653H8.09264V97.4319H8.35931V97.2986H8.49264V97.1653H8.62597V97.0319H8.89264V96.8986H9.02597V96.7653H9.15931V96.6319H9.42598V96.4986H9.55931V96.3653H9.69264V96.2319H9.95931V96.0986H10.0926V95.9653H10.226V95.8319H10.4926V95.6986H10.626V95.5653H10.7593V95.4319H11.026V95.2986H11.1593V95.1653H11.2926V95.0319H11.5593V94.8986H11.6926V94.7653H11.826V94.6319H11.9593V94.4986H12.0926V94.3653H12.226V94.2319H12.3593V94.0986H12.4926V93.9653H12.626V93.8319H12.7593V93.6986H13.026V93.5653H13.1593V93.4319H13.2926V93.2986H13.426V93.1653H13.5593V93.0319H13.6926V92.8986H13.826V92.7653H13.9593V92.6319H14.0926V92.4986H14.226V92.3653H14.3593V92.2319H14.4926V92.0986H14.626V91.9653H14.7593V91.8319H14.8926V91.6986H15.026V91.5653H15.1593V91.4319H15.2926V91.2986H15.426V91.0319H15.5593V90.8986H15.6926V90.7653H15.826V90.6319H15.9593V90.4986H16.0926V90.3653H16.226V90.2319H16.3593V90.0986H16.4926V89.9653H16.626V89.8319H16.7593V89.5653H16.8926V89.4319H17.026V89.2986H17.1593V89.0319H17.2926V88.8986H17.426V88.7653H17.5593V88.4986H17.6926V88.3653H17.826V88.2319H17.9593V87.9653H18.0926V87.8319H18.226V87.6986H18.3593V87.4319H18.4926V87.2986H18.626V87.1653H18.7593V86.8986H18.8926V86.7653H19.026V86.6319H19.1593V86.3653H19.2926V86.2319H19.426V85.9653H19.5593V85.6986H19.6926V85.5653H19.826V85.2986H19.9593V85.0319H20.0926V84.8986H20.226V84.6319H20.3593V84.3653H20.4926V84.2319H20.626V83.9653H20.7593V83.8319H20.8926V83.5653H21.026V83.2986H21.1593V83.0319H21.2926V82.7653H21.426V82.4986H21.5593V82.2319H21.6926V81.9653H21.826V81.6986H21.9593V81.4319H22.0926V81.1653H22.226V80.8986H22.3593V80.6319H22.4926V80.3653H22.626V80.0986H22.7593V79.8319H22.8926V79.4319H23.026V79.0319H23.1593V78.7653H23.2926V78.3653H23.426V77.9653H23.5593V77.6986H23.6926V77.2986H23.826V76.8986H23.9593V76.4986H24.0926V76.2319H24.226V75.6986H24.3593V75.2986H24.4926V74.7653H24.626V74.2319H24.7593V73.6986H24.8926V73.1653H25.026V72.6319H25.1593V72.0986H25.2926V71.2986H25.426V70.4986H25.5593V69.5653H25.6926V68.7653H25.826V67.5653H25.9593V65.5653H26.0926V62.3653H25.9593V60.3653H25.826V59.1653H25.6926V58.3653H25.5593V57.4319H25.426V56.6319H25.2926V55.8319H25.1593V55.2986H25.026V54.7653H24.8926V54.2319H24.7593V53.6986H24.626V53.1653H24.4926V52.6319H24.3593V52.0986H24.226V51.6986H24.0926V51.4319H23.9593V51.0319H23.826V50.6319H23.6926V50.2319H23.5593V49.9653H23.426V49.5653H23.2926V49.1653H23.1593V48.8986H23.026V48.4986H22.8926V48.0986H22.7593V47.8319H22.626V47.5653H22.4926V47.2986H22.3593V47.0319H22.226V46.7653H22.0926V46.4986H21.9593V46.2319H21.826V45.9653H21.6926V45.6986H21.5593V45.4319H21.426V45.1653H21.2926V44.8986H21.1593V44.6319H21.026V44.3653H20.8926V44.0986H20.7593V43.9653H20.626V43.6986H20.4926V43.5653H20.3593V43.2986H20.226V43.0319H20.0926V42.8986H19.9593V42.6319H19.826V42.3653H19.6926V42.2319H19.5593V41.9653H19.426V41.6986H19.2926V41.5653H19.1593V41.2986H19.026V41.1653H18.8926V41.0319H18.7593V40.7653H18.626V40.6319H18.4926V40.4986H18.3593V40.2319H18.226V40.0986H18.0926V39.9653H17.9593V39.6986H17.826V39.5653H17.6926V39.4319H17.5593V39.1653H17.426V39.0319H17.2926V38.7653H17.1593V38.6319H17.026V38.4986H16.8926V38.2319H16.7593V38.0986H16.626V37.9653H16.4926V37.8319H16.3593V37.6986H16.226V37.5653H16.0926V37.4319H15.9593V37.2986H15.826V37.1653H15.6926V37.0319H15.5593V36.7653H15.426V36.6319H15.2926V36.4986H15.1593V36.3653H15.026V36.2319H14.8926V36.0986H14.7593V35.9653H14.626V35.8319H14.4926V35.6986H14.3593V35.5653H14.226V35.4319H14.0926V35.2986H13.9593V35.1653H13.826V35.0319H13.6926V34.8986H13.5593V34.7653H13.426V34.6319H13.2926V34.4986H13.1593V34.3653H13.026V34.2319H12.8926V34.0986H12.626V33.9653H12.4926V33.8319H12.3593V33.6986H12.226V33.5653H12.0926V33.4319H11.9593V33.2986H11.826V33.1653H11.6926V33.0319H11.5593V32.8986H11.2926V32.7653H11.1593V32.6319H11.026V32.4986H10.7593V32.3653H10.626V32.2319H10.4926V32.0986H10.226V31.9653H10.0926V31.8319H9.95931V31.6986H9.69264V31.5653H9.55931V31.4319H9.42598V31.2986H9.15931V31.1653H9.02597V31.0319H8.89264V30.8986H8.62597V30.7653H8.49264V30.6319H8.35931V30.4986H8.09264V30.3653H7.95931V30.2319H7.69264V30.0986H7.42598V29.9653H7.29264V29.8319H7.02597V29.6986H6.75931V29.5653H6.62597V29.4319H6.35931V29.2986H6.09264V29.1653H5.95931V29.0319H5.69264V28.8986H5.55931V28.7653H5.29264V28.6319H5.02597V28.4986H4.75931V28.3653H4.49264V28.2319H4.22598V28.0986H3.95931V27.9653H3.69264V27.8319H3.42598V27.6986H3.15931V27.5653H2.89264V27.4319H2.62597V27.2986H2.35931V27.1653H2.09264V27.0319H1.82598V26.8986H1.55931V26.7653H1.15931V26.6319H0.759308V26.4986H0.492641V26.3653H0.0926418V26.2319H-0.307358V26.0986H-0.707357V25.9653H-0.974024V25.8319H-1.37402V25.6986H-1.77402V25.5653H-2.04069V25.4319H-2.57402V25.2986H-2.97402V25.1653H-3.50736V25.0319H-4.04069V24.8986H-4.57402V24.7653H-5.10736V24.6319H-5.64069V24.4986H-6.17402V24.3653H-6.97402V24.2319H-7.90736V24.0986H-8.70736V23.9653H-9.64069V23.8319H-10.8407V23.6986H-12.7074V23.5653H-15.774V23.6986H-17.374V0.631927H-10.7074V0.765259H-8.97402V0.89859H-7.37402V1.03192H-6.30736V1.16526H-5.37402V1.29859H-4.30736V1.43192H-3.64069V1.56526H-2.84069V1.69859H-2.17402V1.83192H-1.37402V1.96526H-0.840691V2.09859H-0.307358V2.23193H0.359308V2.36526H0.892643V2.49859H1.42598V2.63193H1.95931V2.76526H2.49264V2.89859H2.89264V3.03192H3.42598V3.16526H3.82598V3.29859H4.35931V3.43192H4.75931V3.56526H5.15931V3.69859H5.55931V3.83192H5.95931V3.96526H6.35931V4.09859H6.75931V4.23193H7.15931V4.36526H7.55931V4.49859H7.82598V4.63193H8.22598V4.76526H8.49264V4.89859H8.89264V5.03192H9.15931V5.16526H9.55931V5.29859H9.82598V5.43192H10.226V5.56525H10.4926V5.69859H10.8926V5.83192H11.1593V5.96526H11.426V6.09859H11.6926V6.23193H11.9593V6.36526H12.3593V6.49859H12.626V6.63193H12.8926V6.76526H13.1593V6.89859H13.426V7.03192H13.6926V7.16526H13.9593V7.29859H14.226V7.43192H14.4926V7.56525H14.7593V7.69859H15.026V7.83192H15.2926V7.96526H15.5593V8.09859H15.826V8.23193H16.0926V8.36526H16.226V8.49859H16.4926V8.63193H16.7593V8.76526H17.026V8.89859H17.1593V9.03192H17.426V9.16526H17.6926V9.29859H17.9593V9.43192H18.0926V9.56525H18.3593V9.69859H18.626V9.83192H18.7593V9.96526H19.026V10.0986H19.1593V10.2319H19.426V10.3653H19.6926V10.4986H19.826V10.6319H20.0926V10.7653H20.226V10.8986H20.4926V11.0319H20.626V11.1653H20.8926V11.2986H21.1593V11.4319H21.2926V11.5653H21.426V11.6986H21.6926V11.8319H21.826V11.9653H22.0926V12.0986H22.226V12.2319H22.3593V12.3653H22.626V12.4986H22.7593V12.6319H23.026V12.7653H23.1593V12.8986H23.2926V13.0319H23.5593V13.1653H23.6926V13.2986H23.826V13.4319H24.0926V13.5653H24.226V13.6986H24.3593V13.8319H24.626V13.9653H24.7593V14.0986H24.8926V14.2319H25.026V14.3653H25.2926V14.4986H25.426V14.6319H25.5593V14.7653H25.6926V14.8986H25.9593V15.0319H26.0926V15.1653H26.226V15.2986H26.3593V15.4319H26.4926V15.5653H26.7593V15.6986H26.8926V15.8319H27.026V15.9653H27.1593V16.0986H27.2926V16.2319H27.426V16.3653H27.6926V16.4986H27.826V16.6319H27.9593V16.7653H28.0926V16.8986H28.226V17.0319H28.3593V17.1653H28.4926V17.2986H28.626V17.4319H28.7593V17.5653H28.8926V17.6986H29.026V17.8319H29.2926V17.9653H29.426V18.0986H29.5593V18.2319H29.6926V18.3653H29.826V18.4986H29.9593V18.6319H30.0926V18.7653H30.226V18.8986H30.3593V19.0319H30.4926V19.1653H30.626V19.2986H30.7593V19.4319H30.8926V19.5653H31.026V19.6986H31.1593V19.8319H31.2926V19.9653H31.426V20.0986H31.5593V20.2319H31.6926V20.3653H31.826V20.6319H31.9593V20.7653H32.0926V20.8986H32.226V21.0319H32.3593V21.1653H32.4926V21.2986H32.626V21.4319H32.7593V21.5653H32.8926V21.6986H33.026V21.8319H33.1593V21.9653H33.2926V22.2319H33.426V22.3653H33.5593V22.4986H33.6926V22.6319H33.826V22.7653H33.9593V22.8986H34.0926V23.1653H34.226V23.2986H34.3593V23.4319H34.4926V23.5653H34.626V23.6986H34.7593V23.9653H34.8926V24.0986H35.026V24.2319H35.1593V24.3653H35.2926V24.6319H35.426V24.7653H35.5593V24.8986H35.6926V25.0319H35.826V25.2986H35.9593V25.4319H36.0926V25.5653H36.226V25.8319H36.3593V25.9653H36.4926V26.0986H36.626V26.3653H36.7593V26.4986H36.8926V26.6319H37.026V26.8986H37.1593V27.0319H37.2926V27.2986H37.426V27.4319H37.5593V27.5653H37.6926V27.8319H37.826V27.9653H37.9593V28.2319H38.0926V28.3653H38.226V28.4986H38.3593V28.7653H38.4926V29.0319H38.626V29.1653H38.7593V29.4319H38.8926V29.5653H39.026V29.8319H39.1593V29.9653H39.2926V30.2319H39.426V30.3653H39.5593V30.6319H39.6926V30.8986H39.826V31.0319H39.9593V31.2986H40.0926V31.5653H40.226V31.6986H40.3593V31.9653H40.4926V32.2319H40.626V32.4986H40.7593V32.6319H40.8926V32.8986H41.026V33.1653H41.1593V33.4319H41.2926V33.5653H41.426V33.8319H41.5593V34.0986H41.6926V34.3653H41.826V34.6319H41.9593V34.8986H42.0926V35.1653H42.226V35.4319H42.3593V35.6986H42.4926V35.9653H42.626V36.2319H42.7593V36.4986H42.8926V36.7653H43.026V37.0319H43.1593V37.2986H43.2926V37.5653H43.426V37.9653H43.5593V38.2319H43.6926V38.4986H43.826V38.7653H43.9593V39.1653H44.0926V39.4319H44.226V39.6986H44.3593V40.0986H44.4926V40.4986H44.626V40.7653H44.7593V41.1653H44.8926V41.4319H45.026V41.8319H45.1593V42.0986H45.2926V42.4986H45.426V42.8986H45.5593V43.2986H45.6926V43.6986H45.826V44.0986H45.9593V44.4986H46.0926V44.8986H46.226V45.2986H46.3593V45.8319H46.4926V46.2319H46.626V46.7653H46.7593V47.1653H46.8926V47.6986H47.026V48.0986H47.1593V48.7653H47.2926V49.2986H47.426V49.8319H47.5593V50.4986H47.6926V51.0319H47.826V51.6986H47.9593V52.4986H48.0926V53.2986H48.226V53.9653H48.3593V54.8986H48.4926V55.9653H48.626V57.0319H48.7593V58.4986H48.8926V60.2319H49.026V67.6986H48.8926V69.4319H48.7593V70.8986H48.626V71.9653H48.4926V73.0319H48.3593V73.9653H48.226V74.6319H48.0926V75.4319H47.9593V76.2319H47.826V76.8986H47.6926V77.4319H47.5593V78.0986H47.426V78.6319H47.2926V79.1653H47.1593V79.8319H47.026V80.2319H46.8926V80.7653H46.7593V81.1653H46.626V81.6986H46.4926V82.0986H46.3593V82.6319H46.226V83.0319H46.0926V83.4319H45.9593V83.8319H45.826V84.2319H45.6926V84.6319H45.5593V85.0319H45.426V85.4319H45.2926V85.8319H45.1593V86.0986H45.026V86.4986H44.8926V86.7653H44.7593V87.1653H44.626V87.4319H44.4926V87.8319H44.3593V88.2319H44.226V88.4986H44.0926V88.7653H43.9593V89.1653H43.826V89.4319H43.6926V89.6986H43.5593V89.9653H43.426V90.2319H43.2926V90.6319H43.1593V90.8986H43.026V91.1653H42.8926V91.4319H42.7593V91.6986H42.626V91.9653H42.4926V92.2319H42.3593V92.4986H42.226V92.7653H42.0926V93.0319H41.9593V93.2986H41.826V93.5653H41.6926V93.8319H41.5593V94.0986H41.426V94.3653H41.2926V94.4986H41.1593V94.7653H41.026V95.0319H40.8926V95.2986H40.7593V95.4319H40.626V95.6986H40.4926V95.9653H40.3593V96.2319H40.226V96.3653H40.0926V96.6319H39.9593V96.8986H39.826V97.0319H39.6926V97.2986H39.5593V97.5653H39.426V97.6986H39.2926V97.9653H39.1593V98.0986H39.026V98.3653H38.8926V98.4986H38.7593V98.7653H38.626V98.8986H38.4926V99.1653H38.3593V99.4319H38.226V99.5653H38.0926V99.6986H37.9593V99.9653H37.826V100.099H37.6926V100.365H37.5593V100.499H37.426V100.632H37.2926V100.899H37.1593V101.032H37.026V101.299H36.8926V101.432H36.7593V101.565H36.626V101.832H36.4926V101.965H36.3593V102.099H36.226V102.365H36.0926V102.499H35.9593V102.632H35.826V102.899H35.6926V103.032H35.5593V103.165H35.426V103.299H35.2926V103.565H35.1593V103.699H35.026V103.832H34.8926V103.965H34.7593V104.232H34.626V104.365H34.4926V104.499H34.3593V104.632H34.226V104.765H34.0926V105.032H33.9593V105.165H33.826V105.299H33.6926V105.432H33.5593V105.565H33.426V105.699H33.2926V105.965H33.1593V106.099H33.026V106.232H32.8926V106.365H32.7593V106.499H32.626V106.632H32.4926V106.765H32.3593V106.899H32.226V107.032H32.0926V107.165H31.9593V107.299H31.826V107.565H31.6926V107.699H31.5593V107.832H31.426V107.965H31.2926V108.099H31.1593V108.232H31.026V108.365H30.8926V108.499H30.7593V108.632H30.626V108.765H30.4926V108.899H30.3593V109.032H30.226V109.165H30.0926V109.299H29.9593V109.432H29.826V109.565H29.6926V109.699H29.5593V109.832H29.426V109.965H29.2926V110.099H29.026V110.232H28.8926V110.365H28.7593V110.499H28.626V110.632H28.4926V110.765H28.3593V110.899H28.226V111.032H28.0926V111.165H27.9593V111.299H27.826V111.432H27.6926V111.565H27.426V111.699H27.2926V111.832H27.1593V111.965H27.026V112.099H26.8926V112.232H26.7593V112.365H26.4926V112.499H26.3593V112.632H26.226V112.765H26.0926V112.899H25.9593V113.032H25.6926V113.165H25.5593V113.299H25.426V113.432H25.2926V113.565H25.026V113.699H24.8926V113.832H24.7593V113.965H24.626V114.099H24.3593V114.232H24.226V114.365H24.0926V114.499H23.826V114.632H23.6926V114.765H23.5593V114.899H23.2926V115.032H23.1593V115.165H23.026V115.299H22.7593V115.432H22.626V115.565H22.3593V115.699H22.226V115.832H22.0926V115.965H21.826V116.099H21.6926V116.232H21.426V116.365H21.2926V116.499H21.1593V116.632H20.8926V116.765H20.626V116.899H20.4926V117.032H20.226V117.165H20.0926V117.299H19.826V117.432H19.6926V117.565H19.426V117.699H19.1593V117.832H19.026V117.965H18.7593V118.099H18.626V118.232H18.3593V118.365H18.0926V118.499H17.9593V118.632H17.6926V118.765H17.426V118.899H17.1593V119.032H17.026V119.165H16.7593V119.299H16.4926V119.432H16.226V119.565H16.0926V119.699H15.826V119.832H15.5593V119.965H15.2926V120.099H15.026V120.232H14.7593V120.365H14.4926V120.499H14.226V120.632H13.9593V120.765H13.6926V120.899H13.426V121.032H13.1593V121.165H12.8926V121.299H12.626V121.432H12.3593V121.565H11.9593V121.699H11.6926V121.832H11.426V121.965H11.1593V122.099H10.8926V122.232H10.4926V122.365H10.226V122.499H9.82598V122.632H9.55931V122.765H9.15931V122.899H8.89264V123.032H8.49264V123.165H8.22598V123.299H7.82598V123.432H7.55931V123.565H7.15931V123.699H6.75931V123.832H6.35931V123.965H5.95931V124.099H5.55931V124.232H5.15931V124.365H4.75931V124.499H4.35931V124.632H3.82598V124.765H3.42598V124.899H2.89264V125.032H2.49264V125.165H1.95931V125.299H1.42598V125.432H0.892643V125.565H0.359308V125.699H-0.307358V125.832H-0.840691V125.965H-1.37402V126.099H-2.17402V126.232H-2.84069V126.365H-3.64069V126.499H-4.30736V126.632H-5.37402V126.765H-6.44069V126.899H-7.37402V127.032H-8.97402V127.165H-10.7074V127.299" fill="url(#paint0_linear_52_2659)"/>
<defs>
<linearGradient id="paint0_linear_52_2659" x1="-77.6041" y1="63.9639" x2="49.0026" y2="63.9639" gradientUnits="userSpaceOnUse">
<stop stop-color="#8ED023"/>
<stop offset="0.150029" stop-color="#8ED023"/>
<stop offset="1" stop-color="#78D2D3"/>
</linearGradient>
</defs>
</svg>
