<svg width="15" height="14" viewBox="0 0 15 14" fill="none" xmlns="http://www.w3.org/2000/svg">
<path d="M2.86413 2.14974C1.16085 3.84362 0.329021 5.92841 0.0913549 8.79499C-0.1067 11.1404 -0.0670891 11.401 1.08163 12.6171C2.62646 14.3544 4.01285 14.3544 5.55768 12.704C7.06289 11.0101 7.06289 9.48992 5.51806 7.79603C4.48818 6.66677 4.09207 6.49304 2.94335 6.7102C2.19074 6.8405 1.55696 6.88394 1.55696 6.75364C1.55696 6.05871 2.90374 3.93049 3.93362 2.97496C4.5674 2.3669 5.12195 1.67197 5.12195 1.41138C5.12195 0.542715 4.05246 0.890179 2.86413 2.14974Z" fill="#222831"/>
<path d="M11.1825 2.14974C9.47921 3.84362 8.64738 5.92841 8.40971 8.79499C8.21166 11.1404 8.25127 11.401 9.39999 12.6171C10.9448 14.3544 12.3312 14.3544 13.876 12.704C15.3813 11.0101 15.3813 9.48992 13.8364 7.79603C12.8065 6.66677 12.4104 6.49304 11.2617 6.7102C10.5091 6.8405 9.87532 6.88394 9.87532 6.75364C9.87532 6.05871 11.2221 3.93049 12.252 2.97496C12.8858 2.3669 13.4403 1.67197 13.4403 1.41138C13.4403 0.542715 12.3708 0.890179 11.1825 2.14974Z" fill="#222831"/>
</svg>
