<svg width="357" height="752" viewBox="0 0 357 752" fill="none" xmlns="http://www.w3.org/2000/svg">
<path d="M0 376L357 50.3745L357 701.626L0 376Z" fill="#00ADB5" fill-opacity="0.16"/>
<path d="M47 376L404 50.3745L404 701.626L47 376Z" fill="#00ADB5" fill-opacity="0.16"/>
<path d="M94 376L451 50.3745L451 701.626L94 376Z" fill="#00ADB5" fill-opacity="0.16"/>
<path d="M141 376L498 50.3745L498 701.626L141 376Z" fill="#00ADB5" fill-opacity="0.16"/>
<path d="M188 376L545 50.3745L545 701.626L188 376Z" fill="#00ADB5" fill-opacity="0.16"/>
<path d="M235 376L592 50.3745L592 701.626L235 376Z" fill="#00ADB5" fill-opacity="0.16"/>
<path d="M282 376L639 50.3745L639 701.626L282 376Z" fill="#00ADB5" fill-opacity="0.16"/>
<path d="M321 376L678 50.3745L678 701.626L321 376Z" fill="#00ADB5" fill-opacity="0.16"/>
</svg>
