<svg width="283" height="230" viewBox="0 0 283 230" fill="none" xmlns="http://www.w3.org/2000/svg">
<path d="M244.021 238.384C241.406 241.253 237.707 244.901 234.726 247.388C229.914 251.407 223.425 256.741 218.09 260.032C212.549 263.453 204.937 267.678 199.026 270.409C194.006 272.728 187.079 275.373 181.742 276.824C177.074 278.092 170.837 279.825 166.053 280.535C163.038 280.983 159.025 281.666 155.989 281.94C151.894 282.308 146.414 282.666 142.302 282.675C131.902 282.695 124.783 281.691 120.959 281.151C118.214 280.763 114.577 280.091 111.87 279.496C108.87 278.839 104.869 277.921 101.946 276.979C99.4608 276.178 96.1261 275.171 93.6701 274.285C91.1621 273.381 87.8314 272.125 85.4074 271.016C83.2328 270.021 80.2914 268.772 78.1821 267.642C76.1288 266.544 73.3634 265.128 71.3434 263.969C69.3621 262.836 66.7554 261.26 64.8474 260.007C61.0661 257.521 55.1781 253.573 47.7101 246.927C44.5568 244.121 40.6194 240.085 37.6901 237.047C36.1941 235.496 34.3728 233.271 32.9701 231.636C31.5208 229.948 29.7168 227.588 28.3874 225.803C27.0661 224.025 25.4114 221.579 24.1368 219.765C22.8408 217.921 21.3288 215.318 20.1421 213.403C18.8088 211.248 17.2248 208.259 16.0661 206.006C14.9621 203.861 13.5701 200.96 12.6048 198.749C11.4261 196.052 9.93677 192.417 8.95277 189.642C7.81677 186.44 6.45811 182.111 5.53811 178.839C4.00211 173.369 2.73545 165.879 1.79545 160.276C-0.461886 143.316 5.97545 125.051 22.1128 107.925C62.6061 64.956 149.078 45.1866 214.869 63.8573C149.078 45.1866 62.6061 64.956 22.1128 107.925C5.97545 125.051 -0.461886 143.316 1.79545 160.276C0.503447 150.128 0.542117 144.5 0.582117 138.542C0.616784 133.244 1.24478 126.177 2.06078 120.941C3.03678 114.673 4.87811 106.387 6.72211 100.317C8.49544 94.4851 11.3208 86.8122 14.0835 81.3789C17.0195 75.6028 21.1674 67.9866 24.8261 62.6373C28.6168 57.0973 34.2234 50.068 38.8394 45.1933C46.6581 36.9387 52.7314 32.2547 56.7501 29.156C61.6648 25.3653 68.7395 21.0053 74.1501 17.9627C79.0328 15.216 85.8634 12.108 91.1128 10.1507C97.0154 7.95199 105.079 5.49999 111.23 4.14399C115.871 3.12265 122.133 1.99731 126.871 1.63731C129.87 1.41198 133.866 1.02665 136.873 0.969312C140.887 0.893312 146.257 0.8293 150.257 1.19063C153.115 1.45063 156.934 1.73331 159.777 2.12931C163.159 2.59997 167.647 3.38532 170.991 4.07999C178.182 5.57732 186.522 8.25597 189.191 9.2933C191.675 10.2573 195.034 11.444 197.454 12.5613C201.737 14.5413 207.403 17.2973 211.518 19.608C213.509 20.7253 216.129 22.284 218.014 23.572C219.826 24.8107 222.271 26.4227 224.049 27.7107C225.793 28.972 228.071 30.7187 229.746 32.068C249.187 47.7307 260.625 65.4575 266.794 77.5721C268.067 80.068 269.659 83.4508 270.777 86.02C271.794 88.3612 272.985 91.5533 273.907 93.9347C275.135 97.1039 276.443 101.456 277.322 104.74C278.79 110.228 280.17 117.691 281.065 123.303C281.614 126.752 281.887 131.415 282.129 134.901C282.581 141.428 282.267 153.366 280.801 162.636C278.758 175.536 276.569 182.665 273.053 192.213C271.927 195.271 270.287 199.311 268.778 202.199C265.775 207.941 261.485 215.453 258.035 220.94C254.461 226.623 248.542 233.421 244.021 238.384V238.384Z" stroke="#FF2E63" stroke-width="0.666667" stroke-miterlimit="10"/>
<path d="M214.869 63.8573C149.078 45.1867 62.6061 64.956 22.1128 107.925C30.3808 170.003 90.5035 235.488 156.401 254.191C196.894 211.218 223.123 125.835 214.869 63.8573V63.8573Z" stroke="#FF2E63" stroke-width="0.666667" stroke-miterlimit="10"/>
<path d="M144.653 57.4346C148.822 88.7423 179.143 121.767 212.377 131.199" stroke="#FF2E63" stroke-width="0.666667" stroke-miterlimit="10"/>
<path d="M75.4634 73.2533C82.6007 126.842 134.503 183.373 191.39 199.518" stroke="#FF2E63" stroke-width="0.666667" stroke-miterlimit="10"/>
<path d="M214.869 63.8573C162.226 79.0158 86.4512 126.309 45.9592 169.28" stroke="#FF2E63" stroke-width="0.666667" stroke-miterlimit="10"/>
<path d="M214.869 63.8573C188.79 107.948 134.627 178.781 94.1353 221.752" stroke="#FF2E63" stroke-width="0.666667" stroke-miterlimit="10"/>
<path d="M214.869 63.8572C223.123 125.835 196.894 211.218 156.401 254.191C222.298 272.892 269.015 237.729 260.749 175.652C301.241 132.681 280.659 82.5278 214.869 63.8572V63.8572Z" stroke="#FF2E63" stroke-width="0.666667" stroke-miterlimit="10"/>
<path d="M212.377 131.199C245.61 140.63 269.171 122.897 265.002 91.5907" stroke="#FF2E63" stroke-width="0.666667" stroke-miterlimit="10"/>
<path d="M191.39 199.518C248.278 215.664 288.607 185.308 281.47 131.718" stroke="#FF2E63" stroke-width="0.666667" stroke-miterlimit="10"/>
<path d="M214.869 63.8572C255.202 126.797 255.071 212.965 214.578 255.935" stroke="#FF2E63" stroke-width="0.666667" stroke-miterlimit="10"/>
<path d="M214.869 63.8574C275.843 111.26 292.507 184.789 252.014 227.759" stroke="#FF2E63" stroke-width="0.666667" stroke-miterlimit="10"/>
<path d="M214.869 63.8573C280.659 82.5279 301.241 132.681 260.749 175.652C252.481 113.575 192.357 48.0894 126.459 29.388C166.953 -13.5826 206.614 1.88001 214.869 63.8573Z" stroke="#FF2E63" stroke-width="0.666667" stroke-miterlimit="10"/>
<path d="M265.002 91.5908C260.833 60.284 230.511 27.2574 197.278 17.8267" stroke="#FF2E63" stroke-width="0.666667" stroke-miterlimit="10"/>
<path d="M281.47 131.718C274.333 78.1304 222.431 21.5986 165.543 5.45465" stroke="#FF2E63" stroke-width="0.666667" stroke-miterlimit="10"/>
<path d="M214.869 63.8573C267.511 48.6986 277.395 71.3267 236.902 114.299" stroke="#FF2E63" stroke-width="0.666667" stroke-miterlimit="10"/>
<path d="M214.869 63.8573C240.947 19.7653 229.219 18.8546 188.726 61.8253" stroke="#FF2E63" stroke-width="0.666667" stroke-miterlimit="10"/>
<path d="M214.869 63.8573C206.614 1.87998 166.953 -13.5827 126.459 29.388C60.5634 10.6867 13.8448 45.8493 22.1128 107.925C62.6061 64.956 149.078 45.1866 214.869 63.8573Z" stroke="#FF2E63" stroke-width="0.666667" stroke-miterlimit="10"/>
<path d="M197.278 17.8266C164.043 8.39457 140.483 26.1279 144.653 57.4346" stroke="#FF2E63" stroke-width="0.666667" stroke-miterlimit="10"/>
<path d="M165.543 5.45464C108.655 -10.692 68.326 19.664 75.4633 73.2533" stroke="#FF2E63" stroke-width="0.666667" stroke-miterlimit="10"/>
<path d="M214.869 63.8573C174.535 0.917305 108.775 -15.328 68.282 27.6426" stroke="#FF2E63" stroke-width="0.666667" stroke-miterlimit="10"/>
<path d="M214.869 63.8573C153.894 16.4546 71.3407 12.848 30.8474 55.8186" stroke="#FF2E63" stroke-width="0.666667" stroke-miterlimit="10"/>
<path d="M22.1127 107.925C-18.3807 150.897 2.20205 201.048 67.9927 219.72C76.2474 281.697 115.907 297.16 156.401 254.191C90.5034 235.488 30.3807 170.003 22.1127 107.925V107.925Z" stroke="#FF2E63" stroke-width="0.666667" stroke-miterlimit="10"/>
<path d="M1.38989 151.857C8.52723 205.448 60.4299 261.979 117.318 278.124" stroke="#FF2E63" stroke-width="0.666667" stroke-miterlimit="10"/>
<path d="M45.9593 169.28C5.46599 212.251 15.35 234.879 67.9927 219.72" stroke="#FF2E63" stroke-width="0.666667" stroke-miterlimit="10"/>
<path d="M156.401 254.191C115.907 297.16 76.2473 281.697 67.9927 219.72C133.783 238.392 220.255 218.623 260.749 175.652C269.015 237.729 222.298 272.892 156.401 254.191Z" stroke="#FF2E63" stroke-width="0.666667" stroke-miterlimit="10"/>
<path d="M260.749 175.652C220.255 218.623 133.783 238.392 67.9927 219.72C59.7381 157.744 85.9674 72.3585 126.459 29.388C192.357 48.0893 252.481 113.575 260.749 175.652V175.652Z" stroke="#FF2E63" stroke-width="0.666667" stroke-miterlimit="10"/>
<path d="M207.398 210.324C200.261 156.736 148.358 100.204 91.47 84.0586" stroke="#FF2E63" stroke-width="0.666667" stroke-miterlimit="10"/>
<path d="M236.902 114.299C196.409 157.268 120.634 204.563 67.9927 219.72" stroke="#FF2E63" stroke-width="0.666667" stroke-miterlimit="10"/>
<path d="M188.726 61.8253C148.233 104.797 94.07 175.629 67.9927 219.72" stroke="#FF2E63" stroke-width="0.666667" stroke-miterlimit="10"/>
<path d="M126.459 29.388C85.9674 72.3585 59.738 157.744 67.9927 219.72C2.20205 201.048 -18.3807 150.897 22.1127 107.925C13.8447 45.8493 60.5634 10.6867 126.459 29.388Z" stroke="#FF2E63" stroke-width="0.666667" stroke-miterlimit="10"/>
<path d="M91.47 84.0585C34.5834 67.9132 -5.74727 98.2694 1.39006 151.857" stroke="#FF2E63" stroke-width="0.666667" stroke-miterlimit="10"/>
<path d="M68.282 27.6426C27.7887 70.6132 27.6593 156.781 67.9927 219.72" stroke="#FF2E63" stroke-width="0.666667" stroke-miterlimit="10"/>
<path d="M30.8475 55.8186C-9.64587 98.7893 7.01813 172.317 67.9928 219.72" stroke="#FF2E63" stroke-width="0.666667" stroke-miterlimit="10"/>
<path d="M244.021 238.384C241.406 241.253 237.707 244.901 234.726 247.388C229.914 251.407 223.425 256.741 218.09 260.032C212.549 263.453 204.937 267.678 199.026 270.409C194.006 272.728 187.079 275.373 181.742 276.824C177.074 278.092 170.837 279.825 166.053 280.535C163.038 280.983 159.025 281.666 155.989 281.94C151.894 282.308 146.414 282.666 142.302 282.675C131.902 282.695 124.783 281.691 120.959 281.151C118.214 280.763 114.577 280.091 111.87 279.496C108.87 278.839 104.869 277.921 101.946 276.979C99.4608 276.178 96.1261 275.171 93.6701 274.285C91.1621 273.381 87.8314 272.125 85.4074 271.016C83.2328 270.021 80.2914 268.772 78.1821 267.642C76.1288 266.544 73.3634 265.128 71.3434 263.969C69.3621 262.836 66.7554 261.26 64.8474 260.007C61.0661 257.521 55.1781 253.573 47.7101 246.927C44.5568 244.121 40.6194 240.085 37.6901 237.047C36.1941 235.496 34.3728 233.271 32.9701 231.636C31.5208 229.948 29.7168 227.588 28.3874 225.803C27.0661 224.025 25.4114 221.579 24.1368 219.765C22.8408 217.921 21.3288 215.318 20.1421 213.403C18.8088 211.248 17.2248 208.259 16.0661 206.006C14.9621 203.861 13.5701 200.96 12.6048 198.749C11.4261 196.052 9.93677 192.417 8.95277 189.642C7.81677 186.44 6.45811 182.111 5.53811 178.839C4.00211 173.369 2.73545 165.879 1.79545 160.276C-0.461886 143.316 5.97545 125.051 22.1128 107.925C62.6061 64.956 149.078 45.1866 214.869 63.8573C149.078 45.1866 62.6061 64.956 22.1128 107.925C5.97545 125.051 -0.461886 143.316 1.79545 160.276C0.503447 150.128 0.542117 144.5 0.582117 138.542C0.616784 133.244 1.24478 126.177 2.06078 120.941C3.03678 114.673 4.87811 106.387 6.72211 100.317C8.49544 94.4851 11.3208 86.8122 14.0835 81.3789C17.0195 75.6028 21.1674 67.9866 24.8261 62.6373C28.6168 57.0973 34.2234 50.068 38.8394 45.1933C46.6581 36.9387 52.7314 32.2547 56.7501 29.156C61.6648 25.3653 68.7395 21.0053 74.1501 17.9627C79.0328 15.216 85.8634 12.108 91.1128 10.1507C97.0154 7.95199 105.079 5.49999 111.23 4.14399C115.871 3.12265 122.133 1.99731 126.871 1.63731C129.87 1.41198 133.866 1.02665 136.873 0.969312C140.887 0.893312 146.257 0.8293 150.257 1.19063C153.115 1.45063 156.934 1.73331 159.777 2.12931C163.159 2.59997 167.647 3.38532 170.991 4.07999C178.182 5.57732 186.522 8.25597 189.191 9.2933C191.675 10.2573 195.034 11.444 197.454 12.5613C201.737 14.5413 207.403 17.2973 211.518 19.608C213.509 20.7253 216.129 22.284 218.014 23.572C219.826 24.8107 222.271 26.4227 224.049 27.7107C225.793 28.972 228.071 30.7187 229.746 32.068C249.187 47.7307 260.625 65.4575 266.794 77.5721C268.067 80.068 269.659 83.4508 270.777 86.02C271.794 88.3612 272.985 91.5533 273.907 93.9347C275.135 97.1039 276.443 101.456 277.322 104.74C278.79 110.228 280.17 117.691 281.065 123.303C281.614 126.752 281.887 131.415 282.129 134.901C282.581 141.428 282.267 153.366 280.801 162.636C278.758 175.536 276.569 182.665 273.053 192.213C271.927 195.271 270.287 199.311 268.778 202.199C265.775 207.941 261.485 215.453 258.035 220.94C254.461 226.623 248.542 233.421 244.021 238.384V238.384Z" stroke="#FF2E63" stroke-width="0.666667" stroke-miterlimit="10"/>
<path d="M1.79543 160.276C2.31809 163.921 3.05009 168.789 3.93942 172.361C4.60875 175.054 5.45275 178.657 6.23809 181.317C7.09675 184.223 8.4261 188.039 9.41409 190.903C10.3048 193.481 11.6834 196.857 12.8581 199.32C14.9048 203.613 17.8101 209.256 20.1421 213.403C23.1488 218.746 29.3928 227.505 33.0114 231.687C38.5368 238.072 38.8674 238.454 42.5794 242.115C44.7488 244.252 48.2034 247.554 53.1341 251.525C54.8394 252.9 57.1594 254.672 58.9328 255.954C60.7128 257.242 63.1621 258.851 64.9768 260.089C66.8221 261.352 69.4221 262.824 71.3434 263.969C74.1861 265.666 80.8567 269.156 86.7874 271.604C89.1314 272.572 92.2768 273.823 94.6781 274.642C97.7528 275.695 101.882 277.03 105.029 277.842C107.691 278.528 111.249 279.425 113.95 279.929C117.738 280.636 122.811 281.513 126.647 281.876C129.521 282.149 133.357 282.521 136.242 282.573C140.826 282.656 146.943 282.576 151.521 282.327C157.607 281.996 165.647 280.592 171.63 279.434C176.999 278.393 184.015 276.277 189.149 274.39C194.847 272.295 202.358 269.164 207.65 266.187C214.659 262.244 219.291 259.637 227.457 253.396C232.785 249.323 239.366 243.212 244.021 238.384C248.597 233.639 254.059 226.696 257.807 221.273C261.335 216.166 265.37 208.906 268.207 203.385C271.173 197.613 274.155 189.439 276.138 183.26C277.801 178.077 279.466 170.98 280.329 165.605C281.666 157.276 282.159 151.709 282.305 143.366C282.409 137.337 281.785 129.289 281.065 123.303C280.625 119.646 279.81 114.789 278.922 111.215C278.253 108.524 277.409 104.92 276.623 102.258C275.765 99.3544 274.435 95.5388 273.446 92.6757C272.555 90.096 271.177 86.7199 270.002 84.2574C267.955 79.9653 265.05 74.32 262.718 70.1757C259.722 64.8508 253.478 56.084 249.85 51.892C244.323 45.5066 243.993 45.124 240.281 41.464C238.111 39.3253 234.658 36.024 229.726 32.052C228.022 30.6786 225.701 28.9066 223.927 27.6226C222.147 26.336 219.698 24.728 217.885 23.488C216.038 22.2266 213.438 20.7533 211.518 19.6079C208.675 17.9119 202.005 14.4213 196.074 11.9733C193.73 11.0053 190.583 9.7546 188.183 8.9346C185.107 7.8826 180.979 6.54529 177.831 5.73462C175.17 5.04929 171.613 4.15195 168.91 3.64795C165.122 2.94128 160.05 2.06529 156.214 1.70129C153.341 1.42796 149.505 1.05728 146.618 1.00528C142.035 0.92128 135.917 1.00264 131.339 1.25064C125.254 1.58131 117.214 2.98528 111.23 4.14395C105.861 5.18528 98.8448 7.29996 93.7114 9.18796C88.0141 11.284 80.5034 14.4133 75.2114 17.3906C68.2008 21.3346 63.5701 23.94 55.4034 30.1826C50.0754 34.2546 43.4941 40.3653 38.8394 45.1933C34.2648 49.9386 28.8008 56.8813 25.0541 62.304C21.5248 67.4122 17.4901 74.6721 14.6541 80.1918C11.6874 85.9653 8.70609 94.1388 6.72209 100.317C5.05942 105.501 3.39543 112.597 2.53276 117.972C1.19143 126.32 0.700755 131.889 0.556755 140.211C0.451422 146.241 1.21009 154.273 1.79543 160.276ZM1.79543 160.276C5.20476 185.871 28.4221 208.489 67.9928 219.72" stroke="#FF2E63" stroke-width="0.666667" stroke-miterlimit="10"/>
<path d="M214.869 63.8573C149.078 45.1867 62.6061 64.956 22.1128 107.925C30.3808 170.003 90.5035 235.488 156.401 254.191C196.894 211.218 223.123 125.835 214.869 63.8573V63.8573Z" stroke="#FF2E63" stroke-width="0.666667" stroke-miterlimit="10"/>
<path d="M75.4634 73.2533C82.6007 126.842 134.503 183.373 191.39 199.518" stroke="#FF2E63" stroke-width="0.666667" stroke-miterlimit="10"/>
<path d="M214.869 63.8573C162.226 79.0158 86.4512 126.309 45.9592 169.28" stroke="#FF2E63" stroke-width="0.666667" stroke-miterlimit="10"/>
<path d="M214.869 63.8573C188.79 107.948 134.627 178.781 94.1353 221.752" stroke="#FF2E63" stroke-width="0.666667" stroke-miterlimit="10"/>
<path d="M214.869 63.8572C223.123 125.835 196.894 211.218 156.401 254.191C222.298 272.892 269.015 237.729 260.749 175.652C301.241 132.681 280.659 82.5278 214.869 63.8572V63.8572Z" stroke="#FF2E63" stroke-width="0.666667" stroke-miterlimit="10"/>
<path d="M191.39 199.518C248.278 215.664 288.607 185.308 281.47 131.718" stroke="#FF2E63" stroke-width="0.666667" stroke-miterlimit="10"/>
<path d="M214.869 63.8572C255.202 126.797 255.071 212.965 214.578 255.935" stroke="#FF2E63" stroke-width="0.666667" stroke-miterlimit="10"/>
<path d="M214.869 63.8574C275.843 111.26 292.507 184.789 252.014 227.759" stroke="#FF2E63" stroke-width="0.666667" stroke-miterlimit="10"/>
<path d="M214.869 63.8573C280.659 82.5279 301.241 132.681 260.749 175.652C252.481 113.575 192.357 48.0894 126.459 29.388C166.953 -13.5826 206.614 1.88001 214.869 63.8573Z" stroke="#FF2E63" stroke-width="0.666667" stroke-miterlimit="10"/>
<path d="M281.47 131.718C274.333 78.1304 222.431 21.5986 165.543 5.45465" stroke="#FF2E63" stroke-width="0.666667" stroke-miterlimit="10"/>
<path d="M214.869 63.8573C267.511 48.6986 277.395 71.3267 236.902 114.299" stroke="#FF2E63" stroke-width="0.666667" stroke-miterlimit="10"/>
<path d="M214.869 63.8573C240.947 19.7653 229.219 18.8546 188.726 61.8253" stroke="#FF2E63" stroke-width="0.666667" stroke-miterlimit="10"/>
<path d="M214.869 63.8573C206.614 1.87998 166.953 -13.5827 126.459 29.388C60.5634 10.6867 13.8448 45.8493 22.1128 107.925C62.6061 64.956 149.078 45.1866 214.869 63.8573Z" stroke="#FF2E63" stroke-width="0.666667" stroke-miterlimit="10"/>
<path d="M165.543 5.45464C108.655 -10.692 68.326 19.664 75.4633 73.2533" stroke="#FF2E63" stroke-width="0.666667" stroke-miterlimit="10"/>
<path d="M214.869 63.8573C174.535 0.917305 108.775 -15.328 68.282 27.6426" stroke="#FF2E63" stroke-width="0.666667" stroke-miterlimit="10"/>
<path d="M214.869 63.8573C153.894 16.4546 71.3407 12.848 30.8474 55.8186" stroke="#FF2E63" stroke-width="0.666667" stroke-miterlimit="10"/>
<path d="M22.1127 107.925C-18.3807 150.897 2.20205 201.048 67.9927 219.72C76.2474 281.697 115.907 297.16 156.401 254.191C90.5034 235.488 30.3807 170.003 22.1127 107.925V107.925Z" stroke="#FF2E63" stroke-width="0.666667" stroke-miterlimit="10"/>
<path d="M1.38989 151.857C8.52723 205.448 60.4299 261.979 117.318 278.124" stroke="#FF2E63" stroke-width="0.666667" stroke-miterlimit="10"/>
<path d="M17.8594 191.987C22.0287 223.294 52.3501 256.318 85.5834 265.751" stroke="#FF2E63" stroke-width="0.666667" stroke-miterlimit="10"/>
<path d="M45.9593 169.28C5.46599 212.251 15.35 234.879 67.9927 219.72" stroke="#FF2E63" stroke-width="0.666667" stroke-miterlimit="10"/>
<path d="M156.401 254.191C115.907 297.16 76.2473 281.697 67.9927 219.72C133.783 238.392 220.255 218.623 260.749 175.652C269.015 237.729 222.298 272.892 156.401 254.191Z" stroke="#FF2E63" stroke-width="0.666667" stroke-miterlimit="10"/>
<path d="M260.749 175.652C220.255 218.623 133.783 238.392 67.9927 219.72C59.7381 157.744 85.9674 72.3585 126.459 29.388C192.357 48.0893 252.481 113.575 260.749 175.652V175.652Z" stroke="#FF2E63" stroke-width="0.666667" stroke-miterlimit="10"/>
<path d="M207.398 210.324C200.261 156.736 148.358 100.204 91.47 84.0586" stroke="#FF2E63" stroke-width="0.666667" stroke-miterlimit="10"/>
<path d="M138.209 226.142C134.038 194.836 103.717 161.811 70.4834 152.379" stroke="#FF2E63" stroke-width="0.666667" stroke-miterlimit="10"/>
<path d="M236.902 114.299C196.409 157.268 120.634 204.563 67.9927 219.72" stroke="#FF2E63" stroke-width="0.666667" stroke-miterlimit="10"/>
<path d="M188.726 61.8253C148.233 104.797 94.07 175.629 67.9927 219.72" stroke="#FF2E63" stroke-width="0.666667" stroke-miterlimit="10"/>
<path d="M126.459 29.388C85.9674 72.3585 59.738 157.744 67.9927 219.72C2.20205 201.048 -18.3807 150.897 22.1127 107.925C13.8447 45.8493 60.5634 10.6867 126.459 29.388Z" stroke="#FF2E63" stroke-width="0.666667" stroke-miterlimit="10"/>
<path d="M91.47 84.0585C34.5834 67.9132 -5.74727 98.2694 1.39006 151.857" stroke="#FF2E63" stroke-width="0.666667" stroke-miterlimit="10"/>
<path d="M70.4833 152.379C37.2499 142.947 13.6886 160.68 17.8593 191.987" stroke="#FF2E63" stroke-width="0.666667" stroke-miterlimit="10"/>
<path d="M68.282 27.6426C27.7887 70.6132 27.6593 156.781 67.9927 219.72" stroke="#FF2E63" stroke-width="0.666667" stroke-miterlimit="10"/>
<path d="M30.8475 55.8186C-9.64587 98.7893 7.01813 172.317 67.9928 219.72" stroke="#FF2E63" stroke-width="0.666667" stroke-miterlimit="10"/>
<path d="M207.814 210.756C200.631 156.829 148.402 99.9412 91.1553 83.6944" stroke="#FF2E63" stroke-width="0.666667" stroke-miterlimit="10"/>
<path d="M67.53 220.212C93.7714 175.844 148.277 104.563 189.023 61.3214" stroke="#FF2E63" stroke-width="0.666667" stroke-miterlimit="10"/>
<path d="M75.0474 72.821C82.23 126.748 134.459 183.636 191.705 199.882" stroke="#FF2E63" stroke-width="0.666667" stroke-miterlimit="10"/>
<path d="M93.8367 222.256C134.585 179.016 189.089 107.735 215.331 63.3653" stroke="#FF2E63" stroke-width="0.666667" stroke-miterlimit="10"/>
<path d="M189.023 61.3212C229.771 18.0799 241.573 18.9972 215.331 63.3652" stroke="#FF2E63" stroke-width="0.666667" stroke-miterlimit="10"/>
<path d="M205.814 205.756C198.631 151.829 146.402 94.9412 89.1553 78.6944" stroke="#FF2E63" stroke-width="0.666667" stroke-miterlimit="10"/>
<path d="M67.53 220.212C93.7714 175.844 148.277 104.563 189.023 61.3214" stroke="#FF2E63" stroke-width="0.666667" stroke-miterlimit="10"/>
<path d="M93.8367 222.256C134.585 179.016 189.089 107.735 215.331 63.3653" stroke="#FF2E63" stroke-width="0.666667" stroke-miterlimit="10"/>
<path d="M189.023 61.3212C229.771 18.0799 241.573 18.9972 215.331 63.3652" stroke="#FF2E63" stroke-width="0.666667" stroke-miterlimit="10"/>
</svg>
