<svg width="110" height="110" viewBox="0 0 110 110" fill="none" xmlns="http://www.w3.org/2000/svg">
<path d="M26.6667 8.33333C24 11 23.3334 13.8333 23.3334 23.3333C23.3334 32.5 23.8334 35 25.8334 35C27.6667 35 28.3334 32.1667 28.6667 22.8333L29.1667 10.8333H55H80.8334L81.3334 17C82 25.3333 85 25.1667 85 17C85 6 82.5 5 54.5 5C32.1667 5 29.6667 5.33333 26.6667 8.33333Z" fill="#85A7A8" fill-opacity="0.1"/>
<path d="M48.3334 13.3333C48.3334 14.1667 51 15 54.1667 15C57.3334 15 60 14.1667 60 13.3333C60 12.3333 57.3334 11.6667 54.1667 11.6667C51 11.6667 48.3334 12.3333 48.3334 13.3333Z" fill="#85A7A8" fill-opacity="0.1"/>
<path d="M31.6666 26.8333C31.6666 36.8333 35.5 37.6666 36.3333 27.6666L36.8333 21.3333L56.8333 21.9999C71.8333 22.3333 76.6666 21.9999 76.6666 20.3333C76.6666 18.8333 71 18.3333 54.1666 18.3333H31.6666V26.8333Z" fill="#85A7A8" fill-opacity="0.1"/>
<path d="M63.6666 28.6667C60.8333 31.5 60.8333 78.5 63.6666 81.3334C66.3333 84 100.333 84 103 81.3334C105.833 78.5 105.833 31.5 103 28.6667C100.333 26 66.3333 26 63.6666 28.6667ZM100 55V78.3334H83.3333H66.6666V55V31.6667H83.3333H100V55Z" fill="#85A7A8" fill-opacity="0.1"/>
<path d="M79.1667 37.6667C76 41.0001 76.5 44.8334 80.5 47.3334C83.8334 49.5001 88.8333 47.0001 89.6667 43.0001C90.1667 40.3334 85.8334 35 83.3334 35C82.5 35 80.6667 36.1667 79.1667 37.6667ZM85 41.6667C85 42.5001 84.3334 43.3334 83.3334 43.3334C82.5 43.3334 81.6667 42.5001 81.6667 41.6667C81.6667 40.6667 82.5 40.0001 83.3334 40.0001C84.3334 40.0001 85 40.6667 85 41.6667Z" fill="#85A7A8" fill-opacity="0.1"/>
<path d="M78.3334 51.1666C70.3334 54.3333 67.5 61.8333 73.1667 65C77.6667 67.3333 92.1667 67.1666 94.6667 64.6666C101.167 58.1666 88.1667 47.3333 78.3334 51.1666ZM90.8334 58.3333C93.8334 61.6666 93.6667 61.6666 83.3334 61.6666C73 61.6666 72.8334 61.6666 75.8334 58.3333C77.5 56.5 80.8334 55 83.3334 55C85.8334 55 89.1667 56.5 90.8334 58.3333Z" fill="#85A7A8" fill-opacity="0.1"/>
<path d="M71.6666 72.5C71.6666 74.5 74 75 83.3333 75C92.6666 75 95 74.5 95 72.5C95 70.5 92.6666 70 83.3333 70C74 70 71.6666 70.5 71.6666 72.5Z" fill="#85A7A8" fill-opacity="0.1"/>
<path d="M7 42C4.33333 44.6667 4.33333 65.3333 7 68C9.66667 70.6667 43.6667 70.6667 46.3333 68C47.5 66.8333 48.3333 61.3333 48.3333 55C48.3333 48.6667 47.5 43.1667 46.3333 42C43.6667 39.3333 9.66667 39.3333 7 42ZM43.3333 55V66.6667H26.6667H10V55V43.3333H26.6667H43.3333V55Z" fill="#85A7A8" fill-opacity="0.1"/>
<path d="M14.1667 50C13.5 51 18 51.6666 26.6667 51.6666C35.3334 51.6666 39.8334 51 39.1667 50C37.8334 47.8333 15.5 47.8333 14.1667 50Z" fill="#85A7A8" fill-opacity="0.1"/>
<path d="M14.1667 60C15.5 62.1667 37.8334 62.1667 39.1667 60C39.8334 59 35.3334 58.3333 26.6667 58.3333C18 58.3333 13.5 59 14.1667 60Z" fill="#85A7A8" fill-opacity="0.1"/>
<path d="M23.3334 86.6667C23.3334 104.5 24.1667 105 54.6667 105C82.8334 105 85 104.167 85 92.8333C85 84.8333 82 84.8333 81.3334 92.8333L80.8334 99.1667H55H29.1667L28.6667 87C28.3334 77.8333 27.6667 75 25.8334 75C23.8334 75 23.3334 77.5 23.3334 86.6667Z" fill="#85A7A8" fill-opacity="0.1"/>
<path d="M31.6666 83.1666V91.6666H54.1666C71 91.6666 76.6666 91.1666 76.6666 89.5C76.6666 88 71.8333 87.6666 56.8333 88L36.8333 88.6666L36.3333 82.3333C35.5 72.3333 31.6666 73.1666 31.6666 83.1666Z" fill="#85A7A8" fill-opacity="0.1"/>
<path d="M50 96.6667C50 97.5 51.8333 98.3334 54 98.3334C56.3333 98.3334 58.6667 97.5 59.1667 96.6667C59.8333 95.6667 58 95 55.1667 95C52.3333 95 50 95.6667 50 96.6667Z" fill="#85A7A8" fill-opacity="0.1"/>
</svg>
