<svg width="110" height="110" viewBox="0 0 110 110" fill="none" xmlns="http://www.w3.org/2000/svg">
<g clip-path="url(#clip0_80_2)">
<path d="M48.9844 3.4375C46.4062 6.1875 43.6562 6.875 34.0312 6.875C27.3281 6.875 22.3437 7.5625 22.3437 8.59375C22.3437 9.625 26.8125 10.3125 32.1406 10.3125H42.1094L28.875 23.5469C17.3594 35.2344 10.4844 45.375 12.5469 47.6094C14.7812 49.8438 25.0937 42.625 38.3281 29.5625L53.2812 14.6094V43.4844V72.1875H31.7969H10.3125V44.6875V17.1875H21.4844C27.8437 17.1875 32.6562 16.5 32.6562 15.4688C32.6562 14.4375 27.1562 13.75 19.7656 13.75H6.875V44.6875V75.625H55H103.125V44.6875V13.75H78.7187C62.0469 13.75 54.8281 13.2344 56.0312 12.0312C57.2344 10.8281 67.0312 10.3125 81.8125 10.6562L105.703 11.1719L106.219 45.0312L106.562 79.0625H55H3.4375L3.78125 45.2031C4.29687 11.3438 4.29687 11.1719 8.25 10.6562C12.8906 9.96875 13.4062 6.875 8.76562 6.875C0.515625 6.875 0 9.625 0 51.5625C0 84.9062 0.34375 91.2656 2.75 93.5C4.8125 95.5625 9.10937 96.25 20.1094 96.25C34.375 96.25 34.7187 96.4219 32.1406 99.3438C30.4219 101.062 29.2187 104.156 29.2187 106.219C29.2187 110 29.7344 110 53.2812 110C76.8281 110 77.3437 110 77.3437 106.219C77.3437 104.156 76.1406 101.062 74.4219 99.3438C71.8437 96.4219 72.3594 96.25 88.1719 96.25C100.891 96.25 105.187 95.5625 107.25 93.5C111.375 89.5469 111.375 13.5781 107.25 9.625C105.187 7.39062 100.375 6.875 82.6719 6.875C62.9062 6.875 60.3281 6.53125 57.5781 3.4375C55.8594 1.54688 53.9687 0 53.2812 0C52.5937 0 50.7031 1.54688 48.9844 3.4375ZM55 6.53125C55 8.9375 22.5156 40.2188 21.1406 39.0156C19.9375 37.6406 51.2187 5.15625 53.625 5.15625C54.4844 5.15625 55 5.67188 55 6.53125ZM99.6875 23.5469V29.9062L94.5312 24.9219L89.375 19.9375L85.0781 24.0625L80.7812 28.0156L76.4844 24.0625L72.1875 19.9375L64.4531 27.5L56.7187 35.0625V26.125V17.1875H78.2031H99.6875V23.5469ZM78.2031 30.9375C83.875 36.7812 86.625 37.6406 85.0781 32.8281C84.5625 31.1094 85.25 28.7031 86.7969 27.5C89.0312 25.6094 90.2344 25.9531 94.5312 30.0781C97.4531 32.8281 99.6875 36.7812 99.6875 39.0156C99.6875 42.9688 99.5156 42.9688 78.2031 42.9688C66.3437 42.9688 56.7187 42.4531 56.7187 41.7656C56.7187 40.2188 70.8125 25.7812 72.1875 25.7812C72.875 25.7812 75.4531 28.0156 78.2031 30.9375ZM99.6875 59.2969V72.1875H78.2031H56.7187V59.2969V46.4062H78.2031H99.6875V59.2969ZM106.219 87.1406L105.703 91.9531H55H4.29687L3.78125 87.1406L3.26562 82.5H55H106.734L106.219 87.1406ZM69.6094 97.9688C70.2969 99 64.4531 99.6875 53.2812 99.6875C42.1094 99.6875 36.2656 99 36.9531 97.9688C38.3281 95.7344 68.2344 95.7344 69.6094 97.9688ZM73.9062 104.844C73.9062 105.875 65.8281 106.562 53.2812 106.562C40.7344 106.562 32.6562 105.875 32.6562 104.844C32.6562 103.812 40.7344 103.125 53.2812 103.125C65.8281 103.125 73.9062 103.812 73.9062 104.844Z" fill="#85A7A8" fill-opacity="0.1"/>
<path d="M60.1562 59.2969V68.75H78.2031H96.25V59.2969V49.8438H78.2031H60.1562V59.2969ZM81.9844 55.1719C79.9219 56.375 77.3438 56.375 74.25 55.1719C69.9531 53.625 70.125 53.625 77.3438 53.4531C83.5312 53.4531 84.3906 53.7969 81.9844 55.1719ZM69.6094 57.0625L74.0781 59.125L70.125 61.3594C64.4531 64.4531 63.5938 64.1094 63.5938 59.2969C63.5938 54.3125 63.5938 54.3125 69.6094 57.0625ZM92.8125 59.2969C92.8125 64.2812 92.8125 64.2812 86.7969 61.5312L82.3281 59.4688L86.2812 57.2344C91.9531 54.1406 92.8125 54.4844 92.8125 59.2969ZM82.5 63.5938C84.3906 64.7969 83.0156 65.3125 77.3438 65.1406C71.5 65.1406 70.4688 64.7969 73.0469 63.5938C77.6875 61.5312 79.4062 61.5312 82.5 63.5938Z" fill="#85A7A8" fill-opacity="0.1"/>
<path d="M6.875 87.6562C6.875 88.5156 7.73438 89.375 8.59375 89.375C9.625 89.375 10.3125 88.5156 10.3125 87.6562C10.3125 86.625 9.625 85.9375 8.59375 85.9375C7.73438 85.9375 6.875 86.625 6.875 87.6562Z" fill="#85A7A8" fill-opacity="0.1"/>
<path d="M13.75 87.6562C13.75 88.5156 16.1562 89.375 18.9062 89.375C21.8281 89.375 24.0625 88.5156 24.0625 87.6562C24.0625 86.625 21.8281 85.9375 18.9062 85.9375C16.1562 85.9375 13.75 86.625 13.75 87.6562Z" fill="#85A7A8" fill-opacity="0.1"/>
<path d="M15.4688 8.59375C15.4688 9.45312 16.3281 10.3125 17.1875 10.3125C18.2188 10.3125 18.9062 9.45312 18.9062 8.59375C18.9062 7.5625 18.2188 6.875 17.1875 6.875C16.3281 6.875 15.4688 7.5625 15.4688 8.59375Z" fill="#85A7A8" fill-opacity="0.1"/>
<path d="M13.75 53.2812C13.75 54.1406 14.6094 55 15.4688 55C16.5 55 17.1875 54.1406 17.1875 53.2812C17.1875 52.25 16.5 51.5625 15.4688 51.5625C14.6094 51.5625 13.75 52.25 13.75 53.2812Z" fill="#85A7A8" fill-opacity="0.1"/>
<path d="M20.625 53.2812C20.625 54.3125 26.6406 55 35.2344 55C43.8281 55 49.8438 54.3125 49.8438 53.2812C49.8438 52.25 43.8281 51.5625 35.2344 51.5625C26.6406 51.5625 20.625 52.25 20.625 53.2812Z" fill="#85A7A8" fill-opacity="0.1"/>
<path d="M13.75 60.1562C13.75 61.1875 20.9688 61.875 31.7969 61.875C42.625 61.875 49.8438 61.1875 49.8438 60.1562C49.8438 59.125 42.625 58.4375 31.7969 58.4375C20.9688 58.4375 13.75 59.125 13.75 60.1562Z" fill="#85A7A8" fill-opacity="0.1"/>
<path d="M13.75 67.0312C13.75 68.0625 20.9688 68.75 31.7969 68.75C42.625 68.75 49.8438 68.0625 49.8438 67.0312C49.8438 66 42.625 65.3125 31.7969 65.3125C20.9688 65.3125 13.75 66 13.75 67.0312Z" fill="#85A7A8" fill-opacity="0.1"/>
</g>
<defs>
<clipPath id="clip0_80_2">
<rect width="110" height="110" fill="white"/>
</clipPath>
</defs>
</svg>
