<svg width="578" height="485" viewBox="0 0 578 485" fill="none" xmlns="http://www.w3.org/2000/svg">
<g opacity="0.13">
<path opacity="0.13" d="M453.151 325.18L431.267 264.015L447.392 319.605L453.151 325.18Z" fill="#070707"/>
</g>
<g opacity="0.13">
<path opacity="0.13" d="M448.05 320.243L510.412 340.79L453.974 325.818L448.05 320.243Z" fill="#070707"/>
</g>
<path d="M376.968 307.818L465.821 393.673L517.981 343.02L449.367 323.588L429.128 257.166L376.968 307.818Z" fill="#F4F4F4"/>
<g opacity="0.13">
<path opacity="0.13" d="M468.454 391.124L454.961 325.18L465.821 393.673L468.454 391.124Z" fill="#070707"/>
</g>
<g opacity="0.13">
<path opacity="0.13" d="M379.6 305.27L447.721 318.172L376.968 307.818L379.6 305.27Z" fill="#070707"/>
</g>
<path d="M453.974 319.128L465.821 393.673L376.968 307.818L453.974 319.128Z" fill="#E5E5E5"/>
<g opacity="0.13">
<path opacity="0.13" d="M444.759 334.897L518.146 343.18L428.963 257.325L437.849 328.207C438.507 331.552 441.304 334.26 444.759 334.897Z" fill="#070707"/>
</g>
<path d="M447.063 332.507L518.146 342.861L429.292 257.166L440.317 325.818C440.646 329.322 443.443 332.03 447.063 332.507Z" fill="#CECECE"/>
<path d="M100.536 253.025C128.889 253.025 151.873 230.775 151.873 203.328C151.873 175.881 128.889 153.631 100.536 153.631C72.1829 153.631 49.1984 175.881 49.1984 203.328C49.1984 230.775 72.1829 253.025 100.536 253.025Z" fill="#3F434F"/>
<path d="M100.536 153.79V253.184C72.0698 253.184 49.1984 230.884 49.1984 203.487C49.1984 175.931 72.2344 153.79 100.536 153.79Z" fill="#292B37"/>
<path d="M141.342 203.328C141.342 205.08 141.178 206.832 141.013 208.584C138.381 227.858 121.268 242.671 100.7 242.671C78.1578 242.671 60.0581 224.991 60.0581 203.328C60.0581 197.753 61.2099 192.337 63.5135 187.559C69.7661 173.701 84.0814 163.985 100.865 163.985C123.078 163.985 141.342 181.665 141.342 203.328Z" fill="white"/>
<path d="M104.978 203.328L127.192 182.621L101.523 199.346L104.978 203.328Z" fill="#DD7352"/>
<path d="M95.9285 204.284L82.1069 193.134L98.8903 199.824L95.9285 204.284Z" fill="#DD7352"/>
<path d="M102.592 205.931L102.132 206.386L122.247 225.431L122.707 224.976L102.592 205.931Z" fill="#252525"/>
<path d="M101.688 163.985H100.042V167.967H101.688V163.985Z" fill="#262E3C"/>
<path d="M120.958 169.165L120.246 168.766L118.845 171.11L119.557 171.509L120.958 169.165Z" fill="#262E3C"/>
<path d="M135.889 183.728L135.479 183.038L133.054 184.388L133.464 185.078L135.889 183.728Z" fill="#262E3C"/>
<path d="M135.858 223.161L136.272 222.473L133.854 221.111L133.44 221.799L135.858 223.161Z" fill="#262E3C"/>
<path d="M120.923 237.502L121.637 237.107L120.249 234.756L119.535 235.151L120.923 237.502Z" fill="#262E3C"/>
<path d="M80.0926 237.484L80.8025 237.886L82.2159 235.55L81.506 235.147L80.0926 237.484Z" fill="#262E3C"/>
<path d="M65.2186 222.905L65.6251 223.598L68.0571 222.26L67.6506 221.567L65.2186 222.905Z" fill="#262E3C"/>
<path d="M65.3318 183.483L64.9143 184.169L67.3244 185.544L67.7419 184.857L65.3318 183.483Z" fill="#262E3C"/>
<path d="M80.479 169.044L79.7627 169.436L81.1384 171.794L81.8547 171.402L80.479 169.044Z" fill="#262E3C"/>
<path d="M101.688 238.848H100.042V242.83H101.688V238.848Z" fill="#262E3C"/>
<path d="M141.281 204.175V202.582H137.168V204.175H141.281Z" fill="#262E3C"/>
<path d="M64.0021 204.121V202.528H59.8885V204.121H64.0021Z" fill="#262E3C"/>
<path d="M105.307 203.328C105.307 205.876 103.168 207.788 100.7 207.788C98.0675 207.788 96.093 205.717 96.093 203.328C96.093 200.779 98.2321 198.868 100.7 198.868C103.168 198.868 105.307 200.939 105.307 203.328Z" fill="#262E3C"/>
<path d="M103.827 203.328C103.827 205.08 102.346 206.354 100.7 206.354C99.055 206.354 97.5741 204.921 97.5741 203.328C97.5741 201.576 99.055 200.301 100.7 200.301C102.346 200.301 103.827 201.735 103.827 203.328Z" fill="white"/>
<path opacity="0.18" d="M100.7 242.83C98.8903 242.83 97.0804 242.671 95.2704 242.512C151.709 216.548 116.99 167.329 116.99 167.329C131.305 173.382 141.342 187.24 141.342 203.487C141.342 225.309 123.078 242.83 100.7 242.83Z" fill="black"/>
<path d="M473.225 459.776V442.573L469.276 444.007C468.947 443.21 468.618 442.414 468.289 441.617L439.659 379.496C432.583 364.205 415.306 351.94 400.662 351.94H121.762C107.282 351.94 90.005 364.205 82.7651 379.496L54.2992 441.299C53.1474 443.847 52.1601 446.555 51.3374 449.104L49.3629 444.166V462.324C49.3629 476.182 56.7674 484.306 70.4244 484.306H451.999C466.479 484.306 473.884 472.996 473.225 459.776Z" fill="#292B37"/>
<path d="M452.164 465.032H70.5889C50.6792 465.032 43.7684 444.803 54.2991 422.344L82.9296 360.86C90.005 345.569 107.282 333.941 121.926 333.941H400.991C415.471 333.941 432.748 345.569 439.988 360.86L468.618 422.344C478.984 444.803 472.074 465.032 452.164 465.032Z" fill="#3F434F"/>
<path d="M391.941 347.002H143.811L110.244 454.997H425.673L391.941 347.002Z" fill="white"/>
<path d="M108.927 380.134L105.637 379.019C104.649 378.7 103.497 379.178 103.168 380.134L90.6632 416.291C90.3341 417.247 90.8277 418.362 91.815 418.68L95.1058 419.795C96.0931 420.114 97.2449 419.636 97.574 418.68L110.079 382.523C110.408 381.567 109.915 380.452 108.927 380.134Z" fill="white"/>
<path d="M190.212 231.521C200.413 233.911 230.525 243.149 261.459 271.98C262.446 272.935 264.091 272.776 264.914 271.661L284.824 244.901C285.811 243.627 285.153 241.875 283.508 241.397C273.47 238.689 242.865 228.336 217.361 197.594C216.374 196.479 214.564 196.479 213.741 197.594L188.731 227.858C187.908 229.132 188.566 231.043 190.212 231.521Z" fill="#292B37"/>
<path d="M243.688 24.1329C238.423 53.2819 220.488 83.7053 193.832 108.554C183.959 117.792 174.909 125.279 169.15 129.898L200.907 166.692L232.335 203.169C238.094 198.549 247.308 191.382 258.661 183.577C288.773 162.71 322.833 151.242 353.274 151.401C358.704 151.401 363.475 152.357 370.057 152.357L308.024 80.3603L245.827 8.04517C245.333 13.4608 244.511 19.0358 243.688 24.1329Z" fill="white"/>
<path d="M307.695 80.3604L369.893 152.516C363.475 152.516 358.539 151.561 353.109 151.561C322.504 151.242 288.444 162.87 258.332 183.736C247.144 191.541 237.929 198.709 232.17 203.328L200.578 166.693L307.695 80.3604Z" fill="#DCE7F4"/>
<path d="M254.191 3.2597e-06L244.58 7.7464L370.087 153.659L379.698 145.913L254.191 3.2597e-06Z" fill="#EC610E"/>
<path d="M316.857 73.0254L307.247 80.7718L370 153.728L379.61 145.982L316.857 73.0254Z" fill="#DD5120"/>
<path d="M233.322 203.009L204.033 226.583C182.972 243.467 151.544 240.76 133.938 220.371C116.496 199.983 119.294 169.56 140.355 152.516L169.644 128.942L233.322 203.009Z" fill="#EC610E"/>
<path d="M201.565 165.896L233.322 202.691L203.869 226.424C182.972 243.308 151.215 239.804 134.267 220.212L201.565 165.896Z" fill="#DD5120"/>
<path d="M291.405 210.018C291.405 210.337 291.405 210.496 291.241 210.814V210.974C291.076 211.611 290.912 212.407 290.583 213.044C290.583 213.044 290.583 213.044 290.583 213.204C290.254 214.319 291.57 215.752 292.886 215.752C295.19 215.752 297.494 216.708 299.468 217.982C303.253 220.531 304.898 223.876 305.227 227.698C305.227 228.654 305.227 229.61 305.062 230.566C305.062 230.725 305.062 230.725 305.062 230.884C305.062 231.362 304.898 231.84 304.733 232.318C304.733 232.318 304.733 232.318 304.733 232.477C304.404 233.911 305.721 235.503 307.366 235.663H307.531C311.48 235.663 314.935 237.733 317.074 241.397C318.72 244.423 319.542 247.609 319.049 250.635C319.049 251.113 318.884 251.432 318.72 251.75C318.391 252.706 318.39 253.343 319.378 254.14C320.036 254.777 320.694 255.095 321.517 255.095C323.656 255.095 325.795 255.573 327.769 257.007C329.25 258.122 330.402 259.396 331.06 260.989C332.212 263.378 332.706 265.767 332.87 268.157C332.87 269.272 332.377 271.661 331.883 273.413C331.554 274.369 330.238 276.758 329.908 277.554C328.592 279.944 327.276 282.174 325.795 284.244C321.023 291.412 315.922 297.465 310.986 302.562C303.253 310.367 294.203 317.216 284.33 322.473C282.356 323.428 280.546 323.906 278.407 324.543C275.609 325.34 276.267 326.933 276.267 329.481C276.267 333.304 276.268 350.188 276.597 350.188C276.926 352.896 278.9 355.604 276.926 357.515C274.951 359.427 271.825 359.267 269.028 359.108C250.763 357.356 211.602 354.648 211.602 354.648C211.602 354.648 214.893 308.296 208.311 295.554C206.83 292.686 204.198 290.297 202.717 287.271C200.907 283.448 200.907 278.988 200.907 274.687C200.907 267.997 200.907 261.467 200.907 254.777C200.907 250.954 200.907 246.972 202.059 243.308C203.21 239.645 205.514 236.141 209.134 234.388C212.754 232.636 217.526 233.273 219.994 236.459C221.475 238.53 221.475 241.078 222.462 243.308C223.12 244.742 224.272 245.857 225.753 246.494C227.398 246.972 229.208 246.653 230.525 245.698C232.17 244.423 232.993 242.671 233.651 240.76C234.145 239.167 234.967 237.574 235.954 236.141C237.929 233.273 240.726 231.203 243.523 228.973C246.321 226.902 249.118 224.831 251.586 222.283C259.978 213.522 270.179 203.647 271.66 202.213C272.812 200.939 273.964 199.664 275.28 198.549C277.419 196.638 281.039 195.842 285.153 198.231C289.266 200.62 291.899 205.399 291.405 210.018Z" fill="white"/>
<path d="M282.685 370.417H202.059V413.265H282.685V370.417Z" fill="#292B37"/>
<path d="M243.688 371.214H202.059V413.265H243.688V371.214Z" fill="#292B37"/>
<path d="M285.153 337.923C288.937 337.923 291.899 340.631 291.899 343.976V365.957C291.899 369.302 288.937 372.01 285.153 372.01H202.223C198.439 372.01 195.477 369.302 195.477 365.957V343.976C195.477 340.631 198.439 337.923 202.223 337.923H285.153Z" fill="#2B3A47"/>
<path d="M108.598 247.768C120.939 245.06 133.28 252.547 136.077 264.493C138.874 276.439 131.141 288.386 118.8 291.094C108.105 293.483 97.5739 288.226 92.9667 279.147L83.7523 276.599L90.8277 269.431C90.8277 259.237 98.0675 250.157 108.598 247.768Z" fill="#292B37"/>
<path d="M114.686 282.492C114.686 282.492 128.179 271.024 127.85 265.608C127.521 260.67 123.407 259.555 123.407 259.555C118.142 258.122 114.686 262.263 114.686 262.263C114.686 262.263 111.066 258.122 105.801 259.555C105.801 259.555 101.687 260.67 101.358 265.608C101.029 271.024 114.686 282.492 114.686 282.492Z" fill="white"/>
<path d="M571.293 248.246C556.32 220.212 520.614 209.221 491.49 223.716C462.53 238.211 451.177 272.776 466.15 300.969C481.124 329.003 516.829 339.994 545.954 325.499C575.078 310.845 586.431 276.439 571.293 248.246Z" fill="#292B37"/>
<path d="M561.585 278.988C561.42 278.829 561.256 278.51 561.091 278.351C561.091 278.191 560.927 278.351 560.762 278.51C560.598 278.669 560.598 279.306 560.598 279.306C560.598 279.466 560.598 279.466 560.598 279.625C560.598 279.784 560.598 279.944 560.598 280.422C560.598 280.422 560.598 280.74 560.598 280.899C560.598 281.059 560.762 281.059 560.927 281.218C561.091 281.377 561.091 281.696 561.091 281.855C561.256 282.014 561.42 281.855 561.749 281.855C562.078 281.855 561.749 281.537 561.914 281.218C561.914 280.899 562.078 280.581 561.914 280.581C561.914 280.422 561.914 280.422 561.914 280.262C561.914 280.103 561.914 279.944 561.914 279.625C561.749 279.306 561.749 279.147 561.749 278.988C561.914 278.988 561.749 278.988 561.585 278.988Z" fill="white"/>
<path d="M574.09 280.74C573.926 280.421 573.926 281.059 573.761 281.218C573.597 281.377 573.597 281.059 573.597 280.899C573.432 280.74 573.267 280.262 573.103 280.262C572.938 280.103 572.938 279.944 572.774 279.784C572.609 279.625 572.609 279.625 572.609 279.306C572.609 278.988 572.609 278.829 572.28 278.669C571.951 278.51 571.951 278.829 571.951 278.988C571.951 279.147 571.622 279.147 571.457 279.147C571.293 279.147 571.293 278.829 571.128 278.669C570.964 278.51 570.964 278.829 570.964 278.988C570.964 279.147 571.128 279.306 571.128 279.625C571.128 279.784 571.128 280.103 571.128 280.262C571.128 280.421 571.293 280.581 571.622 280.581C571.622 280.581 571.787 280.581 571.787 280.74C571.787 280.899 571.951 281.059 571.951 281.377C571.951 281.696 571.951 282.014 572.116 282.174C572.28 282.333 572.445 282.492 572.609 282.651C572.774 282.811 572.774 282.97 572.774 283.289C572.774 283.607 572.938 283.448 573.103 283.448C573.267 283.448 573.432 283.448 573.597 283.448C573.597 283.607 573.597 284.085 573.597 284.244C573.597 284.404 573.761 285.2 573.761 285.359C573.761 285.519 574.09 285.997 574.255 286.315C574.584 286.634 574.255 286.634 574.419 287.112C574.584 287.589 574.748 287.112 574.913 286.952C575.077 286.793 575.077 286.474 575.242 286.156C575.242 285.997 575.242 285.519 575.242 285.359C575.406 285.041 575.406 285.041 575.571 284.722C575.736 284.404 575.571 283.926 575.406 283.448C575.242 282.97 575.242 283.289 575.077 283.129C574.913 282.97 574.913 282.333 574.913 282.174C574.913 282.014 574.748 281.696 574.584 281.696C574.419 281.377 574.255 281.059 574.09 280.74Z" fill="white"/>
<path d="M571.622 282.174C571.622 282.174 571.622 281.696 571.622 281.377C571.622 281.059 571.458 281.537 571.293 281.537C571.128 281.696 571.458 282.014 571.622 282.174C571.458 282.174 571.622 282.174 571.622 282.174Z" fill="white"/>
<path d="M572.28 283.129C572.445 283.129 572.445 282.811 572.28 282.651C572.116 282.333 572.116 282.333 571.787 282.492C571.622 282.492 571.787 282.811 571.951 283.129C572.116 282.97 572.116 283.129 572.28 283.129Z" fill="white"/>
<path d="M573.103 283.926C573.103 283.607 572.938 283.767 572.774 283.767C572.609 283.767 572.774 283.926 572.774 284.404C572.774 284.404 572.774 284.563 572.939 284.563C573.103 284.404 573.103 284.244 573.103 283.926Z" fill="white"/>
<path d="M518.804 221.646C518.968 221.486 518.475 221.486 518.31 221.646C518.146 221.646 517.981 221.964 518.31 222.124C518.146 222.124 518.475 221.964 518.804 221.646Z" fill="white"/>
<path d="M517.323 221.805C517.487 221.646 517.158 221.646 516.829 221.646C516.5 221.646 516.665 221.805 516.994 221.964C516.994 221.964 517.158 221.964 517.323 221.805Z" fill="white"/>
<path d="M518.804 221.327C518.968 221.168 518.146 221.327 518.146 221.486L518.31 221.646C518.146 221.486 518.639 221.486 518.804 221.327Z" fill="white"/>
<path d="M526.208 221.008C526.537 221.008 525.879 220.849 525.715 220.849C525.55 220.849 525.386 220.69 525.221 220.531C525.221 220.531 525.056 220.371 524.892 220.69C524.727 220.849 525.056 221.008 525.221 221.168C525.386 221.168 525.879 221.008 526.208 221.008Z" fill="white"/>
<path d="M526.044 221.168C525.879 221.168 525.715 221.327 525.879 221.486C525.879 221.486 526.373 221.486 526.537 221.646C526.702 221.805 526.702 221.486 527.031 221.327C527.36 221.168 527.525 221.327 527.689 221.168C527.854 221.009 527.031 221.009 526.537 221.168C525.879 221.327 526.208 221.168 526.044 221.168Z" fill="white"/>
<path d="M528.841 221.008C528.841 221.008 529.005 221.168 529.17 221.168C529.335 221.168 529.499 221.168 529.664 221.168C529.828 221.168 529.828 220.849 529.828 220.849C529.828 220.849 529.993 220.531 529.993 220.371C530.157 220.212 529.828 220.212 529.664 220.212C529.499 220.212 529.499 220.531 529.335 220.69C529.17 220.849 529.005 220.69 529.005 220.69C529.005 220.69 528.512 220.531 528.183 220.69C528.183 221.008 528.512 221.008 528.841 221.008Z" fill="white"/>
<path d="M499.059 252.387C498.894 252.387 498.4 252.387 498.071 252.387C497.578 252.387 497.413 252.228 497.084 252.228C496.755 252.228 496.591 252.865 496.92 253.184C497.249 253.502 497.578 253.503 497.907 253.662C498.236 253.821 498.071 253.98 498.236 254.14C498.236 254.14 498.4 254.299 498.565 254.14C498.73 253.98 498.894 253.662 499.059 253.343C499.223 252.865 499.223 252.387 499.059 252.387Z" fill="white"/>
<path d="M493.958 251.591C493.958 251.75 494.122 251.432 494.287 251.273C494.616 251.113 494.122 251.591 494.287 251.91C494.287 251.91 494.451 251.91 494.616 251.91C494.78 251.91 494.78 251.75 494.78 251.432C494.78 251.113 494.945 251.113 495.11 250.954C495.274 250.954 495.274 250.635 495.274 250.317C495.274 249.998 495.439 249.52 495.439 249.361C495.439 249.202 495.11 249.68 494.78 249.839C494.616 249.998 494.122 250.476 493.958 250.795C493.958 251.272 493.958 251.432 493.958 251.591Z" fill="white"/>
<path d="M495.603 249.042C495.603 249.042 495.603 248.883 495.768 248.724C495.768 248.565 496.097 248.246 496.097 247.927C496.097 247.609 495.768 247.927 495.768 248.087C495.603 248.246 495.439 248.246 495.439 248.405C495.11 248.565 495.439 248.724 495.603 249.042C495.439 249.042 495.603 249.202 495.603 249.042Z" fill="white"/>
<path d="M505.64 256.688C505.969 256.847 505.805 256.529 505.969 256.529C505.969 256.529 506.298 256.529 506.628 256.529C507.121 256.529 507.45 256.847 507.779 256.688C508.108 256.529 508.108 256.37 507.944 256.051C507.779 255.733 507.45 255.892 507.121 255.892C506.957 255.892 506.957 255.733 506.628 255.733C506.463 255.733 506.134 255.733 505.969 255.733C505.805 255.733 505.476 255.573 505.311 255.733C505.147 255.733 505.476 256.051 505.147 256.21C505.476 256.529 505.476 256.529 505.64 256.688Z" fill="white"/>
<path d="M507.779 252.387C507.944 252.547 507.944 252.228 508.273 252.387H508.438C508.602 252.387 508.602 252.069 508.602 251.91C508.602 251.75 508.273 251.75 508.109 251.591C507.944 251.591 507.944 251.91 507.944 252.069C507.779 252.228 507.615 252.228 507.779 252.387Z" fill="white"/>
<path d="M507.615 253.502H507.779C507.944 253.502 507.944 253.343 507.944 253.184C507.944 252.865 507.779 252.865 507.45 253.025C507.286 253.025 507.45 253.343 507.615 253.502Z" fill="white"/>
<path d="M505.476 255.095C505.476 254.936 505.64 254.777 505.311 254.777C504.982 254.777 505.147 255.095 505.147 255.255C505.147 255.255 505.476 255.255 505.476 255.095Z" fill="white"/>
<path d="M506.792 254.777C506.957 254.618 506.957 254.618 506.792 254.458C506.628 254.299 506.299 254.458 506.463 254.777C506.628 254.618 506.628 254.777 506.792 254.777Z" fill="white"/>
<path d="M508.273 255.095C508.273 255.095 508.438 255.095 508.438 254.936C508.438 254.777 508.437 254.777 508.108 254.777C507.944 254.618 507.944 254.936 508.273 255.095Z" fill="white"/>
<path d="M509.096 254.618C509.096 254.458 508.931 254.458 508.767 254.458C508.602 254.458 508.602 254.618 508.767 254.777C508.931 254.618 509.096 254.777 509.096 254.618Z" fill="white"/>
<path d="M508.767 255.414C508.767 255.414 508.931 255.414 509.096 255.255C509.26 255.095 509.096 255.095 508.931 255.095C508.767 254.936 508.602 254.936 508.767 255.414Z" fill="white"/>
<path d="M510.083 255.573C510.248 255.255 509.918 255.255 509.754 255.095C509.589 255.095 509.425 255.255 509.425 255.573C509.425 255.573 509.425 255.732 509.589 255.892C509.589 256.051 509.918 255.732 510.083 255.573Z" fill="white"/>
<path d="M509.096 255.573C508.931 255.414 508.767 255.733 508.767 255.892C508.767 255.892 508.931 256.051 509.26 255.892C509.425 255.733 509.26 255.573 509.096 255.573Z" fill="white"/>
<path d="M513.538 256.21C513.209 256.21 513.538 256.529 513.538 256.688C513.538 256.848 513.538 257.007 513.868 257.325C513.868 257.325 514.197 257.325 514.361 257.166C514.526 257.007 514.855 256.688 515.019 256.529C515.184 256.37 515.677 256.37 515.677 256.21C515.677 255.892 516.171 255.733 516.336 255.733C516.5 255.733 516.171 255.573 516.007 255.573C515.678 255.414 515.513 255.733 515.348 255.892C515.184 256.051 515.019 256.051 514.855 255.892C514.69 255.733 514.361 256.051 514.526 256.21C514.197 256.21 513.868 256.21 513.538 256.21Z" fill="white"/>
<path d="M527.196 306.544C527.196 306.544 527.36 306.544 527.525 306.544C527.689 306.544 527.689 306.226 527.525 306.066C527.36 305.907 526.866 306.226 526.702 306.385C526.537 306.385 527.031 306.385 527.196 306.544Z" fill="white"/>
<path d="M529.664 306.863C529.828 307.022 529.993 306.703 530.157 306.385C530.322 306.066 530.157 306.226 529.664 306.066C529.334 306.066 529.334 306.226 529.499 306.544C529.499 306.703 529.334 306.703 529.664 306.863Z" fill="white"/>
<path d="M531.474 305.111C531.638 305.111 531.638 304.792 531.309 304.633C531.144 304.474 530.98 304.792 531.144 305.111C531.309 305.111 531.474 305.111 531.474 305.111Z" fill="white"/>
<path d="M533.448 307.181C533.448 306.703 533.119 306.703 532.79 306.544C532.461 306.385 532.79 305.748 532.625 305.588C532.625 305.429 532.296 305.907 531.967 306.385C531.638 306.863 531.967 307.022 531.803 307.341C531.638 307.659 531.309 307.5 531.309 307.818C531.309 308.137 531.473 308.137 530.815 308.296C530.322 308.456 530.486 308.455 530.157 308.774C529.993 308.933 529.993 308.774 529.828 308.615C529.664 308.456 529.664 308.774 529.334 309.093C529.005 309.411 528.676 309.411 528.347 309.57C528.018 309.73 528.018 309.889 527.689 309.889C527.36 309.889 527.36 310.526 527.195 311.163C527.195 311.163 527.031 311.8 527.031 311.96C527.195 312.278 527.36 312.597 527.195 312.915C527.031 313.234 526.702 313.712 526.702 314.03C526.537 314.349 526.373 315.464 526.373 315.942C526.537 316.42 526.702 316.738 527.031 317.057C527.36 317.375 527.524 317.375 528.018 317.535C528.512 317.535 528.347 317.375 528.676 317.216C528.841 317.057 528.841 317.057 529.334 316.898C529.664 316.738 529.828 316.579 530.157 316.42C530.486 316.26 530.486 315.942 530.651 315.623C530.815 315.305 530.98 314.986 530.98 314.668C531.144 314.508 531.309 314.19 531.309 313.871C531.473 313.553 531.638 313.712 531.638 313.393C531.638 313.234 531.638 312.915 531.803 312.756C531.967 312.597 531.967 312.597 531.967 312.278C531.967 312.119 532.132 311.8 532.296 311.323C532.461 310.845 532.296 310.685 532.296 310.367C532.296 310.048 532.461 310.208 532.625 310.367C532.79 310.526 532.954 310.208 532.954 309.889C533.119 309.57 532.625 309.57 532.461 309.57C532.296 309.57 532.296 309.571 532.461 309.411C532.625 309.252 532.954 308.933 533.119 308.615C533.283 308.296 533.283 308.933 533.448 308.933C533.613 308.933 533.613 308.615 533.448 308.296C533.448 308.456 533.448 307.659 533.448 307.181Z" fill="white"/>
<path d="M488.528 289.501C488.692 289.501 488.528 289.182 488.363 289.023C488.199 289.023 488.199 288.704 488.034 288.545C487.87 288.386 487.705 288.864 487.87 289.182C487.87 289.501 487.87 289.501 488.034 289.819C488.034 289.819 488.034 289.979 488.199 289.819C488.363 289.66 488.199 289.66 488.363 289.501C488.363 289.342 488.363 289.501 488.528 289.501Z" fill="white"/>
<path d="M485.895 291.253C485.731 291.412 485.895 291.89 486.06 291.89C486.06 291.89 486.389 292.049 486.389 291.89C486.389 291.731 486.389 291.572 486.224 291.253C486.224 291.094 486.06 291.253 485.895 291.253Z" fill="white"/>
<path d="M495.932 233.91C496.097 233.751 496.261 233.592 496.097 233.592C496.097 233.592 495.932 233.433 495.768 233.433C495.768 233.433 495.439 233.273 495.274 233.273C494.945 233.433 494.616 233.751 494.616 233.91C494.451 234.07 494.451 233.91 494.287 233.91C494.287 233.751 494.122 233.91 493.958 233.91L493.629 234.07C493.464 234.07 493.3 234.229 493.135 234.388C492.97 234.548 493.3 234.388 493.464 234.388C493.629 234.229 493.793 234.229 493.958 234.388C494.122 234.388 493.958 234.548 493.958 234.707C493.958 234.866 493.629 235.185 493.464 235.503C493.464 235.663 492.97 236.14 493.135 236.14L493.464 236.3C493.464 236.3 493.464 236.459 493.3 236.618C493.135 236.778 492.806 236.937 492.806 237.255C492.641 237.574 492.148 237.733 491.983 237.893C491.819 238.052 491.325 238.848 491.16 239.167C490.996 239.485 490.996 239.485 490.667 239.645C490.338 239.804 490.173 239.645 490.009 239.804C489.844 239.963 490.338 240.123 490.667 240.123C490.996 240.123 490.996 239.963 491.325 239.804C491.654 239.645 491.49 239.804 491.819 239.963C491.983 240.123 492.641 240.282 493.135 240.282C493.464 240.282 493.464 240.282 493.958 240.282C493.958 240.282 494.287 240.123 494.287 239.963C494.287 239.804 494.122 239.804 494.287 239.485C494.451 239.326 494.616 239.326 494.945 239.167C495.274 239.008 495.274 238.848 495.274 238.689C495.274 238.53 495.603 238.53 495.768 238.37C496.097 238.211 495.932 238.052 495.768 237.893C495.603 237.733 495.439 237.893 495.274 237.574C495.11 237.415 495.109 237.255 494.945 237.096C494.945 236.937 495.109 236.778 495.109 236.618C495.109 236.459 494.78 236.778 494.78 236.618C494.78 236.459 495.109 236.14 495.109 235.822C495.109 235.663 494.945 235.663 494.945 235.503C494.78 235.344 495.274 235.025 495.439 234.866C495.603 234.707 495.768 234.229 495.768 234.07C495.768 233.91 495.603 233.91 495.603 233.91C495.603 234.229 495.768 233.91 495.932 233.91Z" fill="white"/>
<path d="M489.68 238.37C490.009 238.37 490.009 238.53 490.173 238.37C490.338 238.37 490.502 238.37 490.667 238.37H490.832C490.832 238.37 490.996 238.052 490.996 237.893C491.161 237.733 491.49 237.256 491.654 237.096C491.819 236.937 491.983 236.778 492.148 236.618C492.477 236.459 492.477 236.459 492.641 236.3C492.806 236.141 492.641 235.981 492.641 235.822C492.477 235.663 492.477 235.822 492.312 235.822C492.148 235.822 492.312 235.663 492.312 235.503C492.312 235.344 492.148 235.503 491.819 235.503C491.49 235.503 491.49 235.822 491.325 235.981C491.161 236.3 490.996 236.141 490.996 235.981C490.832 235.822 490.832 235.822 490.502 235.981C490.173 236.141 490.502 236.3 490.338 236.459C490.173 236.778 490.009 236.937 489.844 237.255C489.515 237.733 489.68 237.096 489.515 237.096C489.351 237.096 489.022 237.574 489.022 237.733C489.022 237.893 489.022 238.052 489.186 238.211C489.351 238.689 489.515 238.37 489.68 238.37Z" fill="white"/>
<path d="M488.693 237.893C488.528 238.052 488.693 238.052 488.693 238.211C488.693 238.211 489.022 237.893 489.022 237.733C489.022 237.415 488.857 237.733 488.693 237.893Z" fill="white"/>
<path d="M493.464 234.07C493.464 234.07 493.629 233.911 493.629 233.751C493.464 233.751 493.464 233.911 493.464 234.07C493.135 234.07 493.299 234.229 493.464 234.07Z" fill="white"/>
<path d="M493.958 233.911C494.122 233.751 493.958 233.751 493.958 233.751C493.958 233.751 493.629 233.751 493.629 233.911C493.629 233.911 493.793 234.07 493.958 233.911Z" fill="white"/>
<path d="M494.122 233.751C494.122 233.751 494.287 233.751 494.451 233.592C494.616 233.592 494.781 233.273 494.945 233.114C494.945 232.796 494.781 232.955 494.616 233.114C494.451 233.114 494.287 233.273 494.287 233.433C494.122 233.433 494.122 233.592 494.122 233.751C494.122 233.592 493.958 233.751 494.122 233.751Z" fill="white"/>
<path d="M496.755 232.955C496.755 232.955 496.426 233.114 496.426 233.273C496.426 233.273 496.755 233.114 496.755 232.955C496.92 232.955 496.92 232.955 496.755 232.955Z" fill="white"/>
<path d="M498.071 231.999C498.071 232.158 498.071 232.318 497.907 232.477C497.742 232.796 497.742 232.796 497.742 232.796C497.742 232.796 497.907 232.636 498.071 232.636C498.236 232.477 498.401 232.318 498.565 232.318C498.73 232.158 498.565 232.158 498.565 231.84C498.73 231.681 498.071 231.84 498.071 231.999Z" fill="white"/>
<path d="M524.563 225.946C524.727 226.106 525.056 226.106 525.221 226.106C525.221 226.106 525.385 226.106 525.55 225.946C525.715 225.946 525.55 225.946 525.385 225.787C525.056 225.787 524.892 225.628 524.727 225.468C524.398 225.628 524.398 225.787 524.563 225.946Z" fill="white"/>
<path d="M523.576 225.468C523.411 225.468 523.246 225.309 523.082 225.15C522.917 224.991 522.753 224.672 522.753 224.513C522.753 224.354 522.424 224.513 522.095 224.513C521.766 224.513 521.601 224.672 521.601 224.831C521.437 224.991 521.601 225.15 521.601 225.15C521.437 225.15 521.601 225.309 521.766 225.468C521.93 225.628 522.095 225.468 522.095 225.628C522.259 225.787 522.095 225.946 522.259 225.946C522.424 225.946 522.588 225.946 522.753 225.787C522.917 225.628 522.753 225.628 522.917 225.628C523.082 225.628 522.917 225.946 523.247 225.946C523.247 225.946 523.576 225.946 523.905 225.787C524.234 225.787 524.069 225.787 524.069 225.628C524.069 225.468 523.905 225.468 523.576 225.468Z" fill="white"/>
<path d="M521.765 223.876C521.93 224.035 521.765 224.194 521.601 224.353C521.436 224.513 521.93 224.353 522.259 224.353H522.753C522.753 224.353 522.753 224.194 522.917 224.035C522.917 223.876 523.246 223.876 523.575 223.876C523.905 223.876 523.411 223.716 523.411 223.557C523.246 223.398 523.575 223.238 523.904 223.238C524.069 223.079 523.904 222.92 523.74 222.92C523.575 222.761 523.905 222.761 524.234 222.761C524.398 222.761 524.563 222.761 524.563 222.601C524.563 222.442 524.727 222.761 525.056 222.761C525.385 222.761 524.892 222.601 524.892 222.442C524.727 222.442 524.398 222.442 524.234 222.442C524.069 222.442 523.904 222.442 523.74 222.283C523.575 222.123 523.575 222.283 523.575 222.442C523.411 222.601 523.411 222.761 523.246 222.761C523.246 222.761 522.753 222.761 522.753 222.92C522.588 223.079 522.917 223.238 522.753 223.398C522.588 223.557 522.588 223.557 522.259 223.557C521.93 223.557 521.93 223.557 521.765 223.716C521.272 223.716 521.601 223.716 521.765 223.876Z" fill="white"/>
<path d="M497.578 227.221C497.742 226.902 496.92 227.061 496.92 227.061C496.755 227.061 496.59 227.38 496.097 227.38C495.768 227.38 495.932 227.221 495.603 227.221C495.274 227.221 494.781 227.539 494.616 227.858C494.287 228.176 493.629 228.654 493.793 228.813C493.958 228.813 494.122 228.973 494.616 228.973C494.945 228.973 494.945 228.973 495.274 228.973C495.603 228.973 495.603 228.813 495.768 228.654C495.932 228.654 496.097 228.813 496.59 228.495C496.59 228.495 497.084 228.176 497.249 228.017C497.413 227.858 497.413 227.539 497.578 227.221Z" fill="white"/>
<path d="M488.034 227.858C488.199 227.698 489.515 227.061 489.844 226.902C490.173 226.743 490.832 226.583 490.996 226.424C491.161 226.265 491.325 225.946 491.654 225.946C491.983 225.946 492.477 225.946 492.806 225.787C493.135 225.628 493.629 225.468 493.629 225.468C493.629 225.468 493.793 225.628 493.958 225.468C494.287 225.309 494.781 225.15 494.945 224.99C495.11 224.831 496.097 224.672 496.261 224.672C496.426 224.672 496.755 224.513 496.92 224.672C496.92 224.831 497.249 224.831 497.413 224.831C497.578 224.831 498.236 224.513 498.236 224.513L498.401 224.672C498.73 224.513 499.059 224.353 498.894 224.194C498.73 224.035 498.73 224.035 499.059 223.875C499.223 223.716 499.881 223.557 499.717 223.716C499.552 223.875 499.717 224.035 500.211 223.716C500.704 223.398 501.856 222.601 502.02 222.761C502.02 222.761 502.02 223.079 502.35 222.92C502.514 222.76 503.008 222.442 503.337 222.442C503.501 222.283 503.995 222.283 503.995 222.283C503.995 222.123 504.489 221.964 504.653 221.964C504.818 221.964 505.64 221.646 505.805 221.486C505.97 221.486 506.463 221.168 506.628 221.008C506.792 220.849 507.121 220.69 507.615 220.531C507.944 220.371 508.109 220.371 508.767 220.212C509.26 220.053 510.083 219.575 510.412 219.575C510.577 219.575 511.564 219.575 511.399 219.256C511.235 219.097 510.577 218.938 510.248 218.778C509.754 218.619 509.26 218.778 508.602 218.619C507.944 218.619 508.438 218.619 507.615 218.46C506.792 218.301 506.299 218.46 505.97 218.46C505.64 218.46 504.653 218.619 504.324 218.778C503.995 218.938 503.337 219.097 503.172 219.416C503.172 219.575 503.008 219.575 502.35 219.734C501.691 219.893 500.046 220.69 499.717 220.849C499.388 221.008 498.894 221.168 498.401 221.327C498.071 221.486 496.591 221.964 495.932 222.283C495.274 222.601 494.452 222.92 493.793 223.238C493.3 223.557 492.642 223.716 491.983 224.194C491.325 224.672 490.173 225.309 489.68 225.628C489.186 225.946 488.528 226.902 488.363 227.061C487.87 227.698 487.87 228.017 488.034 227.858Z" fill="white"/>
<path d="M511.728 222.442C511.893 222.283 511.728 222.601 511.893 222.601C512.058 222.601 511.893 222.761 511.728 223.079C511.564 223.398 511.893 223.398 512.387 223.079C512.387 223.079 512.551 222.761 512.387 222.601C512.387 222.442 512.716 222.442 513.045 222.283C513.209 222.123 513.703 222.123 513.867 221.964C514.032 221.805 512.387 221.805 512.222 221.805C512.058 221.805 512.222 222.123 512.222 222.283C512.058 222.442 512.058 222.123 511.893 222.123C511.728 222.123 511.564 222.283 511.564 221.964C511.564 221.646 511.399 221.805 511.235 221.805C511.07 221.805 511.399 222.123 511.07 222.442C511.07 222.761 511.564 222.601 511.728 222.442Z" fill="white"/>
<path d="M513.538 222.601C513.209 222.601 513.045 222.761 512.88 222.92C512.88 222.92 513.045 222.92 513.374 222.92C513.538 222.92 513.703 223.079 514.032 222.761C514.526 222.442 513.867 222.601 513.538 222.601Z" fill="white"/>
<path d="M489.186 250.476C489.021 250.476 488.857 250.635 488.857 250.795C488.857 250.954 488.857 250.954 488.857 251.272H489.022C489.186 251.272 489.351 250.954 489.186 250.795C489.186 250.476 489.351 250.317 489.186 250.476Z" fill="white"/>
<path d="M489.844 251.113C489.844 251.113 490.009 251.113 490.173 251.113C490.338 251.113 490.338 250.795 490.173 250.635C490.009 250.795 489.844 250.954 489.844 251.113Z" fill="white"/>
<path d="M490.502 250.157C490.502 249.998 490.173 250.157 490.009 250.476C489.844 250.795 489.844 250.795 490.009 250.795C490.009 250.795 490.173 250.795 490.502 250.795C490.667 250.476 490.502 250.157 490.502 250.157Z" fill="white"/>
<path d="M491.16 250.476C491.325 250.476 491.325 250.317 491.49 250.158C491.654 249.998 491.49 249.839 491.325 249.839C491.16 249.68 490.831 250.158 490.996 250.317C490.996 250.317 490.996 250.476 491.16 250.476Z" fill="white"/>
<path d="M494.945 249.52C494.781 249.52 494.616 249.839 494.616 249.998C494.616 249.998 494.781 249.998 494.945 249.839C495.11 249.839 494.945 249.52 494.945 249.52Z" fill="white"/>
<path d="M498.73 254.936C498.565 254.936 498.4 255.255 498.565 255.255C498.565 255.255 498.73 255.414 498.894 255.095C499.059 255.095 498.894 254.936 498.73 254.936Z" fill="white"/>
<path d="M535.423 280.74C535.258 280.74 535.258 280.899 535.423 281.059L535.587 280.899C535.587 280.581 535.587 280.74 535.423 280.74Z" fill="white"/>
<path d="M537.068 279.944C536.903 279.944 536.245 280.262 536.574 280.581C536.574 280.581 536.574 280.74 536.739 280.74C536.903 280.899 537.068 280.74 537.232 280.74C537.397 280.581 537.397 280.581 537.397 280.422C537.397 280.262 537.232 279.944 537.068 279.944Z" fill="white"/>
<path d="M574.913 280.103C574.913 279.944 574.748 278.988 574.584 278.829C574.419 278.51 574.584 277.714 574.584 277.554C574.584 277.236 574.419 277.076 574.255 276.917C574.09 276.599 573.926 276.599 573.926 276.121C573.761 275.802 573.597 276.121 573.432 275.962C573.268 275.802 573.103 275.324 573.103 275.006C573.103 274.687 572.774 274.369 572.609 273.891C572.445 273.572 572.445 273.891 572.28 274.05C572.116 274.209 572.116 273.732 572.116 273.254C572.116 272.935 572.28 272.457 572.28 272.298C572.28 271.979 572.28 271.82 572.116 271.502C571.951 271.342 572.116 270.864 571.951 270.546C571.951 270.227 571.622 269.749 571.787 269.59C571.951 269.431 571.951 269.909 572.116 270.068C572.28 270.227 572.445 269.909 572.445 269.909C572.445 270.068 572.774 271.183 573.268 271.502C573.761 271.661 573.761 271.502 573.926 271.82C574.09 272.139 573.926 273.094 574.09 273.413C574.255 273.732 574.255 273.254 574.419 272.617C574.584 271.979 574.584 271.82 574.419 271.183C574.255 270.705 574.584 270.546 574.748 270.068C574.913 269.59 574.748 268.316 574.584 267.519C574.419 266.723 573.761 265.449 573.268 264.493C572.609 263.537 572.609 263.219 572.28 262.741C571.951 262.263 571.951 261.785 571.787 261.307C571.622 260.829 571.787 260.033 571.787 259.715C571.787 259.396 572.116 259.396 572.28 259.715C572.445 260.033 572.609 260.989 572.609 261.467C572.609 261.944 572.938 262.422 573.268 262.422C573.597 262.422 573.268 261.785 573.268 261.307C573.268 260.829 572.609 259.714 572.445 259.396C572.28 259.077 572.609 259.077 572.609 258.599C572.609 258.122 572.609 257.803 572.445 257.325C572.28 257.007 572.609 257.166 572.609 256.847C572.609 256.529 572.445 255.095 572.445 254.617C572.445 254.14 571.622 252.547 571.293 251.75C570.964 250.954 569.812 248.724 569.648 248.087C569.483 247.45 568.989 246.494 568.825 246.335C568.66 246.175 567.673 245.22 567.344 244.901C567.015 244.582 566.521 243.627 566.192 242.671C565.863 241.715 565.863 242.193 565.205 242.034C564.547 241.875 565.04 242.193 564.711 241.875C564.382 241.556 564.711 241.078 565.04 240.919C565.37 240.76 565.205 240.76 565.37 240.123C565.37 239.963 565.534 239.804 565.534 239.645C557.471 229.61 546.283 222.601 534.106 219.575C533.777 219.575 532.79 219.416 532.132 219.416C531.474 219.256 531.967 219.734 532.461 220.053C532.955 220.371 534.929 220.371 535.587 220.69C536.245 221.008 535.916 221.168 535.423 221.168C534.929 221.168 534.435 221.168 534.271 221.486C534.106 221.805 534.106 222.123 533.777 222.283C533.448 222.442 532.132 221.327 531.803 221.168C531.474 221.008 530.815 221.486 530.322 221.486C529.828 221.486 530.651 221.964 530.322 222.123C529.993 222.283 530.157 221.964 529.993 221.805C529.828 221.805 529.499 221.805 529.17 221.805C528.841 221.805 528.841 221.964 528.841 222.283C528.676 222.442 529.006 222.283 529.335 222.442C529.664 222.601 529.335 222.761 529.006 222.92C528.676 223.079 529.17 223.238 529.499 223.398C529.828 223.557 530.322 223.398 530.486 223.398C530.651 223.398 530.157 223.557 529.828 223.716C529.664 223.876 530.157 223.876 530.322 224.194C530.486 224.353 530.651 224.353 531.145 224.353C531.638 224.513 532.132 224.831 532.296 225.15C532.296 225.309 531.145 224.672 530.98 224.513C530.651 224.353 530.322 224.513 530.157 224.513C529.993 224.513 529.993 224.194 529.499 224.194C529.006 224.194 529.499 224.353 529.664 224.672C529.828 224.831 530.322 224.99 530.322 225.309C530.322 225.468 529.828 225.309 529.664 225.15C529.499 224.991 529.17 224.831 529.006 224.513C528.841 224.353 528.676 224.353 528.676 224.513C528.676 224.672 529.17 224.831 529.17 224.991C529.335 225.15 529.664 225.309 529.828 225.628C530.157 225.946 530.486 226.105 530.98 226.265C531.309 226.424 531.638 226.265 531.967 226.265C532.461 226.265 532.625 226.583 532.955 226.743C533.284 226.902 533.448 226.902 533.448 227.061C533.448 227.38 532.625 226.743 532.296 226.583C532.132 226.424 531.638 226.424 531.309 226.424C530.98 226.424 531.803 226.902 531.803 227.539C531.803 228.017 531.474 227.698 531.309 227.38C531.309 226.902 530.651 226.583 530.322 226.424C529.993 226.265 529.828 226.106 529.664 225.946C529.499 225.787 529.17 225.468 528.841 225.309C528.347 225.15 528.347 224.831 528.183 224.672C528.018 224.672 527.854 224.672 527.854 224.513C527.689 224.353 527.36 224.194 527.031 224.353C526.702 224.513 527.36 224.513 527.36 224.831C527.36 225.15 527.36 225.15 527.36 225.468C527.36 225.628 527.36 225.628 527.525 225.946C527.689 226.106 528.018 226.106 528.347 226.424C528.676 226.583 529.17 226.583 529.006 226.902C529.006 227.061 529.006 227.061 528.512 227.061C528.018 226.902 528.183 227.061 527.689 226.902C527.196 226.902 526.537 226.902 526.044 226.902C525.55 226.902 525.715 227.061 525.879 227.22C526.044 227.38 526.208 227.38 526.044 227.698C526.044 228.017 525.55 227.539 525.386 227.539C525.221 227.539 524.727 227.698 524.563 227.698C524.234 227.698 524.234 227.539 524.069 227.539C523.905 227.38 523.576 227.698 523.411 227.858C523.247 228.017 522.917 228.017 522.588 228.176C522.259 228.335 522.424 227.858 522.424 227.698C522.424 227.539 522.259 227.858 521.93 227.698C521.601 227.698 521.601 227.539 521.601 227.698C521.601 227.858 521.93 227.858 521.93 228.017C521.93 228.176 522.095 228.176 522.259 228.654C522.424 228.973 522.095 228.973 521.766 228.973C521.437 228.973 521.601 228.813 521.601 228.495C521.601 228.017 521.272 228.017 520.943 228.017C520.614 228.017 520.614 228.017 520.449 228.017C520.285 228.017 519.956 227.858 519.956 228.017C519.956 228.176 520.285 228.176 520.449 228.335C520.614 228.495 520.449 228.654 520.614 228.813C520.778 228.973 520.943 229.132 520.943 229.45C520.943 229.61 520.449 229.61 520.285 229.45C520.12 229.291 519.956 229.45 519.791 229.45C519.627 229.45 519.462 229.45 519.133 229.45C518.804 229.45 519.133 229.61 518.804 229.769C518.475 229.928 518.475 229.928 518.146 230.088C517.817 230.088 517.981 229.928 517.488 230.088C516.994 230.247 517.158 230.247 517.323 230.565C517.488 230.884 517.652 230.884 517.652 231.203C517.652 231.362 516.994 231.203 516.665 230.884C516.5 230.565 516.665 230.247 516.665 229.928C516.665 229.45 516.336 229.45 516.171 229.132C516.007 228.973 516.665 229.132 516.829 229.45C516.994 229.61 517.323 229.61 517.817 229.61C518.31 229.769 518.475 229.45 518.639 229.291C518.804 229.132 518.475 228.973 518.146 228.813C517.817 228.654 517.981 228.654 517.817 228.495C517.652 228.335 517.488 228.176 517.323 228.017C516.994 228.017 516.665 227.858 516.336 227.858C516.007 227.858 516.007 228.017 515.842 227.858C515.678 227.698 515.842 227.539 515.678 227.539C515.513 227.539 515.184 227.539 515.019 227.698C514.855 227.858 514.69 227.698 514.69 227.698C514.855 227.539 515.184 227.539 515.019 227.22C515.019 227.061 514.69 227.061 514.361 227.061C514.032 227.061 514.197 227.061 514.032 226.902C513.868 226.902 513.868 227.061 513.538 227.061C513.374 227.22 513.045 227.061 513.045 227.061C512.88 227.061 512.88 226.902 512.551 226.902C512.222 226.902 511.893 226.902 511.729 227.061C511.564 227.22 512.058 227.22 511.893 227.38C511.729 227.539 511.729 227.38 511.564 227.38C511.399 227.38 511.07 227.38 510.906 227.539C510.741 227.698 510.083 227.698 509.919 227.698C509.754 227.858 509.26 227.698 509.26 227.858C509.096 227.858 509.589 228.176 509.425 228.176C509.26 228.335 509.096 228.495 508.767 228.495C508.602 228.495 508.767 228.017 508.931 228.017C508.931 228.017 508.767 228.017 508.602 228.176C508.438 228.335 508.109 228.495 507.944 228.495C507.78 228.654 508.109 228.973 507.779 229.132C507.615 229.291 507.615 228.813 507.286 228.973C507.121 229.132 506.957 229.45 506.792 229.45C506.628 229.45 506.463 229.45 506.134 229.61C505.805 229.769 506.463 229.769 506.463 229.928C506.463 230.088 506.299 230.088 505.97 230.088C505.805 230.247 505.64 230.247 505.476 230.406C505.311 230.565 505.311 230.565 504.982 230.725C504.653 230.884 504.818 231.043 504.653 231.362C504.489 231.68 504.324 231.521 504.16 231.68C503.995 231.84 503.666 231.84 503.501 231.999C503.337 231.999 503.337 231.84 502.843 231.999C502.514 232.158 502.185 232.158 501.856 232.477C501.527 232.795 501.691 232.955 502.02 232.955C502.185 232.955 502.185 233.114 502.185 233.273C502.021 233.433 501.691 233.114 501.527 233.114C501.362 233.114 501.198 233.273 501.198 233.433C501.033 233.592 501.362 233.91 501.198 234.07C501.198 234.229 501.033 234.229 500.869 234.07C500.704 234.07 500.375 234.388 500.211 234.548C499.881 234.707 500.211 234.707 500.375 235.185C500.375 235.503 499.881 235.663 499.881 235.663C500.046 235.822 500.54 235.822 500.869 235.822C501.033 235.822 501.198 235.663 501.362 235.503C501.691 235.344 501.691 235.344 501.856 235.344C501.856 235.185 502.021 235.025 502.185 234.866C502.35 234.707 502.679 234.707 502.843 234.548C503.008 234.388 503.172 234.388 503.172 234.548C503.172 234.707 503.008 235.185 502.843 235.663C502.679 236.14 502.843 236.14 502.843 236.459C502.843 236.937 502.679 237.255 502.843 237.733C502.843 238.052 503.337 237.733 503.666 237.574C503.995 237.415 504.489 237.096 504.653 236.937C504.982 236.778 505.147 236.778 505.147 236.459C505.147 236.14 505.311 236.14 505.64 235.981C505.805 235.822 505.805 235.822 505.805 235.503C505.97 235.185 506.299 234.866 506.463 234.866C506.628 234.866 507.121 234.548 507.121 234.388C507.286 234.229 507.121 234.07 506.957 233.91C506.792 233.751 506.957 233.592 506.957 233.273C506.957 233.114 507.286 232.318 507.286 232.318C507.286 232.318 507.944 231.999 508.109 231.84C508.273 231.68 508.767 231.68 508.931 231.68C509.096 231.521 508.931 231.521 509.425 231.362C509.919 231.203 509.754 231.203 509.754 231.043C509.754 230.884 509.919 230.725 510.083 230.725C510.248 230.565 510.248 230.565 510.412 230.406C510.577 230.247 510.577 230.406 510.741 230.406C510.906 230.406 511.399 230.565 511.564 230.725C511.564 230.884 511.235 230.884 511.07 231.043C511.07 231.203 510.906 231.043 510.577 231.203C510.248 231.203 510.248 231.362 510.083 231.521C509.919 231.68 509.425 231.999 509.096 232.158C508.767 232.318 508.931 232.477 508.931 232.477C508.931 232.636 508.931 232.795 508.931 232.955C508.931 233.273 508.602 233.433 508.602 233.592C508.438 233.751 508.602 234.07 508.767 234.388C508.931 234.548 509.096 234.548 509.589 234.388C509.919 234.229 510.412 234.07 510.906 233.91C511.235 233.751 512.387 233.91 512.551 233.91C512.716 233.91 512.716 234.07 512.551 234.229C512.551 234.388 511.728 234.548 511.399 234.548C511.07 234.548 510.412 234.388 510.248 234.388C510.083 234.548 509.754 234.388 509.425 234.548C509.096 234.707 509.096 234.866 508.931 235.025C508.931 235.185 509.096 235.344 509.096 235.344C509.096 235.344 509.425 235.344 509.589 235.344C509.754 235.344 509.754 235.344 509.589 235.503C509.589 235.663 509.425 235.981 509.096 236.14C508.767 236.459 508.767 236.14 508.602 236.14C508.438 236.14 508.273 235.981 508.273 235.822C508.109 235.663 508.109 235.822 507.944 235.981C507.78 236.14 507.615 236.3 507.45 236.459C507.286 236.618 507.45 236.778 507.121 236.937C506.792 237.096 506.957 237.255 506.957 237.574C506.792 237.733 506.463 237.893 506.299 238.052C506.134 238.211 506.134 238.37 505.97 238.53C505.97 238.689 505.476 238.689 505.311 238.689C505.147 238.689 505.476 238.53 505.476 238.37C505.64 238.211 505.311 238.211 504.982 238.37C504.818 238.37 504.324 238.53 504.16 238.53C503.995 238.53 503.172 238.53 503.008 238.689C502.843 238.689 502.679 238.848 502.514 239.008C502.35 239.167 502.514 238.689 502.514 238.689C502.514 238.53 502.185 238.53 502.185 238.53C502.021 238.53 501.691 238.53 501.527 238.53C501.362 238.53 501.198 238.689 500.869 238.689C500.704 238.689 500.54 238.53 500.375 238.37C500.211 238.211 500.211 237.733 500.211 237.733C500.211 237.574 500.046 237.893 499.881 237.893C499.717 238.052 499.388 238.211 499.223 238.37C499.223 238.53 499.552 239.008 499.388 239.167C499.388 239.326 499.223 239.326 498.894 239.326C498.565 239.326 498.401 239.167 498.071 239.167C497.907 239.008 497.742 239.485 497.413 239.485C497.249 239.645 496.755 239.804 496.591 239.804C496.426 239.804 496.261 239.804 496.097 239.804C495.932 239.804 495.932 239.963 495.932 240.282C495.768 240.6 495.768 240.76 495.603 240.76C495.439 240.919 495.439 240.919 495.274 240.919C495.11 240.76 494.451 241.078 494.122 241.238C493.793 241.397 493.3 241.715 493.135 241.715C492.971 241.875 492.971 241.875 492.806 242.034C492.642 242.352 492.477 242.193 491.983 242.193C491.49 242.193 490.996 241.875 490.832 241.875C490.667 241.875 490.667 242.353 490.502 242.512C490.338 242.671 490.338 242.512 490.173 242.512C490.009 242.512 490.009 242.671 489.844 242.512C489.68 242.353 489.68 242.353 489.515 242.353C489.351 242.353 489.022 242.512 489.022 242.671C489.022 242.83 488.692 242.99 488.528 243.149C488.363 243.308 488.363 243.308 488.693 243.468C489.022 243.627 488.857 243.467 489.022 243.786C489.186 243.945 489.186 243.786 489.351 243.786C489.515 243.786 489.515 243.786 489.515 244.105C489.68 244.264 489.68 244.105 489.68 244.264C489.68 244.423 489.515 244.423 489.515 244.742C489.515 245.06 489.515 245.22 489.515 245.379C489.515 245.538 489.351 245.538 489.351 245.857C489.515 246.016 489.515 246.175 489.351 246.175C489.351 246.335 489.186 246.175 489.186 246.016C489.186 245.857 489.022 245.857 489.022 245.857C488.857 246.016 488.693 246.016 488.693 246.175C488.528 246.335 488.693 246.494 488.693 246.494C488.693 246.653 488.363 246.653 488.199 246.812C488.034 246.972 488.034 247.45 487.376 247.29C486.718 247.131 486.883 246.972 486.718 246.972C486.553 246.972 486.224 246.812 486.06 246.653C485.895 246.335 485.895 246.494 485.566 246.335C485.402 246.335 484.908 246.175 484.743 246.175C484.414 246.335 484.414 246.335 484.25 246.175C484.085 246.016 483.921 246.175 483.756 246.335C483.592 246.653 483.427 246.972 483.427 247.45C483.427 247.927 482.769 248.883 482.275 249.52C481.782 250.317 481.288 250.795 481.288 251.113C481.288 251.591 481.124 251.75 480.959 252.069C480.794 252.387 481.124 252.228 481.453 252.228C481.782 252.228 481.946 252.228 482.111 252.387C482.111 252.387 482.111 253.184 482.275 253.502C482.44 253.662 482.604 253.343 482.769 253.184C482.933 253.025 483.098 253.025 483.427 253.025C483.756 253.025 483.921 253.343 484.414 253.343C484.908 253.343 485.402 253.343 485.731 253.184C486.06 253.184 486.224 252.706 486.389 252.547C486.553 252.387 487.376 251.91 487.541 251.91C487.705 251.75 487.87 250.954 488.034 250.635C488.199 250.317 488.528 250.157 488.857 249.998C489.186 249.839 489.844 249.68 490.009 249.68C490.338 249.68 490.996 249.042 490.996 248.883C490.996 248.724 491.161 248.405 491.654 248.246C492.148 248.087 492.312 248.246 492.806 248.246C493.3 248.246 493.464 248.405 493.629 248.246C493.793 248.087 494.122 248.087 494.452 248.087C494.781 248.087 495.274 247.768 495.274 247.768C495.439 247.768 495.603 247.927 495.768 247.927C495.932 247.927 495.768 247.609 495.932 247.45C496.097 247.29 496.097 247.609 496.261 247.927C496.426 248.246 496.591 248.405 496.755 248.724C496.92 249.042 497.249 249.202 497.413 249.68C497.578 250.157 497.413 250.157 497.742 250.317C498.071 250.317 498.236 250.476 498.565 250.795C498.894 251.272 499.388 251.75 499.388 252.228C499.388 252.706 498.894 253.343 498.73 253.662C498.565 253.821 498.894 253.98 499.223 253.821C499.552 253.662 499.717 253.662 499.881 253.343C500.046 253.025 500.046 252.706 500.046 252.706C500.21 252.706 500.54 252.387 500.54 252.228C500.54 252.069 500.211 252.069 500.211 251.91C500.046 251.75 500.375 251.272 500.704 251.272C500.869 251.272 501.198 251.591 501.362 251.91C501.527 252.069 501.856 251.75 501.856 251.591C501.856 251.432 501.527 250.954 501.198 250.795C500.869 250.635 500.704 250.635 500.54 250.476C500.375 250.157 500.21 249.839 500.046 249.68C499.881 249.52 499.059 249.361 498.894 249.202C498.73 249.042 498.894 248.087 498.894 247.927C498.894 247.768 498.565 247.768 498.236 247.609C497.907 247.45 498.071 247.29 498.236 247.29C498.401 247.29 498.401 246.812 498.401 246.653C498.236 246.494 498.565 246.494 498.894 246.653C499.223 246.812 499.059 246.812 498.894 247.131C498.894 247.29 499.059 247.609 499.223 247.609C499.388 247.609 499.552 247.29 499.552 247.131C499.552 246.972 499.717 247.131 499.881 247.45C500.21 247.768 500.046 247.768 500.211 248.087C500.375 248.405 500.046 248.565 499.881 248.724C499.717 249.042 499.881 248.883 500.375 248.883C500.704 249.042 500.375 249.042 500.869 249.202C501.362 249.361 501.527 249.52 501.691 249.52C501.856 249.52 502.35 249.839 502.679 249.998C503.008 250.317 502.843 250.476 502.679 250.795C502.514 251.113 502.679 251.432 502.679 252.069C502.679 252.547 502.843 252.228 503.172 252.706C503.337 253.025 503.501 253.184 503.501 253.502C503.666 253.821 503.666 253.821 503.83 253.821C503.995 253.821 504.489 253.821 504.489 253.98C504.489 254.14 503.995 253.98 503.666 254.14C503.337 254.299 503.337 254.299 503.337 254.617C503.337 254.936 503.501 254.777 503.666 255.255C503.83 255.732 503.666 255.732 503.83 255.732C503.995 255.732 503.995 255.573 504.16 255.892C504.324 256.21 504.324 256.051 504.489 255.892C504.818 255.732 504.818 255.892 504.982 255.732C504.982 255.573 504.982 255.414 505.147 255.573C505.311 255.732 505.476 255.414 505.476 255.095C505.476 254.777 505.476 254.777 505.311 254.777C505.147 254.777 504.982 255.255 504.818 255.095C504.489 254.936 505.311 254.777 505.476 254.617C505.64 254.458 505.64 254.458 505.805 254.458C505.97 254.458 506.299 254.458 506.134 253.98C505.97 253.662 505.805 253.502 505.147 252.865C504.489 252.228 505.311 252.069 505.805 251.91C506.463 251.591 507.615 251.591 507.779 251.591C507.944 251.591 507.944 251.91 507.615 252.069C507.45 252.228 507.286 252.547 507.45 252.706C507.45 252.865 507.78 252.865 507.944 252.865C508.109 252.865 508.273 252.865 508.438 253.343C508.602 253.821 508.109 253.98 507.944 253.98C507.78 253.98 507.779 254.458 507.615 254.617C507.615 254.777 508.273 254.617 508.438 254.617C508.602 254.617 508.602 254.936 508.767 255.255C508.931 255.573 508.931 255.573 509.096 255.892C509.26 256.21 508.767 256.051 509.26 256.21C509.589 256.37 509.754 256.21 510.083 256.21C510.412 256.21 511.399 256.529 511.729 256.37C512.058 256.21 512.222 255.892 512.551 255.892C512.88 255.892 513.209 256.37 513.538 256.529C513.868 256.688 514.526 256.37 514.69 256.21C514.855 256.051 515.019 256.051 515.348 256.051C515.842 256.051 516.007 256.051 516.007 255.892C516.007 255.732 516.336 255.573 516.336 255.892C516.336 256.21 516.171 256.21 516.007 256.37C515.842 256.529 516.007 256.847 516.007 257.166C516.171 257.485 516.007 257.962 516.007 258.122C516.007 258.44 515.842 258.44 515.842 258.759C515.842 258.918 515.678 258.918 515.513 259.077C515.348 259.396 515.348 259.715 515.348 260.033C515.513 260.352 515.019 260.67 514.69 261.148C514.361 261.467 514.197 261.785 514.032 261.785C513.868 261.785 513.209 261.626 513.045 261.626C512.88 261.467 512.387 260.989 512.058 260.989C511.729 260.989 510.248 261.467 509.754 261.626C509.26 261.785 508.273 261.467 507.944 261.148C507.615 260.989 507.121 260.989 506.792 261.148C506.463 261.148 506.299 260.829 505.805 260.511C505.311 260.192 504.982 260.511 504.653 260.352C504.16 260.352 504.324 259.874 504.16 259.715C503.995 259.555 502.843 259.555 502.35 259.555C501.856 259.555 501.856 259.555 501.856 259.874C501.856 260.192 501.691 260.989 501.527 261.307C501.362 261.626 500.54 261.785 500.375 261.785C500.211 261.785 499.552 261.467 499.223 261.467C499.059 261.467 498.565 261.467 498.565 261.307C498.401 261.148 498.236 261.148 497.907 260.989C497.578 260.829 497.578 260.352 497.413 260.033C497.413 259.715 496.92 259.396 496.261 259.077C495.603 258.759 495.11 259.077 494.781 259.237C494.616 259.396 493.958 259.077 493.464 258.44C492.971 257.803 493.793 257.644 493.793 257.325C493.793 257.166 494.122 256.847 494.452 256.688C494.781 256.37 494.451 256.21 494.122 255.892C493.958 255.573 494.287 255.255 494.616 254.936C494.945 254.617 494.287 254.617 494.122 254.617C493.958 254.617 494.287 254.299 494.122 254.14C493.958 253.98 493.629 254.14 493.629 254.299C493.629 254.458 493.135 254.617 492.971 254.617C492.642 254.777 492.477 254.936 492.148 254.777C491.983 254.617 491.983 254.458 491.49 254.458C490.996 254.299 490.502 254.617 490.338 254.777C490.009 254.936 490.009 254.777 489.844 254.617C489.68 254.458 489.515 254.299 488.857 254.299C488.199 254.299 487.541 254.299 486.883 254.458C486.224 254.617 485.073 254.936 484.579 255.095C484.085 255.255 483.427 255.095 482.769 254.936C482.111 254.777 481.946 254.458 481.782 254.14C481.617 253.821 481.617 253.98 481.453 254.299C481.288 254.617 481.124 254.617 480.959 254.936C480.63 255.255 480.63 255.414 480.301 255.573C479.972 255.732 479.807 255.892 479.643 256.051C479.478 256.21 478.984 256.37 478.655 256.529C478.326 256.688 478.491 257.166 478.162 257.485C477.833 257.803 477.668 258.122 477.504 258.599C477.339 259.077 477.339 259.077 477.504 259.396C477.668 259.714 477.339 259.715 477.339 259.555C477.175 259.555 477.01 259.555 476.845 259.874C476.516 260.192 476.352 260.192 476.023 260.192C475.694 260.192 475.858 260.352 475.529 260.67C475.2 260.83 474.871 260.67 474.542 260.989C474.542 260.989 473.884 261.467 473.555 261.944C473.225 262.422 472.567 263.219 472.238 263.697C471.909 264.174 471.58 264.652 471.415 264.812C471.251 264.971 470.922 265.608 470.593 266.086C470.264 266.564 470.099 266.564 469.935 266.882C469.935 267.201 470.264 267.997 470.264 268.157C470.264 268.316 470.099 268.953 470.099 269.272C470.099 269.59 469.935 269.909 469.77 270.227C469.606 270.546 469.441 270.864 469.606 271.183C469.606 271.502 469.441 271.82 469.276 271.82C469.112 271.979 469.112 272.457 468.947 272.776C468.783 273.094 468.454 272.776 468.454 273.094C468.289 273.254 468.454 273.732 468.454 274.05C468.454 274.369 468.289 275.006 468.289 275.165C468.289 275.324 468.454 275.802 468.454 276.28C468.454 276.758 468.783 276.917 468.947 277.236C469.112 277.395 469.112 277.714 469.112 278.032C469.112 278.351 469.276 278.669 469.276 278.988C469.276 279.306 469.77 279.306 469.935 279.784C470.099 280.103 469.935 280.74 469.935 281.059C469.935 281.377 470.099 282.014 470.099 282.492C470.099 282.97 470.757 283.129 471.086 283.766C471.58 284.404 471.909 284.881 472.403 285.678C472.896 286.474 473.39 286.474 473.884 286.634C474.377 286.793 474.377 286.315 474.706 286.156C475.035 285.996 474.871 286.315 475.365 286.474C475.694 286.634 476.023 286.634 476.187 286.474C476.352 286.474 476.516 286.315 476.681 286.315C477.01 286.315 477.01 286.634 477.174 286.952C477.339 287.271 477.668 287.111 478.162 287.271C478.82 287.43 478.984 287.271 479.314 287.111C479.643 286.952 480.794 286.474 480.959 286.474C481.124 286.474 481.453 286.315 481.782 286.315C482.111 286.315 481.946 286.474 482.111 286.793C482.111 287.111 482.44 286.793 482.769 286.793C483.098 286.793 483.098 286.793 483.427 287.111C483.756 287.43 483.921 288.067 484.085 288.545C484.25 289.023 484.414 289.182 484.743 289.341C485.073 289.501 485.566 289.182 486.06 289.182C486.553 289.182 486.883 289.023 487.212 289.341C487.541 289.501 487.541 290.297 487.705 290.456C487.705 290.616 488.363 290.456 488.363 290.775C488.528 290.934 488.199 291.412 488.034 291.731C487.87 292.049 488.034 292.527 488.034 292.846C488.034 293.164 488.034 293.642 488.034 293.961C488.034 294.279 488.034 294.438 487.705 294.598C487.376 294.757 487.376 294.916 487.541 295.076C487.705 295.394 487.87 295.554 488.034 295.872C488.199 296.191 487.87 296.191 487.87 296.35C488.034 296.509 488.034 296.509 488.363 296.509C488.692 296.509 488.857 296.828 488.693 297.146C488.528 297.465 489.022 297.624 489.186 297.943C489.351 298.261 489.68 298.261 490.009 298.261C490.502 298.421 490.832 298.739 490.996 299.058C491.161 299.536 490.996 299.536 491.161 299.854C491.325 300.173 491.161 300.491 491.161 300.651C491.161 300.81 491.49 300.969 491.654 301.288C491.819 301.606 491.819 301.606 491.819 301.925C491.819 302.243 491.983 302.084 492.148 302.243C492.312 302.403 492.477 302.881 492.312 303.04C492.148 303.199 492.148 303.677 492.312 303.836C492.477 303.996 492.642 303.996 492.806 304.314C492.971 304.633 493.3 305.907 493.464 306.066C493.629 306.226 493.464 306.703 493.3 306.863C493.135 307.022 492.642 307.341 492.477 307.818C492.312 308.137 492.477 308.456 492.642 308.774C492.806 309.093 492.477 309.093 492.312 309.411C492.148 309.73 492.148 309.73 492.148 310.208C492.148 310.526 492.148 310.686 492.312 311.482C492.642 312.278 492.971 312.119 493.3 312.438C493.629 312.756 493.464 312.916 493.629 313.234C493.793 313.393 494.451 314.031 495.11 314.827C495.768 315.623 495.603 315.464 495.439 315.783C495.439 315.942 495.439 316.101 495.768 316.579C496.097 317.057 496.591 317.535 496.591 318.172C496.591 318.809 496.755 318.65 496.92 319.128C497.084 319.605 498.071 320.083 498.565 320.561C499.059 321.039 499.388 321.198 499.881 322.154C500.375 322.95 500.869 323.11 501.033 323.269C501.198 323.428 501.198 323.588 500.869 323.588C500.704 323.588 500.54 323.747 500.704 323.906C500.869 324.065 500.869 324.225 501.033 324.543C501.198 324.862 501.362 324.703 501.691 324.862C502.02 325.021 502.35 325.18 502.679 325.18C503.008 325.18 503.83 325.021 504.16 325.021C504.653 325.021 504.818 325.34 505.476 325.34C506.134 325.34 505.97 325.34 506.792 325.34C507.615 325.499 509.26 325.021 509.589 324.703C509.919 324.384 510.577 323.906 511.07 323.588C511.729 323.269 512.551 322.791 512.88 322.632C513.209 322.473 513.045 322.313 513.045 321.995C513.045 321.676 513.374 321.517 513.538 321.198C513.703 320.88 513.868 320.72 513.703 320.243C513.539 319.765 514.032 319.924 514.361 319.765C514.69 319.446 515.842 319.287 516.171 319.128C516.5 318.968 516.5 318.968 516.336 318.65C516.171 318.331 516.336 317.694 516.5 317.216C516.5 316.738 516.5 316.738 516.336 316.738C516.171 316.738 516.171 316.738 515.842 316.26C515.678 315.783 515.513 315.623 515.513 315.305C515.513 314.986 516.665 314.827 516.994 314.668C517.323 314.508 517.323 314.349 517.817 314.031C518.146 313.712 518.475 313.393 518.639 313.393C518.804 313.234 519.133 313.234 519.627 312.915C520.12 312.756 520.285 312.597 520.449 312.438C520.614 312.278 520.614 312.597 520.943 312.438C521.272 312.278 521.766 311.96 522.259 311.641C522.753 311.323 522.588 310.845 522.259 310.526C521.93 310.208 521.93 310.048 521.93 309.571C521.93 309.093 521.93 309.252 521.766 309.093C521.601 309.093 521.601 308.933 521.766 308.615C521.93 308.296 521.766 308.137 521.766 307.818C521.601 307.659 521.601 307.341 521.601 307.022C521.601 306.703 521.272 306.385 521.107 306.226C520.943 306.066 520.778 305.748 520.614 305.429C520.614 305.111 520.12 305.27 519.956 304.951C519.791 304.633 519.956 303.836 520.12 303.518C520.285 303.199 519.956 302.881 519.791 302.721C519.627 302.562 519.627 301.925 519.956 301.447C520.285 300.969 520.614 300.81 520.943 300.491C521.272 300.332 521.766 299.536 521.93 299.376C522.259 299.217 522.424 298.898 522.424 298.421C522.424 297.943 522.753 298.102 522.917 297.943C523.082 297.783 523.247 297.624 523.247 297.306C523.247 296.987 523.411 296.987 523.74 296.828C524.069 296.668 524.563 296.191 524.727 295.872C524.892 295.554 525.55 295.235 526.208 294.757C526.866 294.439 527.031 293.961 527.031 293.801C527.031 293.642 527.36 293.164 527.854 293.164C528.512 293.005 529.006 292.527 529.335 292.209C529.664 291.89 529.993 291.094 530.322 290.456C530.651 289.819 531.309 289.182 531.145 288.704C530.98 288.226 531.474 287.749 531.803 287.43C532.296 287.111 531.967 286.793 532.132 286.315C532.296 285.837 532.625 285.996 532.79 285.678C532.955 285.359 532.79 284.881 532.79 284.722C532.79 284.563 533.448 284.244 533.448 284.244C533.613 284.085 533.448 283.926 533.119 283.766C532.955 283.607 532.955 283.289 532.79 282.97C532.625 282.651 532.296 282.651 532.132 282.811C531.803 282.97 531.638 283.129 531.309 283.289C530.98 283.448 530.815 283.448 530.651 283.607C530.486 283.766 529.828 283.766 528.841 283.926C527.854 284.085 526.373 284.085 525.55 284.244C524.727 284.404 524.563 284.085 524.234 283.766C523.905 283.448 524.069 283.129 524.069 282.492C524.069 282.014 523.905 281.855 523.576 281.855C523.247 281.855 523.082 281.536 522.753 281.059C522.424 280.421 522.095 280.262 521.601 280.103C521.272 279.944 520.285 279.944 519.956 279.784C519.627 279.625 519.791 279.466 519.627 279.147C519.462 278.829 519.297 278.032 519.133 277.554C518.968 277.077 518.475 276.599 517.981 276.439C517.487 276.28 517.488 275.643 517.488 275.165C517.488 274.687 517.652 274.209 517.488 274.05C517.488 273.891 517.323 273.572 517.488 273.413C517.652 273.254 517.323 273.094 516.994 272.935C516.829 272.935 516.829 272.298 516.829 271.979C516.665 271.661 516.336 271.502 516.171 271.342C515.842 271.183 515.513 271.183 515.348 270.864C515.184 270.705 515.678 270.387 515.678 270.387C515.842 270.387 515.184 270.068 515.019 269.749C514.855 269.431 514.69 269.431 514.526 269.272C514.361 269.112 514.361 269.112 514.361 268.794C514.361 268.475 514.361 268.475 514.197 268.157C514.032 267.838 514.197 267.679 514.032 267.36C513.868 267.042 513.703 266.882 513.703 266.723C513.539 266.564 513.538 266.245 513.374 265.927C513.209 265.449 513.045 265.449 512.88 265.289C512.716 265.13 512.387 264.493 512.222 264.334C512.058 264.015 512.058 263.856 512.387 264.174C512.551 264.334 512.716 264.334 513.045 264.493C513.374 264.652 513.209 264.812 513.374 265.289C513.538 265.767 513.868 265.608 514.032 265.449C514.197 265.289 514.032 264.493 514.197 264.334C514.361 264.015 514.69 264.015 514.526 264.334C514.526 264.652 514.197 264.812 514.361 265.289C514.526 265.767 515.019 265.927 515.348 266.564C515.842 267.042 516.5 267.519 516.829 268.316C517.158 269.112 516.829 269.431 516.994 269.749C517.158 270.068 517.652 269.909 518.146 270.068C518.639 270.227 518.31 270.387 518.475 270.705C518.639 271.024 518.804 271.024 518.968 271.342C519.133 271.661 518.639 272.457 518.804 273.094C518.968 273.732 519.462 274.05 519.956 274.528C520.449 274.847 521.272 275.962 521.437 276.28C521.601 276.599 521.93 277.077 522.095 277.554C522.259 278.032 523.082 278.829 523.082 279.147C523.247 279.466 522.753 279.306 522.753 279.306C522.588 279.306 522.424 279.944 522.588 280.262C522.753 280.581 523.082 280.74 523.411 281.218C523.74 281.696 523.411 282.174 523.74 282.492C524.069 282.811 524.398 282.651 524.892 282.492C525.386 282.333 525.715 282.014 526.044 281.855C526.373 281.696 526.866 281.855 527.36 281.696C527.854 281.536 528.347 281.218 528.841 281.059C529.335 281.059 529.499 280.74 529.828 280.581C530.157 280.262 530.651 280.103 531.309 279.784C531.803 279.466 532.461 279.466 532.79 279.306C533.119 279.147 533.284 278.988 533.448 278.51C533.613 278.032 533.777 278.191 534.106 278.032C534.435 277.873 534.435 277.873 534.6 277.873C534.765 277.873 534.929 277.714 535.258 277.395C535.587 277.077 536.081 277.236 536.41 277.076C536.739 276.917 536.575 276.758 537.233 276.439C537.891 276.28 537.562 276.28 537.562 275.962C537.562 275.643 537.562 275.484 537.726 275.165C538.055 274.847 538.384 275.324 538.714 275.324C539.043 275.324 538.878 275.165 538.878 274.687C538.878 274.209 538.549 273.732 538.384 273.413C538.22 273.094 538.22 272.935 538.549 272.935C538.714 272.776 538.878 273.094 539.207 273.094C539.372 273.094 539.372 272.457 539.207 272.139C539.043 271.661 539.536 271.502 539.701 271.183C539.865 270.705 539.701 270.705 539.372 270.387C539.043 269.909 538.714 269.59 538.549 269.431C538.384 269.431 536.739 269.112 536.575 268.953C536.41 268.794 536.245 267.997 536.245 267.201C536.081 266.564 535.587 266.723 535.423 266.882C535.258 267.042 535.094 267.997 534.6 268.634C534.106 269.272 533.613 268.794 533.119 268.953C532.79 269.112 531.967 269.272 531.803 268.953C531.474 268.634 531.967 268.475 531.967 268.157C531.967 267.679 531.638 267.679 531.309 267.838C530.98 267.997 530.815 268.475 530.651 268.475C530.486 268.475 530.486 267.838 530.816 267.679C531.145 267.519 530.98 267.36 530.816 267.042C530.651 266.723 530.486 267.042 530.157 266.882C529.828 266.723 530.322 266.723 530.157 266.404C529.993 266.086 529.828 266.086 529.499 266.086C529.17 266.086 529.335 265.927 529.006 265.449C528.841 264.971 528.841 265.13 528.347 264.812C527.854 264.493 527.854 264.334 527.689 263.856C527.525 263.537 527.525 263.537 527.689 263.537C527.854 263.537 528.183 263.378 528.183 263.219C528.183 263.06 528.347 262.582 528.676 262.741C529.006 262.9 528.676 263.219 528.841 263.378C529.006 263.537 529.499 263.219 529.828 263.219C530.157 263.378 530.157 263.856 530.322 264.334C530.486 264.812 530.651 265.289 530.98 265.608C531.145 265.767 531.474 265.767 531.967 265.927C532.296 266.086 532.461 266.404 532.955 266.564C533.448 266.723 533.942 266.564 534.435 266.564C534.929 266.564 535.094 265.927 535.423 265.927C535.752 265.927 536.081 266.245 536.41 266.723C536.575 267.201 537.233 267.201 537.562 267.36C537.891 267.519 538.055 267.36 538.549 267.519C539.043 267.679 539.865 267.679 540.524 267.679C541.182 267.679 541.017 267.36 541.346 267.201C541.675 267.042 542.169 267.042 542.663 267.042C543.156 267.042 543.156 267.042 543.65 266.882C544.143 266.723 544.802 266.564 544.966 266.564C545.131 266.564 545.295 267.042 545.46 267.201C545.624 267.36 545.789 267.36 545.789 267.36C545.789 267.519 546.283 267.838 546.612 267.997C546.941 268.157 547.105 268.157 547.434 268.316C547.763 268.475 547.599 268.475 547.928 268.634C548.257 268.794 548.586 268.316 548.751 268.475C548.915 268.475 548.586 268.794 548.422 269.112C548.092 269.431 548.257 269.59 548.422 269.749C548.586 269.909 548.915 269.909 549.08 270.068C549.244 270.227 549.244 270.387 549.573 270.546C549.902 270.705 549.902 270.227 550.067 270.068C550.232 269.749 550.396 269.909 550.561 269.749C550.725 269.431 550.396 269.112 550.232 268.953C550.067 268.794 550.396 268.794 550.561 268.794C550.725 268.794 550.725 269.272 550.725 269.59C550.89 269.749 550.561 270.068 550.561 270.227C550.561 270.387 550.725 270.705 550.89 271.024C551.054 271.342 551.219 272.298 551.383 273.094C551.548 273.891 551.877 274.209 552.042 274.369C552.206 274.687 552.206 275.006 552.371 275.324C552.535 275.643 552.864 275.802 553.029 276.28C553.193 276.758 553.687 277.077 553.852 277.554C554.016 278.032 554.181 278.351 554.345 278.669C554.51 278.988 554.839 279.784 555.332 280.103C555.661 280.581 556.155 281.218 556.155 281.377C556.155 281.696 556.649 282.014 556.813 282.492C556.978 282.97 557.307 282.651 557.636 282.492C557.801 282.333 557.636 282.014 557.801 281.696C557.965 281.377 557.965 281.536 558.13 281.377C558.294 281.218 558.459 281.059 558.459 280.74C558.294 280.581 558.294 280.103 558.623 279.944C558.788 279.625 558.952 279.784 558.952 279.466C558.952 279.147 558.788 278.988 558.623 278.669C558.459 278.351 558.952 277.714 558.788 277.554C558.788 277.395 558.788 276.917 558.788 276.599C558.788 276.28 558.788 276.121 558.623 275.802C558.459 275.643 558.459 275.643 558.459 275.165C558.459 274.687 558.294 274.528 558.294 274.209C558.294 274.05 558.623 273.732 558.788 273.254C558.952 272.935 558.952 272.457 558.952 272.298C558.952 272.139 559.281 271.979 559.446 271.979C559.611 271.82 559.611 271.661 559.611 271.342C559.611 271.024 559.94 270.546 560.104 270.387C560.104 270.068 560.269 269.909 560.269 269.59C560.269 269.272 560.598 269.112 560.433 269.112C560.269 268.953 560.269 268.794 560.433 268.794C560.598 268.794 560.762 268.953 560.762 268.634C560.762 268.316 560.927 268.316 560.927 267.997C560.927 267.679 560.927 267.36 560.927 267.042C560.927 266.564 561.256 266.564 561.421 266.564C561.585 266.564 561.42 266.404 561.585 266.086C561.75 265.767 561.914 265.927 561.914 265.767C561.914 265.608 562.408 265.289 562.572 265.13C562.737 264.971 562.737 265.289 562.901 265.608C563.066 265.927 563.066 265.449 563.395 265.608C563.724 265.608 563.889 266.404 564.053 266.564C564.218 266.723 564.218 266.404 564.382 266.404C564.547 266.564 564.547 266.882 564.711 267.042C564.876 267.201 565.04 267.36 565.205 267.679C565.37 267.997 565.37 267.838 565.534 267.838C565.699 267.838 565.863 268.316 566.028 268.634C566.192 268.953 566.192 270.068 566.357 270.546C566.521 271.024 566.686 271.183 567.015 271.024C567.344 270.864 567.18 270.387 567.18 270.227C567.18 269.909 567.509 269.749 567.344 269.59C567.344 269.431 567.509 269.112 567.673 269.272C567.838 269.59 568.167 270.705 568.331 271.024C568.496 271.342 568.989 271.661 568.989 272.139C568.989 272.617 569.154 273.254 569.319 273.413C569.648 273.732 569.648 274.05 569.812 274.687C569.977 275.324 569.812 275.802 569.648 275.962C569.483 276.121 569.319 276.439 569.483 276.758C569.648 277.077 570.141 277.554 570.306 278.032C570.47 278.51 570.799 278.51 570.964 278.988C571.129 279.466 571.129 280.262 571.293 280.581C571.458 280.899 571.951 282.333 572.445 282.811C575.078 281.059 574.913 280.262 574.913 280.103ZM510.577 250.795C510.248 250.954 509.754 250.954 509.425 250.954C509.096 250.954 508.767 250.954 508.767 250.954C508.602 250.954 508.767 250.795 509.26 250.635C509.589 250.635 509.754 250.635 509.919 250.317C510.248 249.998 510.412 250.157 510.577 250.157C510.741 249.998 510.906 249.998 510.741 250.157C510.741 250.317 510.577 250.317 510.741 250.476C510.906 250.635 511.07 250.635 510.577 250.795ZM521.437 249.68C521.272 249.998 520.778 250.317 520.449 250.157C520.12 250.157 520.12 249.998 519.791 250.157C519.462 250.317 519.133 250.317 518.639 250.317C518.146 250.157 517.817 249.998 517.323 249.839C516.829 249.68 515.842 249.52 515.513 249.52C515.184 249.52 514.361 249.361 514.032 249.52C513.703 249.52 513.538 249.52 513.374 249.839C513.209 250.157 512.716 250.157 512.222 250.157C511.728 250.157 511.235 250.317 510.906 250.317C510.741 250.317 510.577 250.317 510.577 250.157C510.577 249.839 510.577 249.839 510.412 249.839C510.248 249.839 510.248 249.68 510.248 249.68C510.248 249.361 510.412 249.042 510.412 248.883C510.412 248.724 510.906 248.087 510.906 247.768C511.07 247.45 511.564 246.972 511.729 246.812C511.893 246.653 512.222 246.494 512.387 246.335C512.551 246.175 512.716 246.016 512.88 245.857C513.045 245.538 513.374 245.379 513.538 245.379C513.703 245.22 514.361 245.538 514.361 245.697C514.526 245.857 514.526 246.016 514.361 246.175C514.197 246.335 513.868 246.494 514.197 246.653C514.361 246.812 514.69 246.653 514.855 246.653C515.019 246.653 515.019 246.972 515.019 247.131C515.019 247.29 515.019 247.609 515.348 247.45C515.678 247.29 515.842 247.131 516.171 247.131C516.5 247.131 517.158 247.29 517.158 246.972C517.158 246.812 517.158 246.494 516.994 246.494C516.829 246.494 516.336 246.653 516.336 246.494C516.171 246.335 516.171 246.335 515.842 246.335C515.513 246.335 515.513 245.857 515.842 245.697C516.007 245.538 516.5 245.857 516.829 245.697C517.158 245.538 517.323 245.379 517.488 245.379C517.652 245.379 517.981 245.379 518.146 245.06C518.475 244.901 518.804 244.742 518.968 244.901C519.133 245.06 519.297 245.22 519.133 245.22C518.968 245.22 518.639 245.379 518.475 245.538C518.31 245.697 518.146 245.697 518.31 245.857C518.475 246.016 518.475 246.175 518.475 246.175C518.31 246.175 518.475 246.494 518.475 246.494C518.475 246.494 518.31 246.653 518.146 246.494C517.981 246.494 517.817 246.335 517.817 246.494C517.652 246.653 517.488 246.812 517.817 246.972C518.146 246.972 518.804 247.131 519.133 247.45C519.462 247.768 519.627 248.087 519.956 248.405C520.12 248.724 520.778 248.565 521.107 249.042C521.437 248.724 521.601 249.361 521.437 249.68ZM533.119 254.14C533.119 254.299 532.79 254.458 532.625 254.299C532.461 254.14 532.132 253.821 531.967 253.98C531.803 253.98 531.474 254.299 531.145 254.458C530.98 254.777 530.815 254.777 530.651 254.617C530.486 254.458 529.828 253.98 529.499 253.821C529.006 253.662 528.841 253.98 528.676 253.662C528.512 253.343 528.347 252.865 528.347 252.547C528.183 252.228 528.347 252.069 528.512 251.91C528.676 251.91 528.841 252.069 529.006 251.91C529.17 251.75 529.006 251.591 529.17 251.591C529.335 251.432 529.499 251.432 529.499 251.272C529.499 251.113 529.17 250.954 529.335 250.795C529.499 250.635 529.664 250.795 529.664 250.476C529.499 250.317 529.499 249.998 529.17 249.998C528.841 249.998 529.006 249.998 528.676 249.839C528.512 249.68 528.512 249.52 528.347 249.52C528.018 249.52 528.018 249.68 527.854 249.52C527.689 249.361 527.854 249.202 527.525 248.883C527.196 248.724 527.196 248.724 527.031 248.405C527.031 248.087 526.866 247.768 527.031 247.768C527.196 247.609 527.196 247.45 526.866 247.45C526.702 247.45 526.537 247.609 526.537 247.609H526.373C526.373 247.45 526.373 247.45 526.373 247.131C526.373 246.972 526.044 246.972 525.879 246.653C525.715 246.335 525.879 246.016 526.044 245.697C526.208 245.538 526.702 245.06 527.031 244.742C527.196 244.423 527.36 244.264 527.854 244.105C528.183 243.945 528.676 243.627 528.841 243.627C529.006 243.627 529.499 243.786 529.664 243.786C529.828 243.786 530.157 243.945 530.322 244.264C530.322 244.582 529.993 244.742 530.157 245.06C530.322 245.379 530.322 245.379 530.486 245.379C530.651 245.538 530.651 245.697 530.486 245.697C530.322 245.697 530.322 245.697 530.157 245.538C529.993 245.379 529.828 245.22 529.828 245.379C529.828 245.379 529.828 245.697 529.664 245.697C529.499 245.697 529.17 245.697 529.17 245.697C529.335 245.857 529.499 245.857 529.499 246.016C529.499 246.175 529.335 246.175 529.17 246.335C529.006 246.335 528.676 246.653 529.17 246.812C529.664 247.131 529.828 247.131 529.993 247.45C530.322 247.927 530.157 248.087 530.486 247.927C530.815 247.927 531.309 247.768 531.145 247.927C530.98 248.087 530.651 248.087 530.651 248.246C530.651 248.405 530.486 248.724 530.816 249.202C530.98 249.52 531.145 249.52 531.309 249.52C531.474 249.52 531.474 249.361 531.474 249.202C531.309 249.042 531.145 248.565 531.309 248.565C531.638 248.565 531.474 248.883 531.638 249.042C531.638 249.202 532.132 249.52 532.132 249.68C532.132 249.839 532.132 249.998 531.803 249.839C531.474 249.839 531.145 249.68 531.145 249.998C531.145 250.317 531.145 250.476 531.309 250.635C531.474 250.795 531.967 250.795 531.803 250.954C531.638 251.113 531.474 250.954 531.474 251.272C531.638 251.591 531.803 251.432 532.132 251.75C532.461 252.069 532.296 252.228 532.461 252.706C532.625 253.184 532.79 253.343 532.79 253.502C532.79 253.662 533.119 253.98 533.119 254.14Z" fill="white"/>
<path d="M510.741 250.476C510.577 250.317 510.577 250.317 510.741 250.157C510.741 249.998 510.741 250.157 510.577 250.157C510.412 250.317 510.247 250.157 509.918 250.317C509.589 250.635 509.589 250.635 509.26 250.635C508.931 250.635 508.767 250.954 508.767 250.954C508.767 250.954 508.931 250.954 509.425 250.954C509.754 250.954 510.247 250.795 510.577 250.795C511.07 250.635 510.906 250.635 510.741 250.476Z" fill="white"/>
<path d="M493.958 150.445L486.06 150.605C485.731 149.171 485.402 147.738 484.908 146.463L491.819 142.64V142.481L488.857 137.543L485.895 132.606V132.446L478.985 136.269C477.997 135.154 477.01 134.198 475.858 133.243L479.807 126.553H479.643L474.542 123.686L469.441 120.818H469.277L465.327 127.508C464.011 127.031 462.53 126.553 461.049 126.393V118.589H460.885H455.126L449.367 118.748V118.589V126.393C447.557 126.712 446.405 127.031 444.924 127.508L440.975 120.818L430.609 126.553L434.558 133.243C433.406 134.198 432.254 135.154 431.267 136.269L424.356 132.446L418.268 142.481L425.179 146.304C424.685 147.738 424.356 149.171 424.027 150.605H416.129V162.232H424.027C424.356 163.666 424.685 165.1 425.179 166.533L418.268 170.356L424.192 180.391L431.103 176.568C432.09 177.683 433.077 178.798 434.229 179.754L430.28 186.444L440.646 192.178L444.595 185.488C446.076 185.966 447.557 186.284 449.038 186.603V194.249H461.049V186.603C462.53 186.284 464.011 185.966 465.492 185.488L469.441 192.178L479.807 186.444L475.858 179.754C477.01 178.798 477.997 177.683 479.149 176.727L486.06 180.55L491.983 170.515L485.073 166.692C485.566 165.418 485.895 163.985 486.224 162.551H494.122V162.87V156.817L493.958 150.445ZM468.618 144.87C471.416 147.897 473.061 151.879 473.061 156.339C473.061 166.055 464.998 173.86 454.961 173.86C444.924 173.86 436.862 166.055 436.862 156.339C436.862 146.623 444.924 138.818 454.961 138.818C456.278 138.818 457.594 138.977 458.91 139.295C462.859 139.933 466.15 142.003 468.618 144.87Z" fill="#292B37"/>
<path d="M475.035 137.066L468.618 144.87C471.415 147.897 473.061 151.879 473.061 156.339C473.061 166.055 464.998 173.86 454.961 173.86C444.924 173.86 436.861 166.055 436.861 156.339C436.861 146.623 444.924 138.818 454.961 138.818C456.278 138.818 457.594 138.977 458.91 139.296L463.188 130.216C460.556 129.42 457.758 129.101 454.961 129.101C439.33 129.101 426.66 141.366 426.66 156.498C426.66 171.63 439.33 183.895 454.961 183.895C470.593 183.895 483.263 171.63 483.263 156.498C483.263 148.853 480.136 142.003 475.035 137.066Z" fill="#3F434F"/>
<path d="M78.4869 275.802V275.484H70.4243C70.0953 274.05 69.6016 272.616 69.2725 271.342L76.1833 267.519L76.0188 267.36L73.057 262.422L70.0953 257.484V257.325L63.1845 261.148C62.1972 260.033 61.2099 259.077 60.0581 258.122L64.0072 251.432H63.8426L58.7418 248.565L53.641 245.697H53.4764L49.5274 252.387C48.2111 251.909 46.7302 251.75 45.2493 251.432V243.945H45.4138H39.1612L32.9086 243.467V243.945V251.272C32.0859 251.591 30.1113 251.909 28.795 252.387L24.846 245.697L14.4798 251.432L18.4288 258.122C17.277 259.077 16.2897 260.033 15.1379 261.148L8.22714 257.325L2.13906 267.36L9.04986 271.183C8.55623 272.617 8.22715 274.05 7.89806 275.484H0V287.111H7.89806C8.22715 288.545 8.55623 289.978 9.04986 291.412L2.13906 295.235L8.0626 305.27L14.9734 301.447C15.9607 302.562 16.9479 303.518 18.0997 304.633L14.1507 311.323L24.5169 317.057L28.4659 310.367C29.9468 310.845 31.4277 311.163 32.9086 311.482V319.128H44.9202V311.482C46.4011 311.163 47.882 310.845 49.3629 310.367L53.3119 317.057L63.6781 311.323L59.7291 304.633C60.8809 303.677 61.8681 302.562 63.0199 301.606L69.9307 305.429L75.8543 295.394L68.9435 291.571C69.4371 290.297 69.9307 288.864 70.2598 287.43H78.4869V287.271H78.1579V281.696V276.121H78.4869V275.802ZM52.8183 269.749C55.6155 272.776 57.2609 276.758 57.2609 281.218C57.2609 290.934 49.1983 298.739 39.1612 298.739C29.1241 298.739 21.0615 290.934 21.0615 281.218C21.0615 271.501 29.1241 263.697 39.1612 263.697C40.4775 263.697 41.7939 263.856 43.1102 264.174C47.0592 264.812 50.3501 266.882 52.8183 269.749Z" fill="#3F434F"/>
<path d="M59.2355 261.945L52.8183 269.749C55.6156 272.776 57.261 276.758 57.261 281.218C57.261 290.934 49.1984 298.739 39.1613 298.739C29.1241 298.739 21.0615 290.934 21.0615 281.218C21.0615 271.502 29.1241 263.697 39.1613 263.697C40.4776 263.697 41.7939 263.856 43.1103 264.175L47.3884 255.095C44.7557 254.299 41.9585 253.98 39.1613 253.98C23.5297 253.98 10.8599 266.245 10.8599 281.377C10.8599 296.509 23.5297 308.774 39.1613 308.774C54.7928 308.774 67.4627 296.509 67.4627 281.377C67.4627 273.732 64.3363 266.882 59.2355 261.945Z" fill="#292B37"/>
<path d="M59.729 175.453H47.7174C25.175 175.453 6.74622 157.773 6.74622 135.791V130.535C6.74622 108.713 25.0105 90.873 47.7174 90.873H59.729C82.2714 90.873 100.7 108.554 100.7 130.535V135.791C100.7 157.773 82.4359 175.453 59.729 175.453Z" fill="white"/>
<path d="M100.7 114.606H6.91077V151.72H100.7V114.606Z" fill="#3F434F"/>
<path d="M74.1906 152.918C85.4357 142.033 85.4357 124.383 74.1906 113.498C62.9456 102.612 44.7138 102.612 33.4687 113.498C22.2237 124.383 22.2237 142.033 33.4687 152.918C44.7138 163.804 62.9456 163.804 74.1906 152.918Z" fill="#DCE7F4"/>
<path d="M63.1099 154.86C75.5358 149.878 81.4365 136.087 76.2894 124.058C71.1423 112.03 56.8965 106.317 44.4706 111.3C32.0446 116.283 26.144 130.073 31.2911 142.102C36.4382 154.131 50.6839 159.843 63.1099 154.86Z" fill="#90959B"/>
<path d="M74.1632 137.849C76.8153 126.976 69.8602 116.081 58.6284 113.513C47.3967 110.946 36.1415 117.679 33.4894 128.552C30.8372 139.425 37.7924 150.32 49.0242 152.887C60.256 155.455 71.5111 148.722 74.1632 137.849Z" fill="#2B3A47"/>
<path d="M66.212 135.976C67.8409 129.299 63.5692 122.607 56.6709 121.03C49.7727 119.453 42.8601 123.588 41.2312 130.266C39.6023 136.944 43.874 143.636 50.7723 145.212C57.6705 146.789 64.5831 142.654 66.212 135.976Z" fill="#797E84"/>
<path d="M52.6537 123.845C52.6537 127.668 49.5274 130.694 45.5784 130.694C41.6294 130.694 38.5031 127.668 38.5031 123.845C38.5031 120.022 41.6294 116.996 45.5784 116.996C49.5274 116.996 52.6537 120.022 52.6537 123.845Z" fill="white"/>
<path d="M41.7938 134.198C41.7938 135.473 40.8066 136.428 39.4902 136.428C38.1739 136.428 37.1866 135.473 37.1866 134.198C37.1866 132.924 38.1739 131.968 39.4902 131.968C40.8066 131.968 41.7938 132.924 41.7938 134.198Z" fill="white"/>
<path d="M46.7302 121.615C46.7302 123.208 45.4138 124.641 43.6039 124.641C41.9584 124.641 40.4775 123.367 40.4775 121.615C40.4775 120.022 41.7939 118.589 43.6039 118.589C45.2493 118.589 46.7302 119.863 46.7302 121.615Z" fill="#F8FFDC"/>
<path d="M64.1718 146.463C66.5345 146.463 68.4499 144.609 68.4499 142.322C68.4499 140.035 66.5345 138.18 64.1718 138.18C61.809 138.18 59.8937 140.035 59.8937 142.322C59.8937 144.609 61.809 146.463 64.1718 146.463Z" fill="white"/>
<path d="M28.795 108.076H17.4415C15.6315 108.076 13.9861 106.642 13.9861 104.731C13.9861 102.979 15.467 101.386 17.4415 101.386H28.795C30.6049 101.386 32.2504 102.819 32.2504 104.731C32.0858 106.483 30.6049 108.076 28.795 108.076Z" fill="#EC610E"/>
<path d="M416.458 206.036L398.687 267.838L343.072 252.865L364.463 178.479L407.902 190.107L416.458 206.036Z" fill="#FCFCFC"/>
<path d="M416.458 206.036L413.003 218.141L404.117 202.85L409.054 198.709L416.458 206.036Z" fill="#CAD9DD"/>
<path d="M416.458 206.036L404.117 202.85L407.902 190.107L416.458 206.036Z" fill="#E2EAED"/>
<path d="M384.404 195.632L368.709 191.411L367.74 194.787L383.435 199.008L384.404 195.632Z" fill="#DD7352"/>
<path d="M406.526 213.52L365.465 202.476L364.716 205.085L405.777 216.129L406.526 213.52Z" fill="#19B2B8"/>
<path d="M404.883 219.083L363.822 208.04L363.073 210.649L404.135 221.693L404.883 219.083Z" fill="#19B2B8"/>
<path d="M403.399 224.69L362.338 213.646L361.589 216.255L402.65 227.299L403.399 224.69Z" fill="#19B2B8"/>
<path d="M401.756 230.253L360.695 219.209L359.946 221.818L401.007 232.862L401.756 230.253Z" fill="#19B2B8"/>
<path d="M400.113 235.817L359.052 224.773L358.303 227.382L399.364 238.426L400.113 235.817Z" fill="#19B2B8"/>
<path d="M398.47 241.38L357.409 230.336L356.66 232.945L397.721 243.989L398.47 241.38Z" fill="#19B2B8"/>
<path d="M396.942 247.14L355.881 236.096L355.132 238.705L396.193 249.749L396.942 247.14Z" fill="#19B2B8"/>
<path d="M96.9157 330.118L84.0813 337.923C78.4869 341.268 71.0824 339.675 67.627 334.26L66.8043 332.985C63.3489 327.57 64.9944 320.402 70.5888 317.057L83.4232 309.252C89.0176 305.907 96.4221 307.5 99.8775 312.916L100.7 314.19C104.156 319.446 102.51 326.614 96.9157 330.118Z" fill="#EC610E"/>
<path d="M91.1568 319.287L83.7524 332.667L75.3607 319.765L91.1568 319.287Z" fill="white"/>
</svg>
