<svg width="15" height="14" viewBox="0 0 15 14" fill="none" xmlns="http://www.w3.org/2000/svg">
<path d="M1.12401 2.1279C-0.381208 3.82358 -0.381208 5.34534 1.16362 7.04101C2.19351 8.17147 2.58962 8.34538 3.73834 8.12799C4.49095 7.99755 5.12472 7.95407 5.12472 8.08451C5.12472 8.78017 3.77795 10.9106 2.74806 11.8672C0.846734 13.6498 1.32207 14.6498 3.38184 13.215C4.96628 12.0411 6.35266 8.99756 6.59033 6.12796C6.78839 3.64966 6.74878 3.43227 5.60006 2.21486C4.05523 0.475704 2.66884 0.475704 1.12401 2.1279Z" fill="#222831"/>
<path d="M9.44237 2.1279C7.93715 3.82358 7.93715 5.34534 9.48198 7.04101C10.5119 8.17147 10.908 8.34538 12.0567 8.12799C12.8093 7.99755 13.4431 7.95407 13.4431 8.08451C13.4431 8.78017 12.0963 10.9106 11.0664 11.8672C9.16509 13.6498 9.64043 14.6498 11.7002 13.215C13.2846 12.0411 14.671 8.99756 14.9087 6.12796C15.1067 3.64966 15.0671 3.43227 13.9184 2.21486C12.3736 0.475704 10.9872 0.475704 9.44237 2.1279Z" fill="#222831"/>
</svg>
