<svg width="295" height="260" viewBox="0 0 295 260" fill="none" xmlns="http://www.w3.org/2000/svg">
<path d="M8.84503 8.84894H1.3833V1.64734H8.84503V8.84894Z" stroke="#8B8F91" stroke-width="1.43764" stroke-miterlimit="10"/>
<path d="M65.8768 8.84894H58.4131V1.64734H65.8768V8.84894Z" stroke="#8B8F91" stroke-width="1.43764" stroke-miterlimit="10"/>
<path d="M122.906 8.84894H115.445V1.64734H122.906V8.84894Z" stroke="#8B8F91" stroke-width="1.43764" stroke-miterlimit="10"/>
<path d="M179.938 8.84894H172.477V1.64734H179.938V8.84894Z" stroke="#8B8F91" stroke-width="1.43764" stroke-miterlimit="10"/>
<path d="M236.97 8.84894H229.506V1.64734H236.97V8.84894Z" stroke="#8B8F91" stroke-width="1.43764" stroke-miterlimit="10"/>
<path d="M294 8.84894H286.538V1.64734H294V8.84894Z" stroke="#8B8F91" stroke-width="1.43764" stroke-miterlimit="10"/>
<path d="M8.84503 48.9619H1.3833V41.7621H8.84503V48.9619Z" stroke="#8B8F91" stroke-width="1.43764" stroke-miterlimit="10"/>
<path d="M65.8768 48.9619H58.4131V41.7621H65.8768V48.9619Z" stroke="#FF2E63" stroke-width="1.43764" stroke-miterlimit="10"/>
<path d="M122.906 48.9619H115.445V41.7621H122.906V48.9619Z" stroke="#8B8F91" stroke-width="1.43764" stroke-miterlimit="10"/>
<path d="M179.938 48.9619H172.477V41.7621H179.938V48.9619Z" stroke="#8B8F91" stroke-width="1.43764" stroke-miterlimit="10"/>
<path d="M236.97 48.9619H229.506V41.7621H236.97V48.9619Z" stroke="#8B8F91" stroke-width="1.43764" stroke-miterlimit="10"/>
<path d="M294 48.9619H286.538V41.7621H294V48.9619Z" stroke="#8B8F91" stroke-width="1.43764" stroke-miterlimit="10"/>
<path d="M8.84503 89.0767H1.3833V81.8769H8.84503V89.0767Z" stroke="#8B8F91" stroke-width="1.43764" stroke-miterlimit="10"/>
<path d="M65.8768 89.0767H58.4131V81.8769H65.8768V89.0767Z" stroke="#8B8F91" stroke-width="1.43764" stroke-miterlimit="10"/>
<path d="M122.906 89.0767H115.445V81.8769H122.906V89.0767Z" stroke="#8B8F91" stroke-width="1.43764" stroke-miterlimit="10"/>
<path d="M179.938 89.0767H172.477V81.8769H179.938V89.0767Z" stroke="#FF2E63" stroke-width="1.43764" stroke-miterlimit="10"/>
<path d="M236.97 89.0767H229.506V81.8769H236.97V89.0767Z" stroke="#8B8F91" stroke-width="1.43764" stroke-miterlimit="10"/>
<path d="M294 89.0767H286.538V81.8769H294V89.0767Z" stroke="#8B8F91" stroke-width="1.43764" stroke-miterlimit="10"/>
<path d="M8.84503 129.192H1.3833V121.992H8.84503V129.192Z" stroke="#8B8F91" stroke-width="1.43764" stroke-miterlimit="10"/>
<path d="M65.8768 129.192H58.4131V121.992H65.8768V129.192Z" stroke="#8B8F91" stroke-width="1.43764" stroke-miterlimit="10"/>
<path d="M122.906 129.192H115.445V121.992H122.906V129.192Z" stroke="#8B8F91" stroke-width="1.43764" stroke-miterlimit="10"/>
<path d="M179.938 129.192H172.477V121.992H179.938V129.192Z" stroke="#8B8F91" stroke-width="1.43764" stroke-miterlimit="10"/>
<path d="M236.97 129.192H229.506V121.992H236.97V129.192Z" stroke="#8B8F91" stroke-width="1.43764" stroke-miterlimit="10"/>
<path d="M294 129.192H286.538V121.992H294V129.192Z" stroke="#8B8F91" stroke-width="1.43764" stroke-miterlimit="10"/>
<path d="M8.84503 169.306H1.3833V162.105H8.84503V169.306Z" stroke="#8B8F91" stroke-width="1.43764" stroke-miterlimit="10"/>
<path d="M65.8768 169.306H58.4131V162.105H65.8768V169.306Z" fill="#171823"/>
<path d="M122.906 169.306H115.445V162.105H122.906V169.306Z" fill="#171823"/>
<path d="M179.938 169.306H172.477V162.105H179.938V169.306Z" stroke="#8B8F91" stroke-width="1.43764" stroke-miterlimit="10"/>
<path d="M236.97 169.306H229.506V162.105H236.97V169.306Z" stroke="#FF2E63" stroke-width="1.43764" stroke-miterlimit="10"/>
<path d="M294 169.306H286.538V162.105H294V169.306Z" stroke="#8B8F91" stroke-width="1.43764" stroke-miterlimit="10"/>
<path d="M8.84503 209.419H1.3833V202.219H8.84503V209.419Z" stroke="#8B8F91" stroke-width="1.43764" stroke-miterlimit="10"/>
<path d="M65.8768 209.419H58.4131V202.219H65.8768V209.419Z" stroke="#8B8F91" stroke-width="1.43764" stroke-miterlimit="10"/>
<path d="M122.906 209.419H115.445V202.219H122.906V209.419Z" stroke="#8B8F91" stroke-width="1.43764" stroke-miterlimit="10"/>
<path d="M179.938 209.419H172.477V202.219H179.938V209.419Z" fill="#171823"/>
<path d="M236.97 209.419H229.506V202.219H236.97V209.419Z" stroke="#8B8F91" stroke-width="1.43764" stroke-miterlimit="10"/>
<path d="M294 209.419H286.538V202.219H294V209.419Z" stroke="#8B8F91" stroke-width="1.43764" stroke-miterlimit="10"/>
<path d="M8.84503 249.534H1.3833V242.334H8.84503V249.534Z" stroke="#8B8F91" stroke-width="1.43764" stroke-miterlimit="10"/>
<path d="M65.8768 249.534H58.4131V242.334H65.8768V249.534Z" stroke="#8B8F91" stroke-width="1.43764" stroke-miterlimit="10"/>
<path d="M122.906 249.534H115.445V242.334H122.906V249.534Z" stroke="#8B8F91" stroke-width="1.43764" stroke-miterlimit="10"/>
<path d="M179.938 249.534H172.477V242.334H179.938V249.534Z" stroke="#8B8F91" stroke-width="1.43764" stroke-miterlimit="10"/>
<path d="M236.97 259.534H229.506V252.334H236.97V259.534Z" fill="#171823"/>
<path d="M294 249.534H286.538V242.334H294V249.534Z" stroke="#8B8F91" stroke-width="1.43764" stroke-miterlimit="10"/>
</svg>
