<svg width="276" height="92" viewBox="0 0 276 92" fill="none" xmlns="http://www.w3.org/2000/svg">
<path d="M135.693 91.0987V90.9654H131.693V90.832H129.426V90.6987H127.693V90.5654H125.826V90.432H124.093V90.2987H122.893V90.1654H121.826V90.032H120.759V89.8987H119.693V89.7654H118.759V89.632H117.693V89.4987H116.626V89.3654H115.959V89.232H115.159V89.0987H114.359V88.9654H113.693V88.832H112.893V88.6987H112.226V88.5654H111.426V88.432H110.626V88.2987H109.959V88.1654H109.293V88.032H108.759V87.8987H108.226V87.7654H107.559V87.632H107.026V87.4987H106.493V87.3654H105.826V87.232H105.293V87.0987H104.759V86.9654H104.093V86.832H103.559V86.6987H103.026V86.5654H102.626V86.432H102.093V86.2987H101.693V86.1654H101.159V86.032H100.759V85.8987H100.226V85.7654H99.826V85.632H99.2926V85.4987H98.7593V85.3654H98.3593V85.232H97.826V85.0987H97.426V84.9654H96.8926V84.832H96.4926V84.6987H96.0926V84.5654H95.6926V84.432H95.2926V84.2987H94.8926V84.1654H94.4926V84.032H94.0926V83.8987H93.6926V83.7654H93.426V83.632H93.026V83.4987H92.626V83.3654H92.226V83.232H91.826V83.0987H91.426V82.9654H91.026V82.832H90.626V82.6987H90.226V82.5654H89.826V82.432H89.5593V82.2987H89.1593V82.1654H88.8926V82.032H88.4926V81.8987H88.226V81.7654H87.826V81.632H87.5593V81.4987H87.1593V81.3654H86.8926V81.232H86.4926V81.0987H86.226V80.9654H85.826V80.832H85.426V80.6987H85.1593V80.5654H84.7593V80.432H84.4926V80.2987H84.0926V80.1654H83.826V80.032H83.5593V79.8987H83.2926V79.7654H82.8926V79.632H82.626V79.4987H82.3593V79.3654H82.0926V79.232H81.826V79.0987H81.426V78.9654H81.1593V78.832H80.8926V78.6987H80.626V78.5654H80.226V78.432H79.9593V78.2987H79.6926V78.1654H79.426V78.032H79.1593V77.8987H78.7593V77.7654H78.4926V77.632H78.226V77.4987H77.9593V77.3654H77.6926V77.232H77.426V77.0987H77.1593V76.9654H76.8926V76.832H76.626V76.6987H76.3593V76.5654H76.0926V76.432H75.826V76.2987H75.5593V76.1654H75.2926V76.032H75.026V75.8987H74.7593V75.7654H74.4926V75.632H74.226V75.4987H73.9593V75.3654H73.826V75.232H73.5593V75.0987H73.2926V74.9654H73.026V74.832H72.7593V74.6987H72.4926V74.5654H72.226V74.432H71.9593V74.2987H71.6926V74.1654H71.426V74.032H71.2926V73.8987H71.026V73.7654H70.7593V73.632H70.4926V73.4987H70.3593V73.3654H70.0926V73.232H69.826V73.0987H69.5593V72.9654H69.426V72.832H69.1593V72.6987H68.8926V72.5654H68.7593V72.432H68.4926V72.2987H68.226V72.1654H67.9593V72.032H67.826V71.8987H67.5593V71.7654H67.2926V71.632H67.026V71.4987H66.8926V71.3654H66.626V71.232H66.3593V71.0987H66.0926V70.9654H65.9593V70.832H65.6926V70.6987H65.5593V70.5654H65.2926V70.432H65.1593V70.2987H64.8926V70.1654H64.7593V70.032H64.4926V69.8987H64.226V69.7654H64.0926V69.632H63.826V69.4987H63.6926V69.3654H63.426V69.232H63.2926V69.0987H63.026V68.9654H62.7593V68.832H62.626V68.6987H62.3593V68.5654H62.226V68.432H61.9593V68.2987H61.826V68.1654H61.5593V68.032H61.426V67.8987H61.1593V67.7654H60.8926V67.632H60.7593V67.4987H60.4926V67.3654H60.3593V67.232H60.226V67.0987H59.9593V66.9654H59.826V66.832H59.5593V66.6987H59.426V66.5654H59.2926V66.432H59.026V66.2987H58.8926V66.1654H58.626V66.032H58.4926V65.8987H58.226V65.7654H58.0926V65.632H57.9593V65.4987H57.6926V65.3654H57.5593V65.232H57.2926V65.0987H57.1593V64.9654H57.026V64.832H56.7593V64.6987H56.626V64.5654H56.3593V64.432H56.226V64.2987H56.0926V64.1654H55.826V64.032H55.6926V63.8987H55.426V63.7654H55.2926V63.632H55.1593V63.4987H54.8926V63.3654H54.7593V63.232H54.626V63.0987H54.4926V62.9654H54.226V62.832H54.0926V62.6987H53.9593V62.5654H53.6926V62.432H53.5593V62.2987H53.426V62.1654H53.2926V62.032H53.026V61.8987H52.8926V61.7654H52.7593V61.632H52.626V61.4987H52.3593V61.3654H52.226V61.232H52.0926V61.0987H51.826V60.9654H51.6926V60.832H51.5593V60.6987H51.426V60.5654H51.1593V60.432H51.026V60.2987H50.8926V60.1654H50.7593V60.032H50.4926V59.8987H50.3593V59.7654H50.226V59.632H49.9593V59.4987H49.826V59.3654H49.6926V59.232H49.5593V59.0987H49.426V58.9654H49.2926V58.832H49.026V58.6987H48.8926V58.5654H48.7593V58.432H48.626V58.2987H48.4926V58.1654H48.3593V58.032H48.226V57.8987H47.9593V57.7654H47.826V57.632H47.6926V57.4987H47.5593V57.3654H47.426V57.232H47.2926V57.0987H47.026V56.9654H46.8926V56.832H46.7593V56.6987H46.626V56.5654H46.4926V56.432H46.3593V56.2987H46.226V56.1654H45.9593V56.032H45.826V55.8987H45.6926V55.7654H45.5593V55.632H45.426V55.4987H45.2926V55.3654H45.026V55.232H44.8926V55.0987H44.7593V54.9654H44.626V54.832H44.4926V54.6987H44.3593V54.5654H44.226V54.432H44.0926V54.2987H43.9593V54.1654H43.826V54.032H43.6926V53.8987H43.5593V53.7654H43.426V53.632H43.2926V53.4987H43.1593V53.3654H43.026V53.232H42.8926V53.0987H42.7593V52.9654H42.4926V52.832H42.3593V52.6987H42.226V52.5654H42.0926V52.432H41.9593V52.2987H41.826V52.1654H41.6926V52.032H41.5593V51.8987H41.426V51.7654H41.2926V51.632H41.1593V51.4987H41.026V51.3654H40.8926V51.232H40.7593V51.0987H40.626V50.9654H40.4926V50.832H40.3593V50.6987H40.226V50.5654H40.0926V50.432H39.9593V50.2987H39.826V50.1654H39.6926V50.032H39.5593V49.8987H39.426V49.7654H39.2926V49.632H39.1593V49.4987H39.026V49.3654H38.8926V49.232H38.7593V49.0987H38.626V48.9654H38.4926V48.832H38.3593V48.6987H38.226V48.5654H38.0926V48.432H37.9593V48.2987H37.826V48.1654H37.6926V47.8987H37.5593V47.7654H37.426V47.632H37.2926V47.4987H37.1593V47.3654H37.026V47.232H36.8926V47.0987H36.7593V46.9654H36.626V46.832H36.4926V46.6987H36.3593V46.5654H36.226V46.432H36.0926V46.2987H35.9593V46.1654H35.826V46.032H35.6926V45.8987H35.5593V45.7654H35.426V45.4987H35.2926V45.3654H35.1593V45.232H35.026V45.0987H34.8926V44.9654H34.7593V44.832H34.626V44.6987H34.4926V44.432H34.3593V44.2987H34.226V44.1654H34.0926V44.032H33.9593V43.8987H33.826V43.7654H33.6926V43.4987H33.5593V43.3654H33.426V43.232H33.2926V43.0987H33.1593V42.9654H33.026V42.832H32.8926V42.6987H32.7593V42.432H32.626V42.2987H32.4926V42.1654H32.3593V42.032H32.226V41.8987H32.0926V41.7654H31.9593V41.4987H31.826V41.3654H31.6926V41.232H31.5593V41.0987H31.426V40.9654H31.2926V40.832H31.1593V40.5654H31.026V40.432H30.8926V40.2987H30.7593V40.1654H30.626V39.8987H30.4926V39.7654H30.3593V39.632H30.226V39.3654H30.0926V39.232H29.9593V39.0987H29.826V38.9654H29.6926V38.6987H29.5593V38.5654H29.426V38.432H29.2926V38.2987H29.1593V38.032H29.026V37.8987H28.8926V37.7654H28.7593V37.4987H28.626V37.3654H28.4926V37.232H28.3593V37.0987H28.226V36.832H28.0926V36.6987H27.9593V36.5654H27.826V36.432H27.6926V36.1654H27.5593V36.032H27.426V35.8987H27.2926V35.632H27.1593V35.4987H27.026V35.3654H26.8926V35.0987H26.7593V34.9654H26.626V34.832H26.4926V34.5654H26.3593V34.432H26.226V34.1654H26.0926V34.032H25.9593V33.8987H25.826V33.632H25.6926V33.4987H25.5593V33.232H25.426V33.0987H25.2926V32.832H25.1593V32.6987H25.026V32.5654H24.8926V32.2987H24.7593V32.1654H24.626V31.8987H24.4926V31.7654H24.3593V31.632H24.226V31.3654H24.0926V31.232H23.9593V30.9654H23.826V30.832H23.6926V30.6987H23.5593V30.432H23.426V30.2987H23.2926V30.032H23.1593V29.8987H23.026V29.632H22.8926V29.4987H22.7593V29.232H22.626V29.0987H22.4926V28.832H22.3593V28.5654H22.226V28.432H22.0926V28.1654H21.9593V28.032H21.826V27.7654H21.6926V27.632H21.5593V27.3654H21.426V27.0987H21.2926V26.9654H21.1593V26.6987H21.026V26.5654H20.8926V26.2987H20.7593V26.1654H20.626V25.8987H20.4926V25.7654H20.3593V25.4987H20.226V25.232H20.0926V25.0987H19.9593V24.832H19.826V24.6987H19.6926V24.432H19.5593V24.1654H19.426V24.032H19.2926V23.7654H19.1593V23.4987H19.026V23.232H18.8926V23.0987H18.7593V22.832H18.626V22.5654H18.4926V22.2987H18.3593V22.1654H18.226V21.8987H18.0926V21.632H17.9593V21.4987H17.826V21.232H17.6926V20.9654H17.5593V20.6987H17.426V20.5654H17.2926V20.2987H17.1593V20.032H17.026V19.7654H16.8926V19.632H16.7593V19.3654H16.626V19.0987H16.4926V18.832H16.3593V18.6987H16.226V18.432H16.0926V18.1654H15.9593V17.8987H15.826V17.632H15.6926V17.3654H15.5593V17.0987H15.426V16.832H15.2926V16.5654H15.1593V16.2987H15.026V16.032H14.8926V15.7654H14.7593V15.4987H14.626V15.232H14.4926V14.9654H14.3593V14.6987H14.226V14.432H14.0926V14.1654H13.9593V13.8987H13.826V13.632H13.6926V13.3654H13.5593V13.232H13.426V12.9654H13.2926V12.5654H13.1593V12.2987H13.026V12.032H12.8926V11.7654H12.7593V11.4987H12.626V11.0987H12.4926V10.832H12.3593V10.5654H12.226V10.2987H12.0926V10.032H11.9593V9.63203H11.826V9.36536H11.6926V9.0987H11.5593V8.83203H11.426V8.43203H11.2926V8.16537H11.1593V7.8987H11.026V7.63203H10.8926V7.36536H10.7593V6.96536H10.626V6.6987H10.4926V6.43203H10.3593V6.03204H10.226V5.76537H10.0926V5.36536H9.95931V5.0987H9.82598V4.6987H9.69264V4.2987H9.55931V4.03204H9.42598V3.63203H9.29264V3.36536H9.15931V2.96536H9.02598V2.6987H8.89264V2.2987H8.75931V2.03204H8.62598V1.63203H8.49264V1.36536H8.35931V0.965363H8.22598V0.6987H8.09264V0.298698H7.95931V-0.101303H7.82598V-0.501297H7.69264V-0.901299H7.55931V-1.3013H7.42598V-1.7013H7.29264V-2.1013H7.15931V-2.5013H7.02598V-2.9013H6.89264V-3.3013H6.75931V-3.7013H6.62598V-4.1013H6.49264V-4.5013H6.35931V-4.9013H6.22598V-5.3013H6.09264V-5.56797H5.95931V-5.96796H5.82598V-6.5013H5.69264V-7.03464H5.55931V-7.43463H5.42598V-7.96796H5.29264V-8.36797H5.15931V-8.9013H5.02598V-9.3013H4.89264V-9.83463H4.75931V-10.2346H4.62598V-10.768H4.49264V-11.168H4.35931V-11.7013H4.22598V-12.1013H4.09264V-12.6346H3.95931V-13.168H3.82598V-13.8346H3.69264V-14.368H3.55931V-14.9013H3.42598V-15.568H3.29264V-16.1013H3.15931V-16.6346H3.02598V-17.3013H2.89264V-17.8346H2.75931V-18.368H2.62598V-19.0346H2.49264V-19.7013H2.35931V-20.368H2.22598V-21.168H2.09264V-21.8346H1.95931V-22.6346H1.82598V-23.4346H1.69264V-24.1013H1.55931V-24.9013H1.42598V-25.568H1.29264V-26.5013H1.15931V-27.568H1.02598V-28.6346H0.892643V-29.7013H0.75931V-30.768H0.625977V-31.7013H18.8926V-31.0346H19.026V-29.968H19.1593V-28.9013H19.2926V-28.2346H19.426V-27.4346H19.5593V-26.6346H19.6926V-25.968H19.826V-25.168H19.9593V-24.5013H20.0926V-23.7013H20.226V-22.9013H20.3593V-22.368H20.4926V-21.8346H20.626V-21.168H20.7593V-20.6346H20.8926V-20.1013H21.026V-19.4346H21.1593V-18.9013H21.2926V-18.368H21.426V-17.7013H21.5593V-17.168H21.6926V-16.768H21.826V-16.2346H21.9593V-15.8346H22.0926V-15.3013H22.226V-14.768H22.3593V-14.368H22.4926V-13.8346H22.626V-13.4346H22.7593V-12.9013H22.8926V-12.5013H23.026V-11.968H23.1593V-11.568H23.2926V-11.168H23.426V-10.768H23.5593V-10.368H23.6926V-9.96796H23.826V-9.56797H23.9593V-9.16797H24.0926V-8.76797H24.226V-8.36797H24.3593V-7.96796H24.4926V-7.56797H24.626V-7.16797H24.7593V-6.76797H24.8926V-6.36797H25.026V-5.96796H25.1593V-5.7013H25.2926V-5.3013H25.426V-5.03464H25.5593V-4.63464H25.6926V-4.36797H25.826V-3.96796H25.9593V-3.56797H26.0926V-3.3013H26.226V-2.9013H26.3593V-2.63464H26.4926V-2.23463H26.626V-1.96796H26.7593V-1.56797H26.8926V-1.3013H27.026V-0.901299H27.1593V-0.634636H27.2926V-0.234634H27.426V0.0320358H27.5593V0.298698H27.6926V0.565369H27.826V0.965363H27.9593V1.23203H28.0926V1.4987H28.226V1.76537H28.3593V2.03204H28.4926V2.43203H28.626V2.6987H28.7593V2.96536H28.8926V3.23203H29.026V3.4987H29.1593V3.8987H29.2926V4.16537H29.426V4.43203H29.5593V4.6987H29.6926V4.96536H29.826V5.23203H29.9593V5.4987H30.0926V5.76537H30.226V6.03204H30.3593V6.2987H30.4926V6.56537H30.626V6.83203H30.7593V7.0987H30.8926V7.36536H31.026V7.63203H31.1593V7.8987H31.2926V8.16537H31.426V8.43203H31.5593V8.6987H31.6926V8.96536H31.826V9.23203H31.9593V9.4987H32.0926V9.76537H32.226V9.8987H32.3593V10.1654H32.4926V10.432H32.626V10.6987H32.7593V10.9654H32.8926V11.0987H33.026V11.3654H33.1593V11.632H33.2926V11.7654H33.426V12.032H33.5593V12.2987H33.6926V12.5654H33.826V12.6987H33.9593V12.9654H34.0926V13.232H34.226V13.4987H34.3593V13.632H34.4926V13.8987H34.626V14.1654H34.7593V14.432H34.8926V14.5654H35.026V14.832H35.1593V15.0987H35.2926V15.232H35.426V15.4987H35.5593V15.7654H35.6926V15.8987H35.826V16.1654H35.9593V16.2987H36.0926V16.5654H36.226V16.6987H36.3593V16.9654H36.4926V17.0987H36.626V17.3654H36.7593V17.632H36.8926V17.7654H37.026V18.032H37.1593V18.1654H37.2926V18.432H37.426V18.5654H37.5593V18.832H37.6926V18.9654H37.826V19.232H37.9593V19.4987H38.0926V19.632H38.226V19.8987H38.3593V20.032H38.4926V20.2987H38.626V20.432H38.7593V20.5654H38.8926V20.832H39.026V20.9654H39.1593V21.232H39.2926V21.3654H39.426V21.4987H39.5593V21.7654H39.6926V21.8987H39.826V22.1654H39.9593V22.2987H40.0926V22.432H40.226V22.6987H40.3593V22.832H40.4926V23.0987H40.626V23.232H40.7593V23.3654H40.8926V23.632H41.026V23.7654H41.1593V24.032H41.2926V24.1654H41.426V24.432H41.5593V24.5654H41.6926V24.6987H41.826V24.9654H41.9593V25.0987H42.0926V25.232H42.226V25.3654H42.3593V25.632H42.4926V25.7654H42.626V25.8987H42.7593V26.032H42.8926V26.2987H43.026V26.432H43.1593V26.5654H43.2926V26.832H43.426V26.9654H43.5593V27.0987H43.6926V27.232H43.826V27.4987H43.9593V27.632H44.0926V27.7654H44.226V27.8987H44.3593V28.1654H44.4926V28.2987H44.626V28.432H44.7593V28.6987H44.8926V28.832H45.026V28.9654H45.1593V29.0987H45.2926V29.3654H45.426V29.4987H45.5593V29.632H45.6926V29.7654H45.826V29.8987H45.9593V30.032H46.0926V30.1654H46.226V30.432H46.3593V30.5654H46.4926V30.6987H46.626V30.832H46.7593V30.9654H46.8926V31.0987H47.026V31.3654H47.1593V31.4987H47.2926V31.632H47.426V31.7654H47.5593V31.8987H47.6926V32.032H47.826V32.1654H47.9593V32.432H48.0926V32.5654H48.226V32.6987H48.3593V32.832H48.4926V32.9654H48.626V33.0987H48.7593V33.3654H48.8926V33.4987H49.026V33.632H49.1593V33.7654H49.2926V33.8987H49.426V34.032H49.5593V34.1654H49.6926V34.2987H49.826V34.432H49.9593V34.5654H50.0926V34.6987H50.226V34.832H50.3593V34.9654H50.4926V35.0987H50.626V35.232H50.7593V35.3654H50.8926V35.632H51.026V35.7654H51.1593V35.8987H51.2926V36.032H51.426V36.1654H51.5593V36.2987H51.6926V36.432H51.826V36.5654H51.9593V36.6987H52.0926V36.832H52.226V36.9654H52.3593V37.0987H52.4926V37.232H52.626V37.3654H52.7593V37.4987H52.8926V37.632H53.026V37.7654H53.1593V37.8987H53.2926V38.032H53.426V38.1654H53.5593V38.2987H53.6926V38.432H53.826V38.5654H53.9593V38.6987H54.0926V38.832H54.226V38.9654H54.3593V39.0987H54.4926V39.232H54.626V39.3654H54.7593V39.4987H54.8926V39.632H55.026V39.7654H55.1593V39.8987H55.426V40.032H55.5593V40.1654H55.6926V40.2987H55.826V40.432H55.9593V40.5654H56.0926V40.6987H56.226V40.832H56.3593V40.9654H56.4926V41.0987H56.626V41.232H56.7593V41.3654H56.8926V41.4987H57.026V41.632H57.1593V41.7654H57.2926V41.8987H57.426V42.032H57.6926V42.1654H57.826V42.2987H57.9593V42.432H58.0926V42.5654H58.226V42.6987H58.3593V42.832H58.626V42.9654H58.7593V43.0987H58.8926V43.232H59.026V43.3654H59.1593V43.4987H59.2926V43.632H59.426V43.7654H59.6926V43.8987H59.826V44.032H59.9593V44.1654H60.0926V44.2987H60.226V44.432H60.3593V44.5654H60.626V44.6987H60.7593V44.832H60.8926V44.9654H61.026V45.0987H61.1593V45.232H61.2926V45.3654H61.426V45.4987H61.6926V45.632H61.826V45.7654H61.9593V45.8987H62.226V46.032H62.3593V46.1654H62.4926V46.2987H62.626V46.432H62.8926V46.5654H63.026V46.6987H63.1593V46.832H63.2926V46.9654H63.5593V47.0987H63.6926V47.232H63.826V47.3654H64.0926V47.4987H64.226V47.632H64.3593V47.7654H64.4926V47.8987H64.7593V48.032H64.8926V48.1654H65.026V48.2987H65.1593V48.432H65.426V48.5654H65.5593V48.6987H65.6926V48.832H65.9593V48.9654H66.0926V49.0987H66.226V49.232H66.4926V49.3654H66.626V49.4987H66.7593V49.632H67.026V49.7654H67.1593V49.8987H67.426V50.032H67.5593V50.1654H67.6926V50.2987H67.9593V50.432H68.0926V50.5654H68.3593V50.6987H68.4926V50.832H68.626V50.9654H68.8926V51.0987H69.026V51.232H69.2926V51.3654H69.426V51.4987H69.6926V51.632H69.826V51.7654H69.9593V51.8987H70.226V52.032H70.3593V52.1654H70.626V52.2987H70.7593V52.432H70.8926V52.5654H71.1593V52.6987H71.426V52.832H71.5593V52.9654H71.826V53.0987H71.9593V53.232H72.226V53.3654H72.3593V53.4987H72.626V53.632H72.8926V53.7654H73.026V53.8987H73.2926V54.032H73.426V54.1654H73.6926V54.2987H73.826V54.432H74.0926V54.5654H74.226V54.6987H74.4926V54.832H74.7593V54.9654H74.8926V55.0987H75.1593V55.232H75.2926V55.3654H75.5593V55.4987H75.6926V55.632H75.9593V55.7654H76.226V55.8987H76.4926V56.032H76.626V56.1654H76.8926V56.2987H77.1593V56.432H77.426V56.5654H77.5593V56.6987H77.826V56.832H78.0926V56.9654H78.3593V57.0987H78.4926V57.232H78.7593V57.3654H79.026V57.4987H79.2926V57.632H79.426V57.7654H79.6926V57.8987H79.9593V58.032H80.0926V58.1654H80.3593V58.2987H80.626V58.432H80.8926V58.5654H81.1593V58.6987H81.426V58.832H81.6926V58.9654H81.9593V59.0987H82.226V59.232H82.4926V59.3654H82.7593V59.4987H82.8926V59.632H83.1593V59.7654H83.426V59.8987H83.6926V60.032H83.9593V60.1654H84.226V60.2987H84.4926V60.432H84.7593V60.5654H85.026V60.6987H85.2926V60.832H85.5593V60.9654H85.826V61.0987H86.0926V61.232H86.3593V61.3654H86.7593V61.4987H87.026V61.632H87.2926V61.7654H87.5593V61.8987H87.826V62.032H88.226V62.1654H88.4926V62.2987H88.7593V62.432H89.026V62.5654H89.2926V62.6987H89.6926V62.832H89.9593V62.9654H90.226V63.0987H90.4926V63.232H90.8926V63.3654H91.1593V63.4987H91.426V63.632H91.826V63.7654H92.0926V63.8987H92.4926V64.032H92.7593V64.1654H93.1593V64.2987H93.426V64.432H93.826V64.5654H94.0926V64.6987H94.4926V64.832H94.8926V64.9654H95.1593V65.0987H95.5593V65.232H95.826V65.3654H96.226V65.4987H96.4926V65.632H96.8926V65.7654H97.2926V65.8987H97.6926V66.032H98.0926V66.1654H98.4926V66.2987H98.8926V66.432H99.2926V66.5654H99.6926V66.6987H100.093V66.832H100.493V66.9654H100.893V67.0987H101.293V67.232H101.693V67.3654H101.959V67.4987H102.493V67.632H102.893V67.7654H103.426V67.8987H103.826V68.032H104.359V68.1654H104.759V68.2987H105.293V68.432H105.693V68.5654H106.226V68.6987H106.626V68.832H107.159V68.9654H107.559V69.0987H108.093V69.232H108.759V69.3654H109.293V69.4987H109.826V69.632H110.493V69.7654H111.026V69.8987H111.559V70.032H112.226V70.1654H112.759V70.2987H113.293V70.432H113.959V70.5654H114.759V70.6987H115.426V70.832H116.226V70.9654H116.893V71.0987H117.693V71.232H118.493V71.3654H119.159V71.4987H120.093V71.632H121.159V71.7654H122.226V71.8987H123.159V72.032H124.226V72.1654H125.293V72.2987H126.893V72.432H128.626V72.5654H130.359V72.6987H132.626V72.832H143.159V72.6987H145.293V72.5654H147.159V72.432H148.893V72.2987H150.359V72.1654H151.426V72.032H152.493V71.8987H153.559V71.7654H154.626V71.632H155.693V71.4987H156.493V71.3654H157.293V71.232H157.959V71.0987H158.759V70.9654H159.426V70.832H160.226V70.6987H161.026V70.5654H161.693V70.432H162.359V70.2987H162.893V70.1654H163.559V70.032H164.093V69.8987H164.626V69.7654H165.293V69.632H165.826V69.4987H166.359V69.3654H167.026V69.232H167.559V69.0987H168.093V68.9654H168.493V68.832H169.026V68.6987H169.426V68.5654H169.959V68.432H170.359V68.2987H170.893V68.1654H171.426V68.032H171.826V67.8987H172.359V67.7654H172.759V67.632H173.293V67.4987H173.693V67.3654H174.093V67.232H174.493V67.0987H174.893V66.9654H175.293V66.832H175.693V66.6987H176.093V66.5654H176.493V66.432H176.759V66.2987H177.159V66.1654H177.559V66.032H177.959V65.8987H178.359V65.7654H178.759V65.632H179.159V65.4987H179.559V65.3654H179.826V65.232H180.226V65.0987H180.493V64.9654H180.893V64.832H181.159V64.6987H181.559V64.5654H181.826V64.432H182.226V64.2987H182.493V64.1654H182.893V64.032H183.293V63.8987H183.559V63.7654H183.959V63.632H184.226V63.4987H184.626V63.3654H184.893V63.232H185.159V63.0987H185.426V62.9654H185.693V62.832H186.093V62.6987H186.359V62.5654H186.626V62.432H186.893V62.2987H187.293V62.1654H187.559V62.032H187.826V61.8987H188.093V61.7654H188.359V61.632H188.759V61.4987H189.026V61.3654H189.293V61.232H189.559V61.0987H189.826V60.9654H190.093V60.832H190.359V60.6987H190.626V60.5654H190.893V60.432H191.159V60.2987H191.426V60.1654H191.693V60.032H191.959V59.8987H192.226V59.7654H192.493V59.632H192.759V59.4987H193.026V59.3654H193.293V59.232H193.559V59.0987H193.826V58.9654H194.093V58.832H194.359V58.6987H194.626V58.5654H194.759V58.432H195.026V58.2987H195.293V58.1654H195.559V58.032H195.826V57.8987H195.959V57.7654H196.226V57.632H196.493V57.4987H196.759V57.3654H196.893V57.232H197.159V57.0987H197.426V56.9654H197.559V56.832H197.826V56.6987H198.093V56.5654H198.359V56.432H198.493V56.2987H198.759V56.1654H199.026V56.032H199.293V55.8987H199.426V55.7654H199.693V55.632H199.959V55.4987H200.226V55.3654H200.359V55.232H200.626V55.0987H200.759V54.9654H201.026V54.832H201.159V54.6987H201.426V54.5654H201.559V54.432H201.826V54.2987H202.093V54.1654H202.226V54.032H202.493V53.8987H202.626V53.7654H202.893V53.632H203.026V53.4987H203.293V53.3654H203.426V53.232H203.693V53.0987H203.959V52.9654H204.093V52.832H204.359V52.6987H204.493V52.5654H204.759V52.432H204.893V52.2987H205.159V52.1654H205.293V52.032H205.559V51.8987H205.693V51.7654H205.826V51.632H206.093V51.4987H206.226V51.3654H206.493V51.232H206.626V51.0987H206.759V50.9654H207.026V50.832H207.159V50.6987H207.426V50.5654H207.559V50.432H207.693V50.2987H207.959V50.1654H208.093V50.032H208.359V49.8987H208.493V49.7654H208.626V49.632H208.893V49.4987H209.026V49.3654H209.293V49.232H209.426V49.0987H209.693V48.9654H209.826V48.832H209.959V48.6987H210.093V48.5654H210.359V48.432H210.493V48.2987H210.626V48.1654H210.759V48.032H211.026V47.8987H211.159V47.7654H211.293V47.632H211.559V47.4987H211.693V47.3654H211.826V47.232H211.959V47.0987H212.226V46.9654H212.359V46.832H212.493V46.6987H212.626V46.5654H212.893V46.432H213.026V46.2987H213.159V46.1654H213.426V46.032H213.559V45.8987H213.693V45.7654H213.826V45.632H214.093V45.4987H214.226V45.3654H214.359V45.232H214.493V45.0987H214.626V44.9654H214.759V44.832H215.026V44.6987H215.159V44.5654H215.293V44.432H215.426V44.2987H215.559V44.1654H215.693V44.032H215.959V43.8987H216.093V43.7654H216.226V43.632H216.359V43.4987H216.493V43.3654H216.626V43.232H216.759V43.0987H217.026V42.9654H217.159V42.832H217.293V42.6987H217.426V42.5654H217.559V42.432H217.693V42.2987H217.959V42.1654H218.093V42.032H218.226V41.8987H218.359V41.7654H218.493V41.632H218.626V41.4987H218.759V41.3654H218.893V41.232H219.026V41.0987H219.159V40.9654H219.293V40.832H219.426V40.6987H219.693V40.5654H219.826V40.432H219.959V40.2987H220.093V40.1654H220.226V40.032H220.359V39.8987H220.493V39.7654H220.626V39.632H220.759V39.4987H220.893V39.3654H221.026V39.232H221.159V39.0987H221.293V38.9654H221.426V38.832H221.559V38.6987H221.693V38.5654H221.826V38.432H221.959V38.2987H222.093V38.1654H222.226V38.032H222.493V37.8987H222.626V37.7654H222.759V37.632H222.893V37.4987H223.026V37.232H223.159V37.0987H223.293V36.9654H223.426V36.832H223.559V36.6987H223.693V36.5654H223.826V36.432H223.959V36.2987H224.093V36.1654H224.226V36.032H224.359V35.8987H224.493V35.7654H224.626V35.632H224.759V35.4987H224.893V35.3654H225.026V35.232H225.159V35.0987H225.293V34.9654H225.426V34.832H225.559V34.6987H225.693V34.432H225.826V34.2987H225.959V34.1654H226.093V34.032H226.226V33.8987H226.359V33.7654H226.493V33.632H226.626V33.4987H226.759V33.3654H226.893V33.232H227.026V33.0987H227.159V32.9654H227.293V32.6987H227.426V32.5654H227.559V32.432H227.693V32.2987H227.826V32.1654H227.959V32.032H228.093V31.7654H228.226V31.632H228.359V31.4987H228.493V31.3654H228.626V31.232H228.759V31.0987H228.893V30.832H229.026V30.6987H229.159V30.5654H229.293V30.432H229.426V30.2987H229.559V30.1654H229.693V30.032H229.826V29.7654H229.959V29.632H230.093V29.4987H230.226V29.3654H230.359V29.232H230.493V29.0987H230.626V28.832H230.759V28.6987H230.893V28.5654H231.026V28.2987H231.159V28.1654H231.293V28.032H231.426V27.8987H231.559V27.632H231.693V27.4987H231.826V27.3654H231.959V27.232H232.093V26.9654H232.226V26.832H232.359V26.6987H232.493V26.432H232.626V26.2987H232.759V26.1654H232.893V26.032H233.026V25.7654H233.159V25.632H233.293V25.4987H233.426V25.3654H233.559V25.0987H233.693V24.9654H233.826V24.832H233.959V24.5654H234.093V24.432H234.226V24.2987H234.359V24.032H234.493V23.8987H234.626V23.632H234.759V23.4987H234.893V23.3654H235.026V23.0987H235.159V22.9654H235.293V22.6987H235.426V22.5654H235.559V22.432H235.693V22.1654H235.826V22.032H235.959V21.7654H236.093V21.632H236.226V21.3654H236.359V21.232H236.493V21.0987H236.626V20.832H236.759V20.6987H236.893V20.432H237.026V20.2987H237.159V20.1654H237.293V19.8987H237.426V19.7654H237.559V19.4987H237.693V19.3654H237.826V19.0987H237.959V18.832H238.093V18.6987H238.226V18.432H238.359V18.2987H238.493V18.032H238.626V17.8987H238.759V17.632H238.893V17.4987H239.026V17.232H239.159V16.9654H239.293V16.832H239.426V16.5654H239.559V16.432H239.693V16.1654H239.826V16.032H239.959V15.7654H240.093V15.4987H240.226V15.3654H240.359V15.0987H240.493V14.9654H240.626V14.6987H240.759V14.432H240.893V14.1654H241.026V14.032H241.159V13.7654H241.293V13.4987H241.426V13.232H241.559V13.0987H241.693V12.832H241.826V12.5654H241.959V12.432H242.093V12.1654H242.226V11.8987H242.359V11.632H242.493V11.4987H242.626V11.232H242.759V10.9654H242.893V10.6987H243.026V10.5654H243.159V10.2987H243.293V10.032H243.426V9.76537H243.559V9.4987H243.693V9.23203H243.826V8.96536H243.959V8.6987H244.093V8.43203H244.226V8.16537H244.359V8.03204H244.493V7.76537H244.626V7.4987H244.759V7.23203H244.893V6.96536H245.026V6.6987H245.159V6.43203H245.293V6.16537H245.426V5.8987H245.559V5.63203H245.693V5.36536H245.826V5.0987H245.959V4.83203H246.093V4.56537H246.226V4.2987H246.359V3.8987H246.493V3.63203H246.626V3.36536H246.759V3.0987H246.893V2.83203H247.026V2.43203H247.159V2.16537H247.293V1.8987H247.426V1.63203H247.559V1.23203H247.693V0.965363H247.826V0.6987H247.959V0.43203H248.093V0.165367H248.226V-0.234634H248.359V-0.501297H248.493V-0.767967H248.626V-1.16797H248.759V-1.43463H248.893V-1.83463H249.026V-2.1013H249.159V-2.5013H249.293V-2.9013H249.426V-3.16797H249.559V-3.56797H249.693V-3.83463H249.826V-4.23463H249.959V-4.5013H250.093V-4.9013H250.226V-5.16797H250.359V-5.56797H250.493V-5.83463H250.626V-6.23463H250.759V-6.63464H250.893V-7.03464H251.026V-7.43463H251.159V-7.83463H251.293V-8.23463H251.426V-8.63464H251.559V-9.03463H251.693V-9.43463H251.826V-9.83463H251.959V-10.2346H252.093V-10.6346H252.226V-11.0346H252.359V-11.4346H252.493V-11.8346H252.626V-12.368H252.759V-12.768H252.893V-13.3013H253.026V-13.7013H253.159V-14.2346H253.293V-14.6346H253.426V-15.168H253.559V-15.568H253.693V-16.1013H253.826V-16.5013H253.959V-17.0346H254.093V-17.568H254.226V-18.1013H254.359V-18.768H254.493V-19.3013H254.626V-19.8346H254.759V-20.5013H254.893V-21.0346H255.026V-21.568H255.159V-22.2346H255.293V-22.768H255.426V-23.4346H255.559V-24.2346H255.693V-24.9013H255.826V-25.7013H255.959V-26.5013H256.093V-27.168H256.226V-27.968H256.359V-28.6346H256.493V-29.7013H256.626V-30.768H256.759V-31.7013H275.159V-31.4346H275.026V-30.368H274.893V-29.3013H274.759V-28.2346H274.626V-27.3013H274.493V-26.2346H274.359V-25.4346H274.226V-24.6346H274.093V-23.8346H273.959V-23.168H273.826V-22.368H273.693V-21.7013H273.559V-20.9013H273.426V-20.1013H273.293V-19.4346H273.159V-18.768H273.026V-18.2346H272.893V-17.7013H272.759V-17.0346H272.626V-16.5013H272.493V-15.968H272.359V-15.3013H272.226V-14.768H272.093V-14.2346H271.959V-13.568H271.826V-13.0346H271.693V-12.5013H271.559V-11.968H271.426V-11.568H271.293V-11.0346H271.159V-10.6346H271.026V-10.1013H270.893V-9.7013H270.759V-9.16797H270.626V-8.63464H270.493V-8.23463H270.359V-7.7013H270.226V-7.3013H270.093V-6.76797H269.959V-6.36797H269.826V-5.83463H269.693V-5.56797H269.559V-5.16797H269.426V-4.76797H269.293V-4.36797H269.159V-3.96796H269.026V-3.56797H268.893V-3.16797H268.759V-2.76797H268.626V-2.36797H268.493V-1.96796H268.359V-1.56797H268.226V-1.16797H268.093V-0.767967H267.959V-0.367966H267.826V0.0320358H267.693V0.43203H267.559V0.6987H267.426V1.0987H267.293V1.36536H267.159V1.76537H267.026V2.16537H266.893V2.43203H266.759V2.83203H266.626V3.0987H266.493V3.4987H266.359V3.76537H266.226V4.16537H266.093V4.43203H265.959V4.83203H265.826V5.0987H265.693V5.4987H265.559V5.76537H265.426V6.16537H265.293V6.56537H265.159V6.83203H265.026V7.0987H264.893V7.36536H264.759V7.76537H264.626V8.03204H264.493V8.2987H264.359V8.56537H264.226V8.83203H264.093V9.23203H263.959V9.4987H263.826V9.76537H263.693V10.032H263.559V10.2987H263.426V10.6987H263.293V10.9654H263.159V11.232H263.026V11.4987H262.893V11.8987H262.759V12.1654H262.626V12.432H262.493V12.6987H262.359V12.9654H262.226V13.232H262.093V13.4987H261.959V13.7654H261.826V14.032H261.693V14.2987H261.559V14.5654H261.426V14.832H261.293V15.0987H261.159V15.3654H261.026V15.632H260.893V15.8987H260.759V16.1654H260.626V16.432H260.493V16.6987H260.359V16.832H260.226V17.0987H260.093V17.3654H259.959V17.632H259.826V17.8987H259.693V18.1654H259.559V18.432H259.426V18.6987H259.293V18.9654H259.159V19.232H259.026V19.3654H258.893V19.632H258.759V19.8987H258.626V20.1654H258.493V20.2987H258.359V20.5654H258.226V20.832H258.093V21.0987H257.959V21.232H257.826V21.4987H257.693V21.7654H257.559V22.032H257.426V22.1654H257.293V22.432H257.159V22.6987H257.026V22.9654H256.893V23.0987H256.759V23.3654H256.626V23.632H256.493V23.7654H256.359V24.032H256.226V24.2987H256.093V24.5654H255.959V24.6987H255.826V24.9654H255.693V25.0987H255.559V25.3654H255.426V25.632H255.293V25.7654H255.159V26.032H255.026V26.1654H254.893V26.432H254.759V26.5654H254.626V26.832H254.493V26.9654H254.359V27.232H254.226V27.4987H254.093V27.632H253.959V27.8987H253.826V28.032H253.693V28.2987H253.559V28.432H253.426V28.6987H253.293V28.832H253.159V29.0987H253.026V29.3654H252.893V29.4987H252.759V29.7654H252.626V29.8987H252.493V30.1654H252.359V30.2987H252.226V30.5654H252.093V30.6987H251.959V30.832H251.826V31.0987H251.693V31.232H251.559V31.4987H251.426V31.632H251.293V31.8987H251.159V32.032H251.026V32.1654H250.893V32.432H250.759V32.5654H250.626V32.832H250.493V32.9654H250.359V33.0987H250.226V33.3654H250.093V33.4987H249.959V33.7654H249.826V33.8987H249.693V34.032H249.559V34.2987H249.426V34.432H249.293V34.6987H249.159V34.832H249.026V34.9654H248.893V35.232H248.759V35.3654H248.626V35.632H248.493V35.7654H248.359V35.8987H248.226V36.032H248.093V36.2987H247.959V36.432H247.826V36.5654H247.693V36.832H247.559V36.9654H247.426V37.0987H247.293V37.232H247.159V37.4987H247.026V37.632H246.893V37.7654H246.759V37.8987H246.626V38.1654H246.493V38.2987H246.359V38.432H246.226V38.6987H246.093V38.832H245.959V38.9654H245.826V39.0987H245.693V39.3654H245.559V39.4987H245.426V39.632H245.293V39.7654H245.159V40.032H245.026V40.1654H244.893V40.2987H244.759V40.5654H244.626V40.6987H244.493V40.832H244.359V40.9654H244.226V41.0987H244.093V41.3654H243.959V41.4987H243.826V41.632H243.693V41.7654H243.559V41.8987H243.426V42.032H243.293V42.1654H243.159V42.432H243.026V42.5654H242.893V42.6987H242.759V42.832H242.626V42.9654H242.493V43.0987H242.359V43.3654H242.226V43.4987H242.093V43.632H241.959V43.7654H241.826V43.8987H241.693V44.032H241.559V44.1654H241.426V44.432H241.293V44.5654H241.159V44.6987H241.026V44.832H240.893V44.9654H240.759V45.0987H240.626V45.3654H240.493V45.4987H240.359V45.632H240.226V45.7654H240.093V45.8987H239.959V46.032H239.826V46.1654H239.693V46.2987H239.559V46.432H239.426V46.5654H239.293V46.6987H239.159V46.832H239.026V46.9654H238.893V47.0987H238.759V47.3654H238.626V47.4987H238.493V47.632H238.359V47.7654H238.226V47.8987H238.093V48.032H237.959V48.1654H237.826V48.2987H237.693V48.432H237.559V48.5654H237.426V48.6987H237.293V48.832H237.159V48.9654H237.026V49.0987H236.893V49.232H236.759V49.3654H236.626V49.4987H236.493V49.632H236.359V49.7654H236.226V49.8987H236.093V50.1654H235.959V50.2987H235.826V50.432H235.693V50.5654H235.559V50.6987H235.426V50.832H235.293V50.9654H235.159V51.0987H234.893V51.232H234.759V51.3654H234.626V51.4987H234.493V51.632H234.359V51.7654H234.226V51.8987H234.093V52.032H233.959V52.1654H233.826V52.2987H233.693V52.432H233.559V52.5654H233.426V52.6987H233.293V52.832H233.159V52.9654H233.026V53.0987H232.893V53.232H232.759V53.3654H232.626V53.4987H232.493V53.632H232.359V53.7654H232.226V53.8987H231.959V54.032H231.826V54.1654H231.693V54.2987H231.559V54.432H231.426V54.5654H231.293V54.6987H231.159V54.832H231.026V54.9654H230.893V55.0987H230.759V55.232H230.626V55.3654H230.493V55.4987H230.359V55.632H230.093V55.7654H229.959V55.8987H229.826V56.032H229.693V56.1654H229.559V56.2987H229.426V56.432H229.159V56.5654H229.026V56.6987H228.893V56.832H228.759V56.9654H228.626V57.0987H228.493V57.232H228.359V57.3654H228.093V57.4987H227.959V57.632H227.826V57.7654H227.693V57.8987H227.559V58.032H227.426V58.1654H227.159V58.2987H227.026V58.432H226.893V58.5654H226.759V58.6987H226.626V58.832H226.493V58.9654H226.359V59.0987H226.093V59.232H225.959V59.3654H225.826V59.4987H225.693V59.632H225.559V59.7654H225.293V59.8987H225.159V60.032H225.026V60.1654H224.893V60.2987H224.626V60.432H224.493V60.5654H224.359V60.6987H224.093V60.832H223.959V60.9654H223.826V61.0987H223.693V61.232H223.426V61.3654H223.293V61.4987H223.159V61.632H223.026V61.7654H222.759V61.8987H222.626V62.032H222.493V62.1654H222.226V62.2987H222.093V62.432H221.959V62.5654H221.826V62.6987H221.559V62.832H221.426V62.9654H221.293V63.0987H221.159V63.232H220.893V63.3654H220.759V63.4987H220.626V63.632H220.359V63.7654H220.226V63.8987H220.093V64.032H219.826V64.1654H219.693V64.2987H219.426V64.432H219.293V64.5654H219.159V64.6987H218.893V64.832H218.759V64.9654H218.493V65.0987H218.359V65.232H218.093V65.3654H217.959V65.4987H217.826V65.632H217.559V65.7654H217.426V65.8987H217.159V66.032H217.026V66.1654H216.893V66.2987H216.626V66.432H216.493V66.5654H216.226V66.6987H216.093V66.832H215.959V66.9654H215.693V67.0987H215.559V67.232H215.293V67.3654H215.159V67.4987H214.893V67.632H214.759V67.7654H214.493V67.8987H214.359V68.032H214.093V68.1654H213.959V68.2987H213.693V68.432H213.559V68.5654H213.293V68.6987H213.026V68.832H212.893V68.9654H212.626V69.0987H212.493V69.232H212.226V69.3654H212.093V69.4987H211.826V69.632H211.559V69.7654H211.426V69.8987H211.159V70.032H211.026V70.1654H210.759V70.2987H210.626V70.432H210.359V70.5654H210.226V70.6987H209.959V70.832H209.693V70.9654H209.559V71.0987H209.293V71.232H209.026V71.3654H208.893V71.4987H208.626V71.632H208.359V71.7654H208.093V71.8987H207.959V72.032H207.693V72.1654H207.426V72.2987H207.293V72.432H207.026V72.5654H206.759V72.6987H206.493V72.832H206.359V72.9654H206.093V73.0987H205.826V73.232H205.559V73.3654H205.426V73.4987H205.159V73.632H204.893V73.7654H204.626V73.8987H204.493V74.032H204.226V74.1654H203.959V74.2987H203.693V74.432H203.559V74.5654H203.293V74.6987H203.026V74.832H202.759V74.9654H202.493V75.0987H202.226V75.232H201.959V75.3654H201.693V75.4987H201.426V75.632H201.159V75.7654H200.893V75.8987H200.626V76.032H200.359V76.1654H200.093V76.2987H199.826V76.432H199.559V76.5654H199.293V76.6987H199.026V76.832H198.759V76.9654H198.493V77.0987H198.226V77.232H198.093V77.3654H197.826V77.4987H197.426V77.632H197.159V77.7654H196.893V77.8987H196.626V78.032H196.226V78.1654H195.959V78.2987H195.693V78.432H195.426V78.5654H195.159V78.6987H194.759V78.832H194.493V78.9654H194.226V79.0987H193.959V79.232H193.693V79.3654H193.293V79.4987H193.026V79.632H192.759V79.7654H192.493V79.8987H192.226V80.032H191.826V80.1654H191.559V80.2987H191.159V80.432H190.893V80.5654H190.493V80.6987H190.226V80.832H189.826V80.9654H189.559V81.0987H189.159V81.232H188.893V81.3654H188.493V81.4987H188.226V81.632H187.826V81.7654H187.559V81.8987H187.159V82.032H186.759V82.1654H186.493V82.2987H186.093V82.432H185.826V82.5654H185.426V82.6987H185.159V82.832H184.759V82.9654H184.359V83.0987H183.959V83.232H183.559V83.3654H183.159V83.4987H182.759V83.632H182.359V83.7654H181.959V83.8987H181.559V84.032H181.159V84.1654H180.759V84.2987H180.359V84.432H179.959V84.5654H179.559V84.6987H179.159V84.832H178.759V84.9654H178.226V85.0987H177.826V85.232H177.293V85.3654H176.893V85.4987H176.359V85.632H175.959V85.7654H175.426V85.8987H175.026V86.032H174.493V86.1654H174.093V86.2987H173.559V86.432H173.159V86.5654H172.626V86.6987H172.093V86.832H171.559V86.9654H171.026V87.0987H170.359V87.232H169.826V87.3654H169.293V87.4987H168.626V87.632H168.093V87.7654H167.559V87.8987H166.893V88.032H166.359V88.1654H165.826V88.2987H165.026V88.432H164.226V88.5654H163.559V88.6987H162.759V88.832H162.093V88.9654H161.293V89.0987H160.493V89.232H159.826V89.3654H159.026V89.4987H158.093V89.632H157.026V89.7654H155.959V89.8987H154.893V90.032H153.826V90.1654H152.759V90.2987H151.559V90.432H149.826V90.5654H148.093V90.6987H146.359V90.832H143.959V90.9654H139.959V91.0987" fill="url(#paint0_linear_52_2672)"/>
<defs>
<linearGradient id="paint0_linear_52_2672" x1="-0.231357" y1="-47.104" x2="275.927" y2="-47.104" gradientUnits="userSpaceOnUse">
<stop stop-color="#8ED023"/>
<stop offset="0.150029" stop-color="#8ED023"/>
<stop offset="1" stop-color="#78D2D3"/>
</linearGradient>
</defs>
</svg>
