<svg width="110" height="110" viewBox="0 0 110 110" fill="none" xmlns="http://www.w3.org/2000/svg">
<path fill-rule="evenodd" clip-rule="evenodd" d="M102.156 61.7139C107.043 66.8343 110 73.5571 110 80.9155C110 96.9751 95.9022 110 78.498 110C66.4266 110 55.9357 103.725 50.6514 94.5223H36.2918V100.735H14.8638V94.5223H0.0096959V87.3071H14.8638V81.0319H21.6703V66.8254H7.01983C5.09035 66.8254 3.33539 66.1003 2.06523 64.9276C0.785368 63.7549 0 62.1346 0 60.3532V37.5887C0 36.0042 0.620538 34.5451 1.658 33.4172C0.620538 32.2892 0 30.8301 0 29.2367V6.48112C0 4.69971 0.785368 3.07943 2.05553 1.90674C3.32569 0.725098 5.08065 0 7.01983 0H95.3107C97.2402 0 98.9952 0.725098 100.265 1.89779C101.535 3.07048 102.321 4.69076 102.321 6.47217V29.2367C102.321 30.8211 101.691 32.2803 100.663 33.4082C101.7 34.5361 102.321 35.9953 102.321 37.5798V60.3442C102.321 60.8097 102.263 61.2663 102.156 61.7139ZM87.6897 74.8014C88.1551 74.7298 88.6205 74.703 89.0956 74.703C91.0639 74.7119 92.9546 75.3654 94.4478 76.8514C94.758 77.1647 95.0586 77.5138 95.3301 77.9077C96.2706 79.2326 96.7457 81.014 96.7263 82.7507C96.7069 84.4515 96.2027 86.1523 95.1944 87.3966C94.535 88.2113 93.6818 88.8737 92.6637 89.4019C91.6844 89.9121 90.5306 90.297 89.2508 90.5745L89.0084 90.6014H67.6192L67.4835 90.5924C66.6981 90.5029 65.9903 90.3328 65.3504 90.0822C64.6911 89.8315 64.0996 89.5003 63.576 89.0975C63.0815 88.7215 62.6549 88.2918 62.2865 87.8263C61.3072 86.582 60.7836 85.0602 60.7739 83.5563C60.7642 82.0256 61.2781 80.5037 62.3931 79.2773C62.7519 78.8745 63.1785 78.5164 63.6633 78.1852C64.2257 77.8092 64.8753 77.487 65.6025 77.2274C66.1067 77.0483 66.6399 76.8962 67.212 76.7708C67.8519 74.4076 69.2287 72.5903 70.9934 71.3281C72.6417 70.1465 74.6294 69.4572 76.6752 69.2782C78.7113 69.0991 80.8056 69.4124 82.6866 70.245C84.7422 71.1491 86.5262 72.6709 87.6897 74.8014ZM47.7717 87.3071C47.2675 85.2482 47.0057 83.1087 47.0057 80.9155C47.0057 75.804 48.4407 70.9969 50.9423 66.8254H29.4755V81.0409H36.2821V87.3161H47.7717V87.3071ZM25.5778 86.394C28.2636 86.394 30.4451 88.4082 30.4451 90.8879C30.4451 93.3675 28.2636 95.3817 25.5778 95.3817C22.892 95.3817 20.7104 93.3675 20.7104 90.8879C20.7104 88.4082 22.8823 86.394 25.5778 86.394ZM13.7391 11.6642H18.9264V24.0625H13.7391V11.6642ZM85.0234 45.1709C87.2922 45.1709 89.1344 46.8717 89.1344 48.9665C89.1344 50.7568 87.7964 52.2518 85.993 52.6546C87.6219 53.0216 89.2023 53.505 90.7245 54.0959C93.1 55.0179 95.3301 56.1906 97.3759 57.596V37.5887C97.3759 37.0695 97.1432 36.5861 96.7651 36.2459C96.4742 35.9774 96.0961 35.7894 95.6792 35.7178C95.5531 35.7267 95.4271 35.7267 95.3107 35.7267H7.01983C6.89379 35.7267 6.76774 35.7267 6.65139 35.7178C6.23446 35.7894 5.85632 35.9774 5.56545 36.2459C5.17761 36.5861 4.94491 37.0605 4.94491 37.5887V60.3532C4.94491 60.8724 5.17761 61.3558 5.55575 61.696C5.93389 62.0451 6.44777 62.2599 7.01014 62.2599H54.1031C56.9537 59.1447 60.483 56.5845 64.4777 54.7852C68.6955 52.8874 73.4271 51.8221 78.4301 51.8221C79.8651 51.8221 81.2807 51.9116 82.6673 52.0817C81.6007 51.3924 80.9123 50.2555 80.9123 48.9665C80.9123 46.8717 82.7545 45.1709 85.0234 45.1709ZM69.3645 45.1709C71.6333 45.1709 73.4755 46.8717 73.4755 48.9665C73.4755 51.0612 71.6333 52.762 69.3645 52.762C67.0956 52.762 65.2534 51.0612 65.2534 48.9665C65.2534 46.8717 67.0956 45.1709 69.3645 45.1709ZM42.4196 42.7718H47.6069V55.1701H42.4196V42.7718ZM28.0793 42.7718H33.2666V55.1701H28.0793V42.7718ZM13.7391 42.7718H18.9264V55.1701H13.7391V42.7718ZM85.0234 14.0633C87.2922 14.0633 89.1344 15.7642 89.1344 17.8589C89.1344 19.9536 87.2922 21.6545 85.0234 21.6545C82.7545 21.6545 80.9123 19.9536 80.9123 17.8589C80.9123 15.7642 82.7545 14.0633 85.0234 14.0633ZM69.3645 14.0633C71.6333 14.0633 73.4755 15.7642 73.4755 17.8589C73.4755 19.9536 71.6333 21.6545 69.3645 21.6545C67.0956 21.6545 65.2534 19.9536 65.2534 17.8589C65.2534 15.7642 67.0956 14.0633 69.3645 14.0633ZM42.4196 11.6642H47.6069V24.0625H42.4196V11.6642ZM28.0793 11.6642H33.2666V24.0625H28.0793V11.6642ZM6.64169 31.1165C6.76774 31.1076 6.89379 31.1076 7.01014 31.1076H95.301C95.4271 31.1076 95.5531 31.1076 95.6695 31.1165C96.0864 31.0449 96.4645 30.8569 96.7554 30.5884C97.1335 30.2393 97.3662 29.7648 97.3662 29.2456V6.48112C97.3662 5.96191 97.1335 5.47852 96.7554 5.12939C96.3773 4.78027 95.8634 4.56543 95.301 4.56543H7.01983C6.45747 4.56543 5.93389 4.78027 5.55575 5.12939C5.17761 5.47852 4.94491 5.95296 4.94491 6.48112V29.2456C4.94491 29.7648 5.17761 30.2482 5.55575 30.5884C5.84663 30.8569 6.22477 31.0449 6.64169 31.1165ZM94.981 61.6333C93.1097 60.2905 91.0445 59.1626 88.8339 58.3032C85.6439 57.0679 82.1243 56.3875 78.4398 56.3875C76.1419 56.3875 73.9119 56.6561 71.7788 57.1574C60.3473 59.9146 51.9119 69.5109 51.9119 80.9245C51.9119 94.4865 63.8184 105.488 78.5174 105.488C93.2164 105.488 105.123 94.4954 105.123 80.9245C105.104 73.1006 101.148 66.1361 94.981 61.6333Z" fill="#19B2B8"/>
</svg>
